<?xml version="1.0" encoding="UTF-8" standalone="no"?>
<!DOCTYPE svg PUBLIC "-//W3C//DTD SVG 1.1//EN"
 "http://www.w3.org/Graphics/SVG/1.1/DTD/svg11.dtd">
<!-- Generated by graphviz version 2.40.1 (20161225.0304)
 -->
<!-- Title: %3 Pages: 1 -->
<svg width="1295pt" height="341pt"
 viewBox="0.00 0.00 1295.00 341.00" xmlns="http://www.w3.org/2000/svg" xmlns:xlink="http://www.w3.org/1999/xlink">
<g id="graph0" class="graph" transform="scale(1 1) rotate(0) translate(4 337)">
<title>%3</title>
<polygon fill="#ffffff" stroke="transparent" points="-4,4 -4,-337 1291,-337 1291,4 -4,4"/>
<!-- RPi -->
<g id="node1" class="node">
<title>RPi</title>
<polygon fill="#ffffff" stroke="transparent" points="174,-333 0,-333 0,-57 174,-57 174,-333"/>
<polygon fill="none" stroke="#000000" points="0,-310 0,-333 174,-333 174,-310 0,-310"/>
<text text-anchor="start" x="75" y="-317.8" font-family="arial" font-size="14.00" fill="#000000">RPi</text>
<polygon fill="none" stroke="#000000" points="0,-287 0,-310 174,-310 174,-287 0,-287"/>
<text text-anchor="start" x="44.5" y="-294.8" font-family="arial" font-size="14.00" fill="#000000">Raspberry Pi</text>
<polygon fill="none" stroke="#000000" points="0,-264 0,-287 85,-287 85,-264 0,-264"/>
<text text-anchor="start" x="4" y="-271.8" font-family="arial" font-size="14.00" fill="#000000">Zero or 3B+</text>
<polygon fill="none" stroke="#000000" points="85,-264 85,-287 125,-287 125,-264 85,-264"/>
<text text-anchor="start" x="89" y="-271.8" font-family="arial" font-size="14.00" fill="#000000">male</text>
<polygon fill="none" stroke="#000000" points="125,-264 125,-287 174,-287 174,-264 125,-264"/>
<text text-anchor="start" x="129" y="-271.8" font-family="arial" font-size="14.00" fill="#000000">40&#45;pin</text>
<polygon fill="none" stroke="#000000" points="0,-241 0,-264 109,-264 109,-241 0,-241"/>
<text text-anchor="start" x="45" y="-248.8" font-family="arial" font-size="14.00" fill="#000000">3V</text>
<polygon fill="none" stroke="#000000" points="109,-241 109,-264 174,-264 174,-241 109,-241"/>
<text text-anchor="start" x="137" y="-248.8" font-family="arial" font-size="14.00" fill="#000000">1</text>
<polygon fill="none" stroke="#000000" points="0,-218 0,-241 109,-241 109,-218 0,-218"/>
<text text-anchor="start" x="45" y="-225.8" font-family="arial" font-size="14.00" fill="#000000">5V</text>
<polygon fill="none" stroke="#000000" points="109,-218 109,-241 174,-241 174,-218 109,-218"/>
<text text-anchor="start" x="137" y="-225.8" font-family="arial" font-size="14.00" fill="#000000">2</text>
<polygon fill="none" stroke="#000000" points="0,-195 0,-218 109,-218 109,-195 0,-195"/>
<text text-anchor="start" x="45" y="-202.8" font-family="arial" font-size="14.00" fill="#000000">5V</text>
<polygon fill="none" stroke="#000000" points="109,-195 109,-218 174,-218 174,-195 109,-195"/>
<text text-anchor="start" x="137" y="-202.8" font-family="arial" font-size="14.00" fill="#000000">3</text>
<polygon fill="none" stroke="#000000" points="0,-172 0,-195 109,-195 109,-172 0,-172"/>
<text text-anchor="start" x="38" y="-179.8" font-family="arial" font-size="14.00" fill="#000000">GND</text>
<polygon fill="none" stroke="#000000" points="109,-172 109,-195 174,-195 174,-172 109,-172"/>
<text text-anchor="start" x="137" y="-179.8" font-family="arial" font-size="14.00" fill="#000000">4</text>
<polygon fill="none" stroke="#000000" points="0,-149 0,-172 109,-172 109,-149 0,-149"/>
<text text-anchor="start" x="38" y="-156.8" font-family="arial" font-size="14.00" fill="#000000">GND</text>
<polygon fill="none" stroke="#000000" points="109,-149 109,-172 174,-172 174,-149 109,-149"/>
<text text-anchor="start" x="137" y="-156.8" font-family="arial" font-size="14.00" fill="#000000">5</text>
<polygon fill="none" stroke="#000000" points="0,-126 0,-149 109,-149 109,-126 0,-126"/>
<text text-anchor="start" x="28" y="-133.8" font-family="arial" font-size="14.00" fill="#000000">GPIO05</text>
<polygon fill="none" stroke="#000000" points="109,-126 109,-149 174,-149 174,-126 109,-126"/>
<text text-anchor="start" x="137" y="-133.8" font-family="arial" font-size="14.00" fill="#000000">6</text>
<polygon fill="none" stroke="#000000" points="0,-103 0,-126 109,-126 109,-103 0,-103"/>
<text text-anchor="start" x="28" y="-110.8" font-family="arial" font-size="14.00" fill="#000000">GPIO06</text>
<polygon fill="none" stroke="#000000" points="109,-103 109,-126 174,-126 174,-103 109,-103"/>
<text text-anchor="start" x="137" y="-110.8" font-family="arial" font-size="14.00" fill="#000000">7</text>
<polygon fill="none" stroke="#000000" points="0,-80 0,-103 109,-103 109,-80 0,-80"/>
<text text-anchor="start" x="28" y="-87.8" font-family="arial" font-size="14.00" fill="#000000">GPIO15</text>
<polygon fill="none" stroke="#000000" points="109,-80 109,-103 174,-103 174,-80 109,-80"/>
<text text-anchor="start" x="137" y="-87.8" font-family="arial" font-size="14.00" fill="#000000">8</text>
<polygon fill="none" stroke="#000000" points="0,-57 0,-80 109,-80 109,-57 0,-57"/>
<text text-anchor="start" x="28" y="-64.8" font-family="arial" font-size="14.00" fill="#000000">GPIO16</text>
<polygon fill="none" stroke="#000000" points="109,-57 109,-80 174,-80 174,-57 109,-57"/>
<text text-anchor="start" x="137" y="-64.8" font-family="arial" font-size="14.00" fill="#000000">9</text>
</g>
<!-- hx&#45;cable -->
<g id="node4" class="node">
<title>hx&#45;cable</title>
<polygon fill="none" stroke="#000000" points="448,-286 318,-286 318,-102 448,-102 448,-286"/>
<polygon fill="none" stroke="#000000" points="318,-263 318,-286 448,-286 448,-263 318,-263"/>
<text text-anchor="start" x="355" y="-270.8" font-family="arial" font-size="14.00" fill="#000000">hx&#45;cable</text>
<polygon fill="none" stroke="#000000" points="318,-240 318,-263 448,-263 448,-240 318,-240"/>
<text text-anchor="start" x="375" y="-247.8" font-family="arial" font-size="14.00" fill="#000000">4x</text>
<text text-anchor="start" x="336" y="-226.8" font-family="arial" font-size="14.00" fill="#000000"> </text>
<text text-anchor="start" x="320" y="-207.8" font-family="arial" font-size="14.00" fill="#000000">RPi:1</text>
<text text-anchor="start" x="360" y="-207.8" font-family="arial" font-size="14.00" fill="#000000">WH</text>
<text text-anchor="start" x="389" y="-207.8" font-family="arial" font-size="14.00" fill="#000000">HX711:1</text>
<polygon fill="#000000" stroke="transparent" points="318,-200 318,-202 448,-202 448,-200 318,-200"/>
<polygon fill="#ffffff" stroke="transparent" points="318,-198 318,-200 448,-200 448,-198 318,-198"/>
<polygon fill="#000000" stroke="transparent" points="318,-196 318,-198 448,-198 448,-196 318,-196"/>
<text text-anchor="start" x="320" y="-182.8" font-family="arial" font-size="14.00" fill="#000000">RPi:4</text>
<text text-anchor="start" x="362" y="-182.8" font-family="arial" font-size="14.00" fill="#000000">BN</text>
<text text-anchor="start" x="389" y="-182.8" font-family="arial" font-size="14.00" fill="#000000">HX711:2</text>
<polygon fill="#000000" stroke="transparent" points="318,-175 318,-177 448,-177 448,-175 318,-175"/>
<polygon fill="#895956" stroke="transparent" points="318,-173 318,-175 448,-175 448,-173 318,-173"/>
<polygon fill="#000000" stroke="transparent" points="318,-171 318,-173 448,-173 448,-171 318,-171"/>
<text text-anchor="start" x="320" y="-157.8" font-family="arial" font-size="14.00" fill="#000000">RPi:6</text>
<text text-anchor="start" x="361.5" y="-157.8" font-family="arial" font-size="14.00" fill="#000000">GN</text>
<text text-anchor="start" x="389" y="-157.8" font-family="arial" font-size="14.00" fill="#000000">HX711:3</text>
<polygon fill="#000000" stroke="transparent" points="318,-150 318,-152 448,-152 448,-150 318,-150"/>
<polygon fill="#00ff00" stroke="transparent" points="318,-148 318,-150 448,-150 448,-148 318,-148"/>
<polygon fill="#000000" stroke="transparent" points="318,-146 318,-148 448,-148 448,-146 318,-146"/>
<text text-anchor="start" x="320" y="-132.8" font-family="arial" font-size="14.00" fill="#000000">RPi:7</text>
<text text-anchor="start" x="362.5" y="-132.8" font-family="arial" font-size="14.00" fill="#000000">YE</text>
<text text-anchor="start" x="389" y="-132.8" font-family="arial" font-size="14.00" fill="#000000">HX711:4</text>
<polygon fill="#000000" stroke="transparent" points="318,-125 318,-127 448,-127 448,-125 318,-125"/>
<polygon fill="#ffff00" stroke="transparent" points="318,-123 318,-125 448,-125 448,-123 318,-123"/>
<polygon fill="#000000" stroke="transparent" points="318,-121 318,-123 448,-123 448,-121 318,-121"/>
<text text-anchor="start" x="336" y="-107.8" font-family="arial" font-size="14.00" fill="#000000"> </text>
</g>
<!-- RPi&#45;&#45;hx&#45;cable -->
<g id="edge1" class="edge">
<title>RPi:e&#45;&#45;hx&#45;cable:w</title>
<path fill="none" stroke="#000000" stroke-width="2" d="M174,-251C240.37,-252.7322 247.666,-198.7322 318,-197"/>
<path fill="none" stroke="#ffffff" stroke-width="2" d="M174,-253C242.352,-253 249.648,-199 318,-199"/>
<path fill="none" stroke="#000000" stroke-width="2" d="M174,-255C244.334,-253.2678 251.63,-199.2678 318,-201"/>
</g>
<!-- RPi&#45;&#45;hx&#45;cable -->
<g id="edge3" class="edge">
<title>RPi:e&#45;&#45;hx&#45;cable:w</title>
<path fill="none" stroke="#000000" stroke-width="2" d="M174,-181C237.1326,-181.2635 252.8829,-172.2635 318,-172"/>
<path fill="none" stroke="#895956" stroke-width="2" d="M174,-183C238.1249,-183 253.8751,-174 318,-174"/>
<path fill="none" stroke="#000000" stroke-width="2" d="M174,-185C239.1171,-184.7365 254.8674,-175.7365 318,-176"/>
</g>
<!-- RPi&#45;&#45;hx&#45;cable -->
<g id="edge5" class="edge">
<title>RPi:e&#45;&#45;hx&#45;cable:w</title>
<path fill="none" stroke="#000000" stroke-width="2" d="M174,-135C239.4434,-135.4164 254.9997,-147.4164 318,-147"/>
<path fill="none" stroke="#00ff00" stroke-width="2" d="M174,-137C238.2218,-137 253.7782,-149 318,-149"/>
<path fill="none" stroke="#000000" stroke-width="2" d="M174,-139C237.0003,-138.5836 252.5566,-150.5836 318,-151"/>
</g>
<!-- RPi&#45;&#45;hx&#45;cable -->
<g id="edge7" class="edge">
<title>RPi:e&#45;&#45;hx&#45;cable:w</title>
<path fill="none" stroke="#000000" stroke-width="2" d="M174,-112C239.229,-112.3134 254.9207,-122.3134 318,-122"/>
<path fill="none" stroke="#ffff00" stroke-width="2" d="M174,-114C238.1541,-114 253.8459,-124 318,-124"/>
<path fill="none" stroke="#000000" stroke-width="2" d="M174,-116C237.0793,-115.6866 252.771,-125.6866 318,-126"/>
</g>
<!-- HX711 -->
<g id="node2" class="node">
<title>HX711</title>
<polygon fill="#ffffff" stroke="transparent" points="726,-253 592,-253 592,-23 726,-23 726,-253"/>
<polygon fill="none" stroke="#000000" points="592,-230 592,-253 726,-253 726,-230 592,-230"/>
<text text-anchor="start" x="636.5" y="-237.8" font-family="arial" font-size="14.00" fill="#000000">HX711</text>
<polygon fill="none" stroke="#000000" points="592,-207 592,-230 645,-230 645,-207 592,-207"/>
<text text-anchor="start" x="596" y="-214.8" font-family="arial" font-size="14.00" fill="#000000">HX711</text>
<polygon fill="none" stroke="#000000" points="645,-207 645,-230 685,-230 685,-207 645,-207"/>
<text text-anchor="start" x="649" y="-214.8" font-family="arial" font-size="14.00" fill="#000000">male</text>
<polygon fill="none" stroke="#000000" points="685,-207 685,-230 726,-230 726,-207 685,-207"/>
<text text-anchor="start" x="689" y="-214.8" font-family="arial" font-size="14.00" fill="#000000">8&#45;pin</text>
<polygon fill="none" stroke="#000000" points="592,-184 592,-207 629,-207 629,-184 592,-184"/>
<text text-anchor="start" x="606" y="-191.8" font-family="arial" font-size="14.00" fill="#000000">1</text>
<polygon fill="none" stroke="#000000" points="629,-184 629,-207 690,-207 690,-184 629,-184"/>
<text text-anchor="start" x="644" y="-191.8" font-family="arial" font-size="14.00" fill="#000000">VCC</text>
<polygon fill="none" stroke="#000000" points="690,-184 690,-207 726,-207 726,-184 690,-184"/>
<text text-anchor="start" x="703.5" y="-191.8" font-family="arial" font-size="14.00" fill="#000000">1</text>
<polygon fill="none" stroke="#000000" points="592,-161 592,-184 629,-184 629,-161 592,-161"/>
<text text-anchor="start" x="606" y="-168.8" font-family="arial" font-size="14.00" fill="#000000">2</text>
<polygon fill="none" stroke="#000000" points="629,-161 629,-184 690,-184 690,-161 629,-161"/>
<text text-anchor="start" x="643" y="-168.8" font-family="arial" font-size="14.00" fill="#000000">GND</text>
<polygon fill="none" stroke="#000000" points="690,-161 690,-184 726,-184 726,-161 690,-161"/>
<text text-anchor="start" x="703.5" y="-168.8" font-family="arial" font-size="14.00" fill="#000000">2</text>
<polygon fill="none" stroke="#000000" points="592,-138 592,-161 629,-161 629,-138 592,-138"/>
<text text-anchor="start" x="606" y="-145.8" font-family="arial" font-size="14.00" fill="#000000">3</text>
<polygon fill="none" stroke="#000000" points="629,-138 629,-161 690,-161 690,-138 629,-138"/>
<text text-anchor="start" x="649.5" y="-145.8" font-family="arial" font-size="14.00" fill="#000000">DT</text>
<polygon fill="none" stroke="#000000" points="690,-138 690,-161 726,-161 726,-138 690,-138"/>
<text text-anchor="start" x="703.5" y="-145.8" font-family="arial" font-size="14.00" fill="#000000">3</text>
<polygon fill="none" stroke="#000000" points="592,-115 592,-138 629,-138 629,-115 592,-115"/>
<text text-anchor="start" x="606" y="-122.8" font-family="arial" font-size="14.00" fill="#000000">4</text>
<polygon fill="none" stroke="#000000" points="629,-115 629,-138 690,-138 690,-115 629,-115"/>
<text text-anchor="start" x="644" y="-122.8" font-family="arial" font-size="14.00" fill="#000000">SCK</text>
<polygon fill="none" stroke="#000000" points="690,-115 690,-138 726,-138 726,-115 690,-115"/>
<text text-anchor="start" x="703.5" y="-122.8" font-family="arial" font-size="14.00" fill="#000000">4</text>
<polygon fill="none" stroke="#000000" points="592,-92 592,-115 629,-115 629,-92 592,-92"/>
<text text-anchor="start" x="606" y="-99.8" font-family="arial" font-size="14.00" fill="#000000">5</text>
<polygon fill="none" stroke="#000000" points="629,-92 629,-115 690,-115 690,-92 629,-92"/>
<text text-anchor="start" x="650" y="-99.8" font-family="arial" font-size="14.00" fill="#000000">E+</text>
<polygon fill="none" stroke="#000000" points="690,-92 690,-115 726,-115 726,-92 690,-92"/>
<text text-anchor="start" x="703.5" y="-99.8" font-family="arial" font-size="14.00" fill="#000000">5</text>
<polygon fill="none" stroke="#000000" points="592,-69 592,-92 629,-92 629,-69 592,-69"/>
<text text-anchor="start" x="606" y="-76.8" font-family="arial" font-size="14.00" fill="#000000">6</text>
<polygon fill="none" stroke="#000000" points="629,-69 629,-92 690,-92 690,-69 629,-69"/>
<text text-anchor="start" x="652" y="-76.8" font-family="arial" font-size="14.00" fill="#000000">E&#45;</text>
<polygon fill="none" stroke="#000000" points="690,-69 690,-92 726,-92 726,-69 690,-69"/>
<text text-anchor="start" x="703.5" y="-76.8" font-family="arial" font-size="14.00" fill="#000000">6</text>
<polygon fill="none" stroke="#000000" points="592,-46 592,-69 629,-69 629,-46 592,-46"/>
<text text-anchor="start" x="606" y="-53.8" font-family="arial" font-size="14.00" fill="#000000">7</text>
<polygon fill="none" stroke="#000000" points="629,-46 629,-69 690,-69 690,-46 629,-46"/>
<text text-anchor="start" x="652" y="-53.8" font-family="arial" font-size="14.00" fill="#000000">A&#45;</text>
<polygon fill="none" stroke="#000000" points="690,-46 690,-69 726,-69 726,-46 690,-46"/>
<text text-anchor="start" x="703.5" y="-53.8" font-family="arial" font-size="14.00" fill="#000000">7</text>
<polygon fill="none" stroke="#000000" points="592,-23 592,-46 629,-46 629,-23 592,-23"/>
<text text-anchor="start" x="606" y="-30.8" font-family="arial" font-size="14.00" fill="#000000">8</text>
<polygon fill="none" stroke="#000000" points="629,-23 629,-46 690,-46 690,-23 629,-23"/>
<text text-anchor="start" x="650" y="-30.8" font-family="arial" font-size="14.00" fill="#000000">A+</text>
<polygon fill="none" stroke="#000000" points="690,-23 690,-46 726,-46 726,-23 690,-23"/>
<text text-anchor="start" x="703.5" y="-30.8" font-family="arial" font-size="14.00" fill="#000000">8</text>
</g>
<!-- scale&#45;cable -->
<g id="node5" class="node">
<title>scale&#45;cable</title>
<polygon fill="none" stroke="#000000" points="1013,-193 870,-193 870,-9 1013,-9 1013,-193"/>
<polygon fill="none" stroke="#000000" points="870.5,-170 870.5,-193 1013.5,-193 1013.5,-170 870.5,-170"/>
<text text-anchor="start" x="904.5" y="-177.8" font-family="arial" font-size="14.00" fill="#000000">scale&#45;cable</text>
<polygon fill="none" stroke="#000000" points="870.5,-147 870.5,-170 1013.5,-170 1013.5,-147 870.5,-147"/>
<text text-anchor="start" x="934" y="-154.8" font-family="arial" font-size="14.00" fill="#000000">4x</text>
<text text-anchor="start" x="899" y="-133.8" font-family="arial" font-size="14.00" fill="#000000"> </text>
<text text-anchor="start" x="872.5" y="-114.8" font-family="arial" font-size="14.00" fill="#000000">HX711:5</text>
<text text-anchor="start" x="933.5" y="-114.8" font-family="arial" font-size="14.00" fill="#000000">WH</text>
<text text-anchor="start" x="962.5" y="-114.8" font-family="arial" font-size="14.00" fill="#000000">Scale:1</text>
<polygon fill="#000000" stroke="transparent" points="870.5,-107 870.5,-109 1013.5,-109 1013.5,-107 870.5,-107"/>
<polygon fill="#ffffff" stroke="transparent" points="870.5,-105 870.5,-107 1013.5,-107 1013.5,-105 870.5,-105"/>
<polygon fill="#000000" stroke="transparent" points="870.5,-103 870.5,-105 1013.5,-105 1013.5,-103 870.5,-103"/>
<text text-anchor="start" x="872.5" y="-89.8" font-family="arial" font-size="14.00" fill="#000000">HX711:6</text>
<text text-anchor="start" x="935.5" y="-89.8" font-family="arial" font-size="14.00" fill="#000000">BN</text>
<text text-anchor="start" x="962.5" y="-89.8" font-family="arial" font-size="14.00" fill="#000000">Scale:2</text>
<polygon fill="#000000" stroke="transparent" points="870.5,-82 870.5,-84 1013.5,-84 1013.5,-82 870.5,-82"/>
<polygon fill="#895956" stroke="transparent" points="870.5,-80 870.5,-82 1013.5,-82 1013.5,-80 870.5,-80"/>
<polygon fill="#000000" stroke="transparent" points="870.5,-78 870.5,-80 1013.5,-80 1013.5,-78 870.5,-78"/>
<text text-anchor="start" x="872.5" y="-64.8" font-family="arial" font-size="14.00" fill="#000000">HX711:7</text>
<text text-anchor="start" x="935" y="-64.8" font-family="arial" font-size="14.00" fill="#000000">GN</text>
<text text-anchor="start" x="962.5" y="-64.8" font-family="arial" font-size="14.00" fill="#000000">Scale:3</text>
<polygon fill="#000000" stroke="transparent" points="870.5,-57 870.5,-59 1013.5,-59 1013.5,-57 870.5,-57"/>
<polygon fill="#00ff00" stroke="transparent" points="870.5,-55 870.5,-57 1013.5,-57 1013.5,-55 870.5,-55"/>
<polygon fill="#000000" stroke="transparent" points="870.5,-53 870.5,-55 1013.5,-55 1013.5,-53 870.5,-53"/>
<text text-anchor="start" x="872.5" y="-39.8" font-family="arial" font-size="14.00" fill="#000000">HX711:8</text>
<text text-anchor="start" x="936" y="-39.8" font-family="arial" font-size="14.00" fill="#000000">YE</text>
<text text-anchor="start" x="962.5" y="-39.8" font-family="arial" font-size="14.00" fill="#000000">Scale:4</text>
<polygon fill="#000000" stroke="transparent" points="870.5,-32 870.5,-34 1013.5,-34 1013.5,-32 870.5,-32"/>
<polygon fill="#ffff00" stroke="transparent" points="870.5,-30 870.5,-32 1013.5,-32 1013.5,-30 870.5,-30"/>
<polygon fill="#000000" stroke="transparent" points="870.5,-28 870.5,-30 1013.5,-30 1013.5,-28 870.5,-28"/>
<text text-anchor="start" x="899" y="-14.8" font-family="arial" font-size="14.00" fill="#000000"> </text>
</g>
<!-- HX711&#45;&#45;scale&#45;cable -->
<g id="edge9" class="edge">
<title>HX711:e&#45;&#45;scale&#45;cable:w</title>
<path fill="none" stroke="#000000" stroke-width="2" d="M726,-101C790.604,-101.0341 806.6319,-104.0341 870.5,-104"/>
<path fill="none" stroke="#ffffff" stroke-width="2" d="M726,-103C790.2361,-103 806.2639,-106 870.5,-106"/>
<path fill="none" stroke="#000000" stroke-width="2" d="M726,-105C789.8681,-104.9659 805.896,-107.9659 870.5,-108"/>
</g>
<!-- HX711&#45;&#45;scale&#45;cable -->
<g id="edge11" class="edge">
<title>HX711:e&#45;&#45;scale&#45;cable:w</title>
<path fill="none" stroke="#000000" stroke-width="2" d="M726,-78C790.3481,-78.0039 806.4006,-79.0039 870.5,-79"/>
<path fill="none" stroke="#895956" stroke-width="2" d="M726,-80C790.2238,-80 806.2762,-81 870.5,-81"/>
<path fill="none" stroke="#000000" stroke-width="2" d="M726,-82C790.0994,-81.9961 806.1519,-82.9961 870.5,-83"/>
</g>
<!-- HX711&#45;&#45;scale&#45;cable -->
<g id="edge13" class="edge">
<title>HX711:e&#45;&#45;scale&#45;cable:w</title>
<path fill="none" stroke="#000000" stroke-width="2" d="M726,-55C790.0994,-55.0039 806.1519,-54.0039 870.5,-54"/>
<path fill="none" stroke="#00ff00" stroke-width="2" d="M726,-57C790.2238,-57 806.2762,-56 870.5,-56"/>
<path fill="none" stroke="#000000" stroke-width="2" d="M726,-59C790.3481,-58.9961 806.4006,-57.9961 870.5,-58"/>
</g>
<!-- HX711&#45;&#45;scale&#45;cable -->
<g id="edge15" class="edge">
<title>HX711:e&#45;&#45;scale&#45;cable:w</title>
<path fill="none" stroke="#000000" stroke-width="2" d="M726,-32C789.8681,-32.0341 805.896,-29.0341 870.5,-29"/>
<path fill="none" stroke="#ffff00" stroke-width="2" d="M726,-34C790.2361,-34 806.2639,-31 870.5,-31"/>
<path fill="none" stroke="#000000" stroke-width="2" d="M726,-36C790.604,-35.9659 806.6319,-32.9659 870.5,-33"/>
</g>
<!-- Scale -->
<g id="node3" class="node">
<title>Scale</title>
<polygon fill="#ffffff" stroke="transparent" points="1287,-184 1157,-184 1157,0 1287,0 1287,-184"/>
<polygon fill="none" stroke="#000000" points="1157,-161 1157,-184 1287,-184 1287,-161 1157,-161"/>
<text text-anchor="start" x="1203.5" y="-168.8" font-family="arial" font-size="14.00" fill="#000000">Scale</text>
<polygon fill="none" stroke="#000000" points="1157,-138 1157,-161 1287,-161 1287,-138 1157,-138"/>
<text text-anchor="start" x="1197" y="-145.8" font-family="arial" font-size="14.00" fill="#000000">Bosche</text>
<polygon fill="none" stroke="#000000" points="1157,-115 1157,-138 1202,-138 1202,-115 1157,-115"/>
<text text-anchor="start" x="1161" y="-122.8" font-family="arial" font-size="14.00" fill="#000000">Scale</text>
<polygon fill="none" stroke="#000000" points="1202,-115 1202,-138 1246,-138 1246,-115 1202,-115"/>
<text text-anchor="start" x="1206" y="-122.8" font-family="arial" font-size="14.00" fill="#000000">cable</text>
<polygon fill="none" stroke="#000000" points="1246,-115 1246,-138 1287,-138 1287,-115 1246,-115"/>
<text text-anchor="start" x="1250" y="-122.8" font-family="arial" font-size="14.00" fill="#000000">5&#45;pin</text>
<polygon fill="none" stroke="#000000" points="1157,-92 1157,-115 1206,-115 1206,-92 1157,-92"/>
<text text-anchor="start" x="1177" y="-99.8" font-family="arial" font-size="14.00" fill="#000000">1</text>
<polygon fill="none" stroke="#000000" points="1206,-92 1206,-115 1287,-115 1287,-92 1206,-92"/>
<text text-anchor="start" x="1231.5" y="-99.8" font-family="arial" font-size="14.00" fill="#000000">Blue</text>
<polygon fill="none" stroke="#000000" points="1157,-69 1157,-92 1206,-92 1206,-69 1157,-69"/>
<text text-anchor="start" x="1177" y="-76.8" font-family="arial" font-size="14.00" fill="#000000">2</text>
<polygon fill="none" stroke="#000000" points="1206,-69 1206,-92 1287,-92 1287,-69 1206,-69"/>
<text text-anchor="start" x="1226" y="-76.8" font-family="arial" font-size="14.00" fill="#000000">Green</text>
<polygon fill="none" stroke="#000000" points="1157,-46 1157,-69 1206,-69 1206,-46 1157,-46"/>
<text text-anchor="start" x="1177" y="-53.8" font-family="arial" font-size="14.00" fill="#000000">3</text>
<polygon fill="none" stroke="#000000" points="1206,-46 1206,-69 1287,-69 1287,-46 1206,-46"/>
<text text-anchor="start" x="1225.5" y="-53.8" font-family="arial" font-size="14.00" fill="#000000">Yellow</text>
<polygon fill="none" stroke="#000000" points="1157,-23 1157,-46 1206,-46 1206,-23 1157,-23"/>
<text text-anchor="start" x="1177" y="-30.8" font-family="arial" font-size="14.00" fill="#000000">4</text>
<polygon fill="none" stroke="#000000" points="1206,-23 1206,-46 1287,-46 1287,-23 1206,-23"/>
<text text-anchor="start" x="1232.5" y="-30.8" font-family="arial" font-size="14.00" fill="#000000">Red</text>
<polygon fill="none" stroke="#000000" points="1157,0 1157,-23 1206,-23 1206,0 1157,0"/>
<text text-anchor="start" x="1177" y="-7.8" font-family="arial" font-size="14.00" fill="#000000">5</text>
<polygon fill="none" stroke="#000000" points="1206,0 1206,-23 1287,-23 1287,0 1206,0"/>
<text text-anchor="start" x="1226" y="-7.8" font-family="arial" font-size="14.00" fill="#000000">Shield</text>
</g>
<!-- hx&#45;cable&#45;&#45;HX711 -->
<g id="edge2" class="edge">
<title>hx&#45;cable:e&#45;&#45;HX711:w</title>
<path fill="none" stroke="#000000" stroke-width="2" d="M448,-197C511.6447,-197.0344 527.6169,-194.0344 592,-194"/>
<path fill="none" stroke="#ffffff" stroke-width="2" d="M448,-199C512.0139,-199 527.9861,-196 592,-196"/>
<path fill="none" stroke="#000000" stroke-width="2" d="M448,-201C512.3831,-200.9656 528.3553,-197.9656 592,-198"/>
</g>
<!-- hx&#45;cable&#45;&#45;HX711 -->
<g id="edge4" class="edge">
<title>hx&#45;cable:e&#45;&#45;HX711:w</title>
<path fill="none" stroke="#000000" stroke-width="2" d="M448,-172C511.8768,-172.0039 527.8737,-171.0039 592,-171"/>
<path fill="none" stroke="#895956" stroke-width="2" d="M448,-174C512.0015,-174 527.9985,-173 592,-173"/>
<path fill="none" stroke="#000000" stroke-width="2" d="M448,-176C512.1263,-175.9961 528.1232,-174.9961 592,-175"/>
</g>
<!-- hx&#45;cable&#45;&#45;HX711 -->
<g id="edge6" class="edge">
<title>hx&#45;cable:e&#45;&#45;HX711:w</title>
<path fill="none" stroke="#000000" stroke-width="2" d="M448,-147C512.1263,-147.0039 528.1232,-148.0039 592,-148"/>
<path fill="none" stroke="#00ff00" stroke-width="2" d="M448,-149C512.0015,-149 527.9985,-150 592,-150"/>
<path fill="none" stroke="#000000" stroke-width="2" d="M448,-151C511.8768,-150.9961 527.8737,-151.9961 592,-152"/>
</g>
<!-- hx&#45;cable&#45;&#45;HX711 -->
<g id="edge8" class="edge">
<title>hx&#45;cable:e&#45;&#45;HX711:w</title>
<path fill="none" stroke="#000000" stroke-width="2" d="M448,-122C512.2544,-122.0155 528.2421,-124.0155 592,-124"/>
<path fill="none" stroke="#ffff00" stroke-width="2" d="M448,-124C512.0062,-124 527.9938,-126 592,-126"/>
<path fill="none" stroke="#000000" stroke-width="2" d="M448,-126C511.7579,-125.9845 527.7456,-127.9845 592,-128"/>
</g>
<!-- scale&#45;cable&#45;&#45;Scale -->
<g id="edge10" class="edge">
<title>scale&#45;cable:e&#45;&#45;Scale:w</title>
<path fill="none" stroke="#000000" stroke-width="2" d="M1013,-104C1076.7579,-104.0155 1092.7456,-102.0155 1157,-102"/>
<path fill="none" stroke="#ffffff" stroke-width="2" d="M1013,-106C1077.0062,-106 1092.9938,-104 1157,-104"/>
<path fill="none" stroke="#000000" stroke-width="2" d="M1013,-108C1077.2544,-107.9845 1093.2421,-105.9845 1157,-106"/>
</g>
<!-- scale&#45;cable&#45;&#45;Scale -->
<g id="edge12" class="edge">
<title>scale&#45;cable:e&#45;&#45;Scale:w</title>
<path fill="none" stroke="#000000" stroke-width="2" d="M1013,-79C1076.8768,-79.0039 1092.8737,-78.0039 1157,-78"/>
<path fill="none" stroke="#895956" stroke-width="2" d="M1013,-81C1077.0015,-81 1092.9985,-80 1157,-80"/>
<path fill="none" stroke="#000000" stroke-width="2" d="M1013,-83C1077.1263,-82.9961 1093.1232,-81.9961 1157,-82"/>
</g>
<!-- scale&#45;cable&#45;&#45;Scale -->
<g id="edge14" class="edge">
<title>scale&#45;cable:e&#45;&#45;Scale:w</title>
<path fill="none" stroke="#000000" stroke-width="2" d="M1013,-54C1077.1263,-54.0039 1093.1232,-55.0039 1157,-55"/>
<path fill="none" stroke="#00ff00" stroke-width="2" d="M1013,-56C1077.0015,-56 1092.9985,-57 1157,-57"/>
<path fill="none" stroke="#000000" stroke-width="2" d="M1013,-58C1076.8768,-57.9961 1092.8737,-58.9961 1157,-59"/>
</g>
<!-- scale&#45;cable&#45;&#45;Scale -->
<g id="edge16" class="edge">
<title>scale&#45;cable:e&#45;&#45;Scale:w</title>
<path fill="none" stroke="#000000" stroke-width="2" d="M1013,-29C1077.3831,-29.0344 1093.3553,-32.0344 1157,-32"/>
<path fill="none" stroke="#ffff00" stroke-width="2" d="M1013,-31C1077.0139,-31 1092.9861,-34 1157,-34"/>
<path fill="none" stroke="#000000" stroke-width="2" d="M1013,-33C1076.6447,-32.9656 1092.6169,-35.9656 1157,-36"/>
</g>
</g>
</svg>
