<?xml version="1.0" encoding="UTF-8" standalone="no"?>
<!DOCTYPE svg PUBLIC "-//W3C//DTD SVG 1.1//EN"
 "http://www.w3.org/Graphics/SVG/1.1/DTD/svg11.dtd">
<!-- Generated by graphviz version 2.40.1 (20161225.0304)
 -->
<!-- Title: %3 Pages: 1 -->
<svg width="1295pt" height="742pt"
 viewBox="0.00 0.00 1295.00 742.00" xmlns="http://www.w3.org/2000/svg" xmlns:xlink="http://www.w3.org/1999/xlink">
<g id="graph0" class="graph" transform="scale(1 1) rotate(0) translate(4 738)">
<title>%3</title>
<polygon fill="#ffffff" stroke="transparent" points="-4,4 -4,-738 1291,-738 1291,4 -4,4"/>
<!-- RPi -->
<g id="node1" class="node">
<title>RPi</title>
<polygon fill="#ffffff" stroke="transparent" points="174,-734 0,-734 0,0 174,0 174,-734"/>
<polygon fill="none" stroke="#000000" points="0,-711 0,-734 174,-734 174,-711 0,-711"/>
<text text-anchor="start" x="75" y="-718.8" font-family="arial" font-size="14.00" fill="#000000">RPi</text>
<polygon fill="none" stroke="#000000" points="0,-688 0,-711 174,-711 174,-688 0,-688"/>
<text text-anchor="start" x="44.5" y="-695.8" font-family="arial" font-size="14.00" fill="#000000">Raspberry Pi</text>
<polygon fill="none" stroke="#000000" points="0,-665 0,-688 85,-688 85,-665 0,-665"/>
<text text-anchor="start" x="4" y="-672.8" font-family="arial" font-size="14.00" fill="#000000">Zero or 3B+</text>
<polygon fill="none" stroke="#000000" points="85,-665 85,-688 125,-688 125,-665 85,-665"/>
<text text-anchor="start" x="89" y="-672.8" font-family="arial" font-size="14.00" fill="#000000">male</text>
<polygon fill="none" stroke="#000000" points="125,-665 125,-688 174,-688 174,-665 125,-665"/>
<text text-anchor="start" x="129" y="-672.8" font-family="arial" font-size="14.00" fill="#000000">40&#45;pin</text>
<polygon fill="none" stroke="#000000" points="0,-642 0,-665 109,-665 109,-642 0,-642"/>
<text text-anchor="start" x="45" y="-649.8" font-family="arial" font-size="14.00" fill="#000000">3V</text>
<polygon fill="none" stroke="#000000" points="109,-642 109,-665 174,-665 174,-642 109,-642"/>
<text text-anchor="start" x="137" y="-649.8" font-family="arial" font-size="14.00" fill="#000000">1</text>
<polygon fill="none" stroke="#000000" points="0,-619 0,-642 109,-642 109,-619 0,-619"/>
<text text-anchor="start" x="45" y="-626.8" font-family="arial" font-size="14.00" fill="#000000">5V</text>
<polygon fill="none" stroke="#000000" points="109,-619 109,-642 174,-642 174,-619 109,-619"/>
<text text-anchor="start" x="137" y="-626.8" font-family="arial" font-size="14.00" fill="#000000">2</text>
<polygon fill="none" stroke="#000000" points="0,-596 0,-619 109,-619 109,-596 0,-596"/>
<text text-anchor="start" x="45" y="-603.8" font-family="arial" font-size="14.00" fill="#000000">5V</text>
<polygon fill="none" stroke="#000000" points="109,-596 109,-619 174,-619 174,-596 109,-596"/>
<text text-anchor="start" x="137" y="-603.8" font-family="arial" font-size="14.00" fill="#000000">3</text>
<polygon fill="none" stroke="#000000" points="0,-573 0,-596 109,-596 109,-573 0,-573"/>
<text text-anchor="start" x="38" y="-580.8" font-family="arial" font-size="14.00" fill="#000000">GND</text>
<polygon fill="none" stroke="#000000" points="109,-573 109,-596 174,-596 174,-573 109,-573"/>
<text text-anchor="start" x="137" y="-580.8" font-family="arial" font-size="14.00" fill="#000000">4</text>
<polygon fill="none" stroke="#000000" points="0,-550 0,-573 109,-573 109,-550 0,-550"/>
<text text-anchor="start" x="38" y="-557.8" font-family="arial" font-size="14.00" fill="#000000">GND</text>
<polygon fill="none" stroke="#000000" points="109,-550 109,-573 174,-573 174,-550 109,-550"/>
<text text-anchor="start" x="137" y="-557.8" font-family="arial" font-size="14.00" fill="#000000">5</text>
<polygon fill="none" stroke="#000000" points="0,-527 0,-550 109,-550 109,-527 0,-527"/>
<text text-anchor="start" x="28" y="-534.8" font-family="arial" font-size="14.00" fill="#000000">GPIO05</text>
<polygon fill="none" stroke="#000000" points="109,-527 109,-550 174,-550 174,-527 109,-527"/>
<text text-anchor="start" x="137" y="-534.8" font-family="arial" font-size="14.00" fill="#000000">6</text>
<polygon fill="none" stroke="#000000" points="0,-504 0,-527 109,-527 109,-504 0,-504"/>
<text text-anchor="start" x="28" y="-511.8" font-family="arial" font-size="14.00" fill="#000000">GPIO06</text>
<polygon fill="none" stroke="#000000" points="109,-504 109,-527 174,-527 174,-504 109,-504"/>
<text text-anchor="start" x="137" y="-511.8" font-family="arial" font-size="14.00" fill="#000000">7</text>
<polygon fill="none" stroke="#000000" points="0,-481 0,-504 109,-504 109,-481 0,-481"/>
<text text-anchor="start" x="28" y="-488.8" font-family="arial" font-size="14.00" fill="#000000">GPIO15</text>
<polygon fill="none" stroke="#000000" points="109,-481 109,-504 174,-504 174,-481 109,-481"/>
<text text-anchor="start" x="137" y="-488.8" font-family="arial" font-size="14.00" fill="#000000">8</text>
<polygon fill="none" stroke="#000000" points="0,-458 0,-481 109,-481 109,-458 0,-458"/>
<text text-anchor="start" x="28" y="-465.8" font-family="arial" font-size="14.00" fill="#000000">GPIO16</text>
<polygon fill="none" stroke="#000000" points="109,-458 109,-481 174,-481 174,-458 109,-458"/>
<text text-anchor="start" x="137" y="-465.8" font-family="arial" font-size="14.00" fill="#000000">9</text>
<polygon fill="none" stroke="#000000" points="0,0 0,-458 174,-458 174,0 0,0"/>
<image xlink:href="gpios.png" width="146px" height="438px" preserveAspectRatio="xMinYMin meet" x="14" y="-448"/>
</g>
<!-- hx&#45;cable -->
<g id="node4" class="node">
<title>hx&#45;cable</title>
<polygon fill="none" stroke="#000000" points="448,-687 318,-687 318,-503 448,-503 448,-687"/>
<polygon fill="none" stroke="#000000" points="318,-664 318,-687 448,-687 448,-664 318,-664"/>
<text text-anchor="start" x="355" y="-671.8" font-family="arial" font-size="14.00" fill="#000000">hx&#45;cable</text>
<polygon fill="none" stroke="#000000" points="318,-641 318,-664 448,-664 448,-641 318,-641"/>
<text text-anchor="start" x="375" y="-648.8" font-family="arial" font-size="14.00" fill="#000000">4x</text>
<text text-anchor="start" x="336" y="-627.8" font-family="arial" font-size="14.00" fill="#000000"> </text>
<text text-anchor="start" x="320" y="-608.8" font-family="arial" font-size="14.00" fill="#000000">RPi:1</text>
<text text-anchor="start" x="360" y="-608.8" font-family="arial" font-size="14.00" fill="#000000">WH</text>
<text text-anchor="start" x="389" y="-608.8" font-family="arial" font-size="14.00" fill="#000000">HX711:1</text>
<polygon fill="#000000" stroke="transparent" points="318,-601 318,-603 448,-603 448,-601 318,-601"/>
<polygon fill="#ffffff" stroke="transparent" points="318,-599 318,-601 448,-601 448,-599 318,-599"/>
<polygon fill="#000000" stroke="transparent" points="318,-597 318,-599 448,-599 448,-597 318,-597"/>
<text text-anchor="start" x="320" y="-583.8" font-family="arial" font-size="14.00" fill="#000000">RPi:4</text>
<text text-anchor="start" x="362" y="-583.8" font-family="arial" font-size="14.00" fill="#000000">BN</text>
<text text-anchor="start" x="389" y="-583.8" font-family="arial" font-size="14.00" fill="#000000">HX711:2</text>
<polygon fill="#000000" stroke="transparent" points="318,-576 318,-578 448,-578 448,-576 318,-576"/>
<polygon fill="#895956" stroke="transparent" points="318,-574 318,-576 448,-576 448,-574 318,-574"/>
<polygon fill="#000000" stroke="transparent" points="318,-572 318,-574 448,-574 448,-572 318,-572"/>
<text text-anchor="start" x="320" y="-558.8" font-family="arial" font-size="14.00" fill="#000000">RPi:6</text>
<text text-anchor="start" x="361.5" y="-558.8" font-family="arial" font-size="14.00" fill="#000000">GN</text>
<text text-anchor="start" x="389" y="-558.8" font-family="arial" font-size="14.00" fill="#000000">HX711:3</text>
<polygon fill="#000000" stroke="transparent" points="318,-551 318,-553 448,-553 448,-551 318,-551"/>
<polygon fill="#00ff00" stroke="transparent" points="318,-549 318,-551 448,-551 448,-549 318,-549"/>
<polygon fill="#000000" stroke="transparent" points="318,-547 318,-549 448,-549 448,-547 318,-547"/>
<text text-anchor="start" x="320" y="-533.8" font-family="arial" font-size="14.00" fill="#000000">RPi:7</text>
<text text-anchor="start" x="362.5" y="-533.8" font-family="arial" font-size="14.00" fill="#000000">YE</text>
<text text-anchor="start" x="389" y="-533.8" font-family="arial" font-size="14.00" fill="#000000">HX711:4</text>
<polygon fill="#000000" stroke="transparent" points="318,-526 318,-528 448,-528 448,-526 318,-526"/>
<polygon fill="#ffff00" stroke="transparent" points="318,-524 318,-526 448,-526 448,-524 318,-524"/>
<polygon fill="#000000" stroke="transparent" points="318,-522 318,-524 448,-524 448,-522 318,-522"/>
<text text-anchor="start" x="336" y="-508.8" font-family="arial" font-size="14.00" fill="#000000"> </text>
</g>
<!-- RPi&#45;&#45;hx&#45;cable -->
<g id="edge1" class="edge">
<title>RPi:e&#45;&#45;hx&#45;cable:w</title>
<path fill="none" stroke="#000000" stroke-width="2" d="M174,-652C240.37,-653.7322 247.666,-599.7322 318,-598"/>
<path fill="none" stroke="#ffffff" stroke-width="2" d="M174,-654C242.352,-654 249.648,-600 318,-600"/>
<path fill="none" stroke="#000000" stroke-width="2" d="M174,-656C244.334,-654.2678 251.63,-600.2678 318,-602"/>
</g>
<!-- RPi&#45;&#45;hx&#45;cable -->
<g id="edge3" class="edge">
<title>RPi:e&#45;&#45;hx&#45;cable:w</title>
<path fill="none" stroke="#000000" stroke-width="2" d="M174,-583C237.0793,-583.3134 252.771,-573.3134 318,-573"/>
<path fill="none" stroke="#895956" stroke-width="2" d="M174,-585C238.1541,-585 253.8459,-575 318,-575"/>
<path fill="none" stroke="#000000" stroke-width="2" d="M174,-587C239.229,-586.6866 254.9207,-576.6866 318,-577"/>
</g>
<!-- RPi&#45;&#45;hx&#45;cable -->
<g id="edge5" class="edge">
<title>RPi:e&#45;&#45;hx&#45;cable:w</title>
<path fill="none" stroke="#000000" stroke-width="2" d="M174,-537C239.3377,-537.3645 254.9648,-548.3645 318,-548"/>
<path fill="none" stroke="#00ff00" stroke-width="2" d="M174,-539C238.1865,-539 253.8135,-550 318,-550"/>
<path fill="none" stroke="#000000" stroke-width="2" d="M174,-541C237.0352,-540.6355 252.6623,-551.6355 318,-552"/>
</g>
<!-- RPi&#45;&#45;hx&#45;cable -->
<g id="edge7" class="edge">
<title>RPi:e&#45;&#45;hx&#45;cable:w</title>
<path fill="none" stroke="#000000" stroke-width="2" d="M174,-514C239.1171,-514.2635 254.8674,-523.2635 318,-523"/>
<path fill="none" stroke="#ffff00" stroke-width="2" d="M174,-516C238.1249,-516 253.8751,-525 318,-525"/>
<path fill="none" stroke="#000000" stroke-width="2" d="M174,-518C237.1326,-517.7365 252.8829,-526.7365 318,-527"/>
</g>
<!-- HX711 -->
<g id="node2" class="node">
<title>HX711</title>
<polygon fill="#ffffff" stroke="transparent" points="726,-654 592,-654 592,-424 726,-424 726,-654"/>
<polygon fill="none" stroke="#000000" points="592,-631 592,-654 726,-654 726,-631 592,-631"/>
<text text-anchor="start" x="636.5" y="-638.8" font-family="arial" font-size="14.00" fill="#000000">HX711</text>
<polygon fill="none" stroke="#000000" points="592,-608 592,-631 645,-631 645,-608 592,-608"/>
<text text-anchor="start" x="596" y="-615.8" font-family="arial" font-size="14.00" fill="#000000">HX711</text>
<polygon fill="none" stroke="#000000" points="645,-608 645,-631 685,-631 685,-608 645,-608"/>
<text text-anchor="start" x="649" y="-615.8" font-family="arial" font-size="14.00" fill="#000000">male</text>
<polygon fill="none" stroke="#000000" points="685,-608 685,-631 726,-631 726,-608 685,-608"/>
<text text-anchor="start" x="689" y="-615.8" font-family="arial" font-size="14.00" fill="#000000">8&#45;pin</text>
<polygon fill="none" stroke="#000000" points="592,-585 592,-608 629,-608 629,-585 592,-585"/>
<text text-anchor="start" x="606" y="-592.8" font-family="arial" font-size="14.00" fill="#000000">1</text>
<polygon fill="none" stroke="#000000" points="629,-585 629,-608 690,-608 690,-585 629,-585"/>
<text text-anchor="start" x="644" y="-592.8" font-family="arial" font-size="14.00" fill="#000000">VCC</text>
<polygon fill="none" stroke="#000000" points="690,-585 690,-608 726,-608 726,-585 690,-585"/>
<text text-anchor="start" x="703.5" y="-592.8" font-family="arial" font-size="14.00" fill="#000000">1</text>
<polygon fill="none" stroke="#000000" points="592,-562 592,-585 629,-585 629,-562 592,-562"/>
<text text-anchor="start" x="606" y="-569.8" font-family="arial" font-size="14.00" fill="#000000">2</text>
<polygon fill="none" stroke="#000000" points="629,-562 629,-585 690,-585 690,-562 629,-562"/>
<text text-anchor="start" x="643" y="-569.8" font-family="arial" font-size="14.00" fill="#000000">GND</text>
<polygon fill="none" stroke="#000000" points="690,-562 690,-585 726,-585 726,-562 690,-562"/>
<text text-anchor="start" x="703.5" y="-569.8" font-family="arial" font-size="14.00" fill="#000000">2</text>
<polygon fill="none" stroke="#000000" points="592,-539 592,-562 629,-562 629,-539 592,-539"/>
<text text-anchor="start" x="606" y="-546.8" font-family="arial" font-size="14.00" fill="#000000">3</text>
<polygon fill="none" stroke="#000000" points="629,-539 629,-562 690,-562 690,-539 629,-539"/>
<text text-anchor="start" x="649.5" y="-546.8" font-family="arial" font-size="14.00" fill="#000000">DT</text>
<polygon fill="none" stroke="#000000" points="690,-539 690,-562 726,-562 726,-539 690,-539"/>
<text text-anchor="start" x="703.5" y="-546.8" font-family="arial" font-size="14.00" fill="#000000">3</text>
<polygon fill="none" stroke="#000000" points="592,-516 592,-539 629,-539 629,-516 592,-516"/>
<text text-anchor="start" x="606" y="-523.8" font-family="arial" font-size="14.00" fill="#000000">4</text>
<polygon fill="none" stroke="#000000" points="629,-516 629,-539 690,-539 690,-516 629,-516"/>
<text text-anchor="start" x="644" y="-523.8" font-family="arial" font-size="14.00" fill="#000000">SCK</text>
<polygon fill="none" stroke="#000000" points="690,-516 690,-539 726,-539 726,-516 690,-516"/>
<text text-anchor="start" x="703.5" y="-523.8" font-family="arial" font-size="14.00" fill="#000000">4</text>
<polygon fill="none" stroke="#000000" points="592,-493 592,-516 629,-516 629,-493 592,-493"/>
<text text-anchor="start" x="606" y="-500.8" font-family="arial" font-size="14.00" fill="#000000">5</text>
<polygon fill="none" stroke="#000000" points="629,-493 629,-516 690,-516 690,-493 629,-493"/>
<text text-anchor="start" x="650" y="-500.8" font-family="arial" font-size="14.00" fill="#000000">E+</text>
<polygon fill="none" stroke="#000000" points="690,-493 690,-516 726,-516 726,-493 690,-493"/>
<text text-anchor="start" x="703.5" y="-500.8" font-family="arial" font-size="14.00" fill="#000000">5</text>
<polygon fill="none" stroke="#000000" points="592,-470 592,-493 629,-493 629,-470 592,-470"/>
<text text-anchor="start" x="606" y="-477.8" font-family="arial" font-size="14.00" fill="#000000">6</text>
<polygon fill="none" stroke="#000000" points="629,-470 629,-493 690,-493 690,-470 629,-470"/>
<text text-anchor="start" x="652" y="-477.8" font-family="arial" font-size="14.00" fill="#000000">E&#45;</text>
<polygon fill="none" stroke="#000000" points="690,-470 690,-493 726,-493 726,-470 690,-470"/>
<text text-anchor="start" x="703.5" y="-477.8" font-family="arial" font-size="14.00" fill="#000000">6</text>
<polygon fill="none" stroke="#000000" points="592,-447 592,-470 629,-470 629,-447 592,-447"/>
<text text-anchor="start" x="606" y="-454.8" font-family="arial" font-size="14.00" fill="#000000">7</text>
<polygon fill="none" stroke="#000000" points="629,-447 629,-470 690,-470 690,-447 629,-447"/>
<text text-anchor="start" x="650" y="-454.8" font-family="arial" font-size="14.00" fill="#000000">A+</text>
<polygon fill="none" stroke="#000000" points="690,-447 690,-470 726,-470 726,-447 690,-447"/>
<text text-anchor="start" x="703.5" y="-454.8" font-family="arial" font-size="14.00" fill="#000000">7</text>
<polygon fill="none" stroke="#000000" points="592,-424 592,-447 629,-447 629,-424 592,-424"/>
<text text-anchor="start" x="606" y="-431.8" font-family="arial" font-size="14.00" fill="#000000">8</text>
<polygon fill="none" stroke="#000000" points="629,-424 629,-447 690,-447 690,-424 629,-424"/>
<text text-anchor="start" x="652" y="-431.8" font-family="arial" font-size="14.00" fill="#000000">A&#45;</text>
<polygon fill="none" stroke="#000000" points="690,-424 690,-447 726,-447 726,-424 690,-424"/>
<text text-anchor="start" x="703.5" y="-431.8" font-family="arial" font-size="14.00" fill="#000000">8</text>
</g>
<!-- scale&#45;cable -->
<g id="node5" class="node">
<title>scale&#45;cable</title>
<polygon fill="none" stroke="#000000" points="1013,-594 870,-594 870,-410 1013,-410 1013,-594"/>
<polygon fill="none" stroke="#000000" points="870.5,-571 870.5,-594 1013.5,-594 1013.5,-571 870.5,-571"/>
<text text-anchor="start" x="904.5" y="-578.8" font-family="arial" font-size="14.00" fill="#000000">scale&#45;cable</text>
<polygon fill="none" stroke="#000000" points="870.5,-548 870.5,-571 1013.5,-571 1013.5,-548 870.5,-548"/>
<text text-anchor="start" x="934" y="-555.8" font-family="arial" font-size="14.00" fill="#000000">4x</text>
<text text-anchor="start" x="899" y="-534.8" font-family="arial" font-size="14.00" fill="#000000"> </text>
<text text-anchor="start" x="872.5" y="-515.8" font-family="arial" font-size="14.00" fill="#000000">HX711:5</text>
<text text-anchor="start" x="935" y="-515.8" font-family="arial" font-size="14.00" fill="#000000">RD</text>
<text text-anchor="start" x="962.5" y="-515.8" font-family="arial" font-size="14.00" fill="#000000">Scale:1</text>
<polygon fill="#000000" stroke="transparent" points="870.5,-508 870.5,-510 1013.5,-510 1013.5,-508 870.5,-508"/>
<polygon fill="#ff0000" stroke="transparent" points="870.5,-506 870.5,-508 1013.5,-508 1013.5,-506 870.5,-506"/>
<polygon fill="#000000" stroke="transparent" points="870.5,-504 870.5,-506 1013.5,-506 1013.5,-504 870.5,-504"/>
<text text-anchor="start" x="872.5" y="-490.8" font-family="arial" font-size="14.00" fill="#000000">HX711:6</text>
<text text-anchor="start" x="936" y="-490.8" font-family="arial" font-size="14.00" fill="#000000">BK</text>
<text text-anchor="start" x="962.5" y="-490.8" font-family="arial" font-size="14.00" fill="#000000">Scale:2</text>
<polygon fill="#000000" stroke="transparent" points="870.5,-483 870.5,-485 1013.5,-485 1013.5,-483 870.5,-483"/>
<polygon fill="#000000" stroke="transparent" points="870.5,-481 870.5,-483 1013.5,-483 1013.5,-481 870.5,-481"/>
<polygon fill="#000000" stroke="transparent" points="870.5,-479 870.5,-481 1013.5,-481 1013.5,-479 870.5,-479"/>
<text text-anchor="start" x="872.5" y="-465.8" font-family="arial" font-size="14.00" fill="#000000">HX711:7</text>
<text text-anchor="start" x="935" y="-465.8" font-family="arial" font-size="14.00" fill="#000000">GN</text>
<text text-anchor="start" x="962.5" y="-465.8" font-family="arial" font-size="14.00" fill="#000000">Scale:3</text>
<polygon fill="#000000" stroke="transparent" points="870.5,-458 870.5,-460 1013.5,-460 1013.5,-458 870.5,-458"/>
<polygon fill="#00ff00" stroke="transparent" points="870.5,-456 870.5,-458 1013.5,-458 1013.5,-456 870.5,-456"/>
<polygon fill="#000000" stroke="transparent" points="870.5,-454 870.5,-456 1013.5,-456 1013.5,-454 870.5,-454"/>
<text text-anchor="start" x="872.5" y="-440.8" font-family="arial" font-size="14.00" fill="#000000">HX711:8</text>
<text text-anchor="start" x="933.5" y="-440.8" font-family="arial" font-size="14.00" fill="#000000">WH</text>
<text text-anchor="start" x="962.5" y="-440.8" font-family="arial" font-size="14.00" fill="#000000">Scale:4</text>
<polygon fill="#000000" stroke="transparent" points="870.5,-433 870.5,-435 1013.5,-435 1013.5,-433 870.5,-433"/>
<polygon fill="#ffffff" stroke="transparent" points="870.5,-431 870.5,-433 1013.5,-433 1013.5,-431 870.5,-431"/>
<polygon fill="#000000" stroke="transparent" points="870.5,-429 870.5,-431 1013.5,-431 1013.5,-429 870.5,-429"/>
<text text-anchor="start" x="899" y="-415.8" font-family="arial" font-size="14.00" fill="#000000"> </text>
</g>
<!-- HX711&#45;&#45;scale&#45;cable -->
<g id="edge9" class="edge">
<title>HX711:e&#45;&#45;scale&#45;cable:w</title>
<path fill="none" stroke="#000000" stroke-width="2" d="M726,-502C790.604,-502.0341 806.6319,-505.0341 870.5,-505"/>
<path fill="none" stroke="#ff0000" stroke-width="2" d="M726,-504C790.2361,-504 806.2639,-507 870.5,-507"/>
<path fill="none" stroke="#000000" stroke-width="2" d="M726,-506C789.8681,-505.9659 805.896,-508.9659 870.5,-509"/>
</g>
<!-- HX711&#45;&#45;scale&#45;cable -->
<g id="edge11" class="edge">
<title>HX711:e&#45;&#45;scale&#45;cable:w</title>
<path fill="none" stroke="#000000" stroke-width="2" d="M726,-479C790.3481,-479.0039 806.4006,-480.0039 870.5,-480"/>
<path fill="none" stroke="#000000" stroke-width="2" d="M726,-481C790.2238,-481 806.2762,-482 870.5,-482"/>
<path fill="none" stroke="#000000" stroke-width="2" d="M726,-483C790.0994,-482.9961 806.1519,-483.9961 870.5,-484"/>
</g>
<!-- HX711&#45;&#45;scale&#45;cable -->
<g id="edge13" class="edge">
<title>HX711:e&#45;&#45;scale&#45;cable:w</title>
<path fill="none" stroke="#000000" stroke-width="2" d="M726,-456C790.0994,-456.0039 806.1519,-455.0039 870.5,-455"/>
<path fill="none" stroke="#00ff00" stroke-width="2" d="M726,-458C790.2238,-458 806.2762,-457 870.5,-457"/>
<path fill="none" stroke="#000000" stroke-width="2" d="M726,-460C790.3481,-459.9961 806.4006,-458.9961 870.5,-459"/>
</g>
<!-- HX711&#45;&#45;scale&#45;cable -->
<g id="edge15" class="edge">
<title>HX711:e&#45;&#45;scale&#45;cable:w</title>
<path fill="none" stroke="#000000" stroke-width="2" d="M726,-433C789.8681,-433.0341 805.896,-430.0341 870.5,-430"/>
<path fill="none" stroke="#ffffff" stroke-width="2" d="M726,-435C790.2361,-435 806.2639,-432 870.5,-432"/>
<path fill="none" stroke="#000000" stroke-width="2" d="M726,-437C790.604,-436.9659 806.6319,-433.9659 870.5,-434"/>
</g>
<!-- Scale -->
<g id="node3" class="node">
<title>Scale</title>
<polygon fill="#ffffff" stroke="transparent" points="1287,-585 1157,-585 1157,-401 1287,-401 1287,-585"/>
<polygon fill="none" stroke="#000000" points="1157,-562 1157,-585 1287,-585 1287,-562 1157,-562"/>
<text text-anchor="start" x="1203.5" y="-569.8" font-family="arial" font-size="14.00" fill="#000000">Scale</text>
<polygon fill="none" stroke="#000000" points="1157,-539 1157,-562 1287,-562 1287,-539 1157,-539"/>
<text text-anchor="start" x="1197" y="-546.8" font-family="arial" font-size="14.00" fill="#000000">Bosche</text>
<polygon fill="none" stroke="#000000" points="1157,-516 1157,-539 1202,-539 1202,-516 1157,-516"/>
<text text-anchor="start" x="1161" y="-523.8" font-family="arial" font-size="14.00" fill="#000000">Scale</text>
<polygon fill="none" stroke="#000000" points="1202,-516 1202,-539 1246,-539 1246,-516 1202,-516"/>
<text text-anchor="start" x="1206" y="-523.8" font-family="arial" font-size="14.00" fill="#000000">cable</text>
<polygon fill="none" stroke="#000000" points="1246,-516 1246,-539 1287,-539 1287,-516 1246,-516"/>
<text text-anchor="start" x="1250" y="-523.8" font-family="arial" font-size="14.00" fill="#000000">5&#45;pin</text>
<polygon fill="none" stroke="#000000" points="1157,-493 1157,-516 1206,-516 1206,-493 1157,-493"/>
<text text-anchor="start" x="1177" y="-500.8" font-family="arial" font-size="14.00" fill="#000000">1</text>
<polygon fill="none" stroke="#000000" points="1206,-493 1206,-516 1287,-516 1287,-493 1206,-493"/>
<text text-anchor="start" x="1232.5" y="-500.8" font-family="arial" font-size="14.00" fill="#000000">Red</text>
<polygon fill="none" stroke="#000000" points="1157,-470 1157,-493 1206,-493 1206,-470 1157,-470"/>
<text text-anchor="start" x="1177" y="-477.8" font-family="arial" font-size="14.00" fill="#000000">2</text>
<polygon fill="none" stroke="#000000" points="1206,-470 1206,-493 1287,-493 1287,-470 1206,-470"/>
<text text-anchor="start" x="1228" y="-477.8" font-family="arial" font-size="14.00" fill="#000000">Black</text>
<polygon fill="none" stroke="#000000" points="1157,-447 1157,-470 1206,-470 1206,-447 1157,-447"/>
<text text-anchor="start" x="1177" y="-454.8" font-family="arial" font-size="14.00" fill="#000000">3</text>
<polygon fill="none" stroke="#000000" points="1206,-447 1206,-470 1287,-470 1287,-447 1206,-447"/>
<text text-anchor="start" x="1226" y="-454.8" font-family="arial" font-size="14.00" fill="#000000">Green</text>
<polygon fill="none" stroke="#000000" points="1157,-424 1157,-447 1206,-447 1206,-424 1157,-424"/>
<text text-anchor="start" x="1177" y="-431.8" font-family="arial" font-size="14.00" fill="#000000">4</text>
<polygon fill="none" stroke="#000000" points="1206,-424 1206,-447 1287,-447 1287,-424 1206,-424"/>
<text text-anchor="start" x="1228" y="-431.8" font-family="arial" font-size="14.00" fill="#000000">White</text>
<polygon fill="none" stroke="#000000" points="1157,-401 1157,-424 1206,-424 1206,-401 1157,-401"/>
<text text-anchor="start" x="1177" y="-408.8" font-family="arial" font-size="14.00" fill="#000000">5</text>
<polygon fill="none" stroke="#000000" points="1206,-401 1206,-424 1287,-424 1287,-401 1206,-401"/>
<text text-anchor="start" x="1226" y="-408.8" font-family="arial" font-size="14.00" fill="#000000">Shield</text>
</g>
<!-- hx&#45;cable&#45;&#45;HX711 -->
<g id="edge2" class="edge">
<title>hx&#45;cable:e&#45;&#45;HX711:w</title>
<path fill="none" stroke="#000000" stroke-width="2" d="M448,-598C511.6447,-598.0344 527.6169,-595.0344 592,-595"/>
<path fill="none" stroke="#ffffff" stroke-width="2" d="M448,-600C512.0139,-600 527.9861,-597 592,-597"/>
<path fill="none" stroke="#000000" stroke-width="2" d="M448,-602C512.3831,-601.9656 528.3553,-598.9656 592,-599"/>
</g>
<!-- hx&#45;cable&#45;&#45;HX711 -->
<g id="edge4" class="edge">
<title>hx&#45;cable:e&#45;&#45;HX711:w</title>
<path fill="none" stroke="#000000" stroke-width="2" d="M448,-573C511.8768,-573.0039 527.8737,-572.0039 592,-572"/>
<path fill="none" stroke="#895956" stroke-width="2" d="M448,-575C512.0015,-575 527.9985,-574 592,-574"/>
<path fill="none" stroke="#000000" stroke-width="2" d="M448,-577C512.1263,-576.9961 528.1232,-575.9961 592,-576"/>
</g>
<!-- hx&#45;cable&#45;&#45;HX711 -->
<g id="edge6" class="edge">
<title>hx&#45;cable:e&#45;&#45;HX711:w</title>
<path fill="none" stroke="#000000" stroke-width="2" d="M448,-548C512.1263,-548.0039 528.1232,-549.0039 592,-549"/>
<path fill="none" stroke="#00ff00" stroke-width="2" d="M448,-550C512.0015,-550 527.9985,-551 592,-551"/>
<path fill="none" stroke="#000000" stroke-width="2" d="M448,-552C511.8768,-551.9961 527.8737,-552.9961 592,-553"/>
</g>
<!-- hx&#45;cable&#45;&#45;HX711 -->
<g id="edge8" class="edge">
<title>hx&#45;cable:e&#45;&#45;HX711:w</title>
<path fill="none" stroke="#000000" stroke-width="2" d="M448,-523C512.2544,-523.0155 528.2421,-525.0155 592,-525"/>
<path fill="none" stroke="#ffff00" stroke-width="2" d="M448,-525C512.0062,-525 527.9938,-527 592,-527"/>
<path fill="none" stroke="#000000" stroke-width="2" d="M448,-527C511.7579,-526.9845 527.7456,-528.9845 592,-529"/>
</g>
<!-- scale&#45;cable&#45;&#45;Scale -->
<g id="edge10" class="edge">
<title>scale&#45;cable:e&#45;&#45;Scale:w</title>
<path fill="none" stroke="#000000" stroke-width="2" d="M1013,-505C1076.7579,-505.0155 1092.7456,-503.0155 1157,-503"/>
<path fill="none" stroke="#ff0000" stroke-width="2" d="M1013,-507C1077.0062,-507 1092.9938,-505 1157,-505"/>
<path fill="none" stroke="#000000" stroke-width="2" d="M1013,-509C1077.2544,-508.9845 1093.2421,-506.9845 1157,-507"/>
</g>
<!-- scale&#45;cable&#45;&#45;Scale -->
<g id="edge12" class="edge">
<title>scale&#45;cable:e&#45;&#45;Scale:w</title>
<path fill="none" stroke="#000000" stroke-width="2" d="M1013,-480C1076.8768,-480.0039 1092.8737,-479.0039 1157,-479"/>
<path fill="none" stroke="#000000" stroke-width="2" d="M1013,-482C1077.0015,-482 1092.9985,-481 1157,-481"/>
<path fill="none" stroke="#000000" stroke-width="2" d="M1013,-484C1077.1263,-483.9961 1093.1232,-482.9961 1157,-483"/>
</g>
<!-- scale&#45;cable&#45;&#45;Scale -->
<g id="edge14" class="edge">
<title>scale&#45;cable:e&#45;&#45;Scale:w</title>
<path fill="none" stroke="#000000" stroke-width="2" d="M1013,-455C1077.1263,-455.0039 1093.1232,-456.0039 1157,-456"/>
<path fill="none" stroke="#00ff00" stroke-width="2" d="M1013,-457C1077.0015,-457 1092.9985,-458 1157,-458"/>
<path fill="none" stroke="#000000" stroke-width="2" d="M1013,-459C1076.8768,-458.9961 1092.8737,-459.9961 1157,-460"/>
</g>
<!-- scale&#45;cable&#45;&#45;Scale -->
<g id="edge16" class="edge">
<title>scale&#45;cable:e&#45;&#45;Scale:w</title>
<path fill="none" stroke="#000000" stroke-width="2" d="M1013,-430C1077.3831,-430.0344 1093.3553,-433.0344 1157,-433"/>
<path fill="none" stroke="#ffffff" stroke-width="2" d="M1013,-432C1077.0139,-432 1092.9861,-435 1157,-435"/>
<path fill="none" stroke="#000000" stroke-width="2" d="M1013,-434C1076.6447,-433.9656 1092.6169,-436.9656 1157,-437"/>
</g>
</g>
</svg>
