<?xml version="1.0" encoding="UTF-8" standalone="no"?>
<!DOCTYPE svg PUBLIC "-//W3C//DTD SVG 1.1//EN"
 "http://www.w3.org/Graphics/SVG/1.1/DTD/svg11.dtd">
<!-- Generated by graphviz version 2.40.1 (20161225.0304)
 -->
<!-- Title: %3 Pages: 1 -->
<svg width="1925pt" height="774pt"
 viewBox="0.00 0.00 1925.00 773.50" xmlns="http://www.w3.org/2000/svg" xmlns:xlink="http://www.w3.org/1999/xlink">
<g id="graph0" class="graph" transform="scale(1 1) rotate(0) translate(4 769.5)">
<title>%3</title>
<polygon fill="#ffffff" stroke="transparent" points="-4,4 -4,-769.5 1921,-769.5 1921,4 -4,4"/>
<!-- RPi -->
<g id="node1" class="node">
<title>RPi</title>
<polygon fill="#ffffff" stroke="transparent" points="804,-711 630,-711 630,0 804,0 804,-711"/>
<polygon fill="none" stroke="#000000" points="630,-687.5 630,-710.5 804,-710.5 804,-687.5 630,-687.5"/>
<text text-anchor="start" x="705" y="-695.3" font-family="arial" font-size="14.00" fill="#000000">RPi</text>
<polygon fill="none" stroke="#000000" points="630,-664.5 630,-687.5 804,-687.5 804,-664.5 630,-664.5"/>
<text text-anchor="start" x="674.5" y="-672.3" font-family="arial" font-size="14.00" fill="#000000">Raspberry Pi</text>
<polygon fill="none" stroke="#000000" points="630,-641.5 630,-664.5 715,-664.5 715,-641.5 630,-641.5"/>
<text text-anchor="start" x="634" y="-649.3" font-family="arial" font-size="14.00" fill="#000000">Zero or 3B+</text>
<polygon fill="none" stroke="#000000" points="715,-641.5 715,-664.5 755,-664.5 755,-641.5 715,-641.5"/>
<text text-anchor="start" x="719" y="-649.3" font-family="arial" font-size="14.00" fill="#000000">male</text>
<polygon fill="none" stroke="#000000" points="755,-641.5 755,-664.5 804,-664.5 804,-641.5 755,-641.5"/>
<text text-anchor="start" x="759" y="-649.3" font-family="arial" font-size="14.00" fill="#000000">40&#45;pin</text>
<polygon fill="none" stroke="#000000" points="630,-618.5 630,-641.5 674,-641.5 674,-618.5 630,-618.5"/>
<text text-anchor="start" x="647.5" y="-626.3" font-family="arial" font-size="14.00" fill="#000000">1</text>
<polygon fill="none" stroke="#000000" points="674,-618.5 674,-641.5 761,-641.5 761,-618.5 674,-618.5"/>
<text text-anchor="start" x="704" y="-626.3" font-family="arial" font-size="14.00" fill="#000000">3V3</text>
<polygon fill="none" stroke="#000000" points="761,-618.5 761,-641.5 804,-641.5 804,-618.5 761,-618.5"/>
<text text-anchor="start" x="778" y="-626.3" font-family="arial" font-size="14.00" fill="#000000">1</text>
<polygon fill="none" stroke="#000000" points="630,-595.5 630,-618.5 674,-618.5 674,-595.5 630,-595.5"/>
<text text-anchor="start" x="647.5" y="-603.3" font-family="arial" font-size="14.00" fill="#000000">2</text>
<polygon fill="none" stroke="#000000" points="674,-595.5 674,-618.5 761,-618.5 761,-595.5 674,-595.5"/>
<text text-anchor="start" x="704" y="-603.3" font-family="arial" font-size="14.00" fill="#000000">3V3</text>
<polygon fill="none" stroke="#000000" points="761,-595.5 761,-618.5 804,-618.5 804,-595.5 761,-595.5"/>
<text text-anchor="start" x="778" y="-603.3" font-family="arial" font-size="14.00" fill="#000000">2</text>
<polygon fill="none" stroke="#000000" points="630,-572.5 630,-595.5 674,-595.5 674,-572.5 630,-572.5"/>
<text text-anchor="start" x="647.5" y="-580.3" font-family="arial" font-size="14.00" fill="#000000">3</text>
<polygon fill="none" stroke="#000000" points="674,-572.5 674,-595.5 761,-595.5 761,-572.5 674,-572.5"/>
<text text-anchor="start" x="708" y="-580.3" font-family="arial" font-size="14.00" fill="#000000">5V</text>
<polygon fill="none" stroke="#000000" points="761,-572.5 761,-595.5 804,-595.5 804,-572.5 761,-572.5"/>
<text text-anchor="start" x="778" y="-580.3" font-family="arial" font-size="14.00" fill="#000000">3</text>
<polygon fill="none" stroke="#000000" points="630,-549.5 630,-572.5 674,-572.5 674,-549.5 630,-549.5"/>
<text text-anchor="start" x="647.5" y="-557.3" font-family="arial" font-size="14.00" fill="#000000">4</text>
<polygon fill="none" stroke="#000000" points="674,-549.5 674,-572.5 761,-572.5 761,-549.5 674,-549.5"/>
<text text-anchor="start" x="701" y="-557.3" font-family="arial" font-size="14.00" fill="#000000">GND</text>
<polygon fill="none" stroke="#000000" points="761,-549.5 761,-572.5 804,-572.5 804,-549.5 761,-549.5"/>
<text text-anchor="start" x="778" y="-557.3" font-family="arial" font-size="14.00" fill="#000000">4</text>
<polygon fill="none" stroke="#000000" points="630,-526.5 630,-549.5 674,-549.5 674,-526.5 630,-526.5"/>
<text text-anchor="start" x="647.5" y="-534.3" font-family="arial" font-size="14.00" fill="#000000">5</text>
<polygon fill="none" stroke="#000000" points="674,-526.5 674,-549.5 761,-549.5 761,-526.5 674,-526.5"/>
<text text-anchor="start" x="701" y="-534.3" font-family="arial" font-size="14.00" fill="#000000">GND</text>
<polygon fill="none" stroke="#000000" points="761,-526.5 761,-549.5 804,-549.5 804,-526.5 761,-526.5"/>
<text text-anchor="start" x="778" y="-534.3" font-family="arial" font-size="14.00" fill="#000000">5</text>
<polygon fill="none" stroke="#000000" points="630,-503.5 630,-526.5 674,-526.5 674,-503.5 630,-503.5"/>
<text text-anchor="start" x="647.5" y="-511.3" font-family="arial" font-size="14.00" fill="#000000">6</text>
<polygon fill="none" stroke="#000000" points="674,-503.5 674,-526.5 761,-526.5 761,-503.5 674,-503.5"/>
<text text-anchor="start" x="691" y="-511.3" font-family="arial" font-size="14.00" fill="#000000">GPIO05</text>
<polygon fill="none" stroke="#000000" points="761,-503.5 761,-526.5 804,-526.5 804,-503.5 761,-503.5"/>
<text text-anchor="start" x="778" y="-511.3" font-family="arial" font-size="14.00" fill="#000000">6</text>
<polygon fill="none" stroke="#000000" points="630,-480.5 630,-503.5 674,-503.5 674,-480.5 630,-480.5"/>
<text text-anchor="start" x="647.5" y="-488.3" font-family="arial" font-size="14.00" fill="#000000">7</text>
<polygon fill="none" stroke="#000000" points="674,-480.5 674,-503.5 761,-503.5 761,-480.5 674,-480.5"/>
<text text-anchor="start" x="691" y="-488.3" font-family="arial" font-size="14.00" fill="#000000">GPIO06</text>
<polygon fill="none" stroke="#000000" points="761,-480.5 761,-503.5 804,-503.5 804,-480.5 761,-480.5"/>
<text text-anchor="start" x="778" y="-488.3" font-family="arial" font-size="14.00" fill="#000000">7</text>
<polygon fill="none" stroke="#000000" points="630,-457.5 630,-480.5 674,-480.5 674,-457.5 630,-457.5"/>
<text text-anchor="start" x="647.5" y="-465.3" font-family="arial" font-size="14.00" fill="#000000">8</text>
<polygon fill="none" stroke="#000000" points="674,-457.5 674,-480.5 761,-480.5 761,-457.5 674,-457.5"/>
<text text-anchor="start" x="691.5" y="-465.3" font-family="arial" font-size="14.00" fill="#000000">GPIO11</text>
<polygon fill="none" stroke="#000000" points="761,-457.5 761,-480.5 804,-480.5 804,-457.5 761,-457.5"/>
<text text-anchor="start" x="778" y="-465.3" font-family="arial" font-size="14.00" fill="#000000">8</text>
<polygon fill="none" stroke="#000000" points="630,.5 630,-457.5 804,-457.5 804,.5 630,.5"/>
<image xlink:href="gpios.png" width="146px" height="438px" preserveAspectRatio="xMinYMin meet" x="644" y="-447.5"/>
</g>
<!-- hx&#45;cable -->
<g id="node6" class="node">
<title>hx&#45;cable</title>
<polygon fill="none" stroke="#000000" points="1078,-664.5 948,-664.5 948,-480.5 1078,-480.5 1078,-664.5"/>
<polygon fill="none" stroke="#000000" points="948,-641.5 948,-664.5 1078,-664.5 1078,-641.5 948,-641.5"/>
<text text-anchor="start" x="985" y="-649.3" font-family="arial" font-size="14.00" fill="#000000">hx&#45;cable</text>
<polygon fill="none" stroke="#000000" points="948,-618.5 948,-641.5 1078,-641.5 1078,-618.5 948,-618.5"/>
<text text-anchor="start" x="1005" y="-626.3" font-family="arial" font-size="14.00" fill="#000000">4x</text>
<text text-anchor="start" x="966" y="-605.3" font-family="arial" font-size="14.00" fill="#000000"> </text>
<text text-anchor="start" x="950" y="-586.3" font-family="arial" font-size="14.00" fill="#000000">RPi:1</text>
<text text-anchor="start" x="990" y="-586.3" font-family="arial" font-size="14.00" fill="#000000">WH</text>
<text text-anchor="start" x="1019" y="-586.3" font-family="arial" font-size="14.00" fill="#000000">HX711:1</text>
<polygon fill="#000000" stroke="transparent" points="948,-578.5 948,-580.5 1078,-580.5 1078,-578.5 948,-578.5"/>
<polygon fill="#ffffff" stroke="transparent" points="948,-576.5 948,-578.5 1078,-578.5 1078,-576.5 948,-576.5"/>
<polygon fill="#000000" stroke="transparent" points="948,-574.5 948,-576.5 1078,-576.5 1078,-574.5 948,-574.5"/>
<text text-anchor="start" x="950" y="-561.3" font-family="arial" font-size="14.00" fill="#000000">RPi:4</text>
<text text-anchor="start" x="992" y="-561.3" font-family="arial" font-size="14.00" fill="#000000">BN</text>
<text text-anchor="start" x="1019" y="-561.3" font-family="arial" font-size="14.00" fill="#000000">HX711:2</text>
<polygon fill="#000000" stroke="transparent" points="948,-553.5 948,-555.5 1078,-555.5 1078,-553.5 948,-553.5"/>
<polygon fill="#895956" stroke="transparent" points="948,-551.5 948,-553.5 1078,-553.5 1078,-551.5 948,-551.5"/>
<polygon fill="#000000" stroke="transparent" points="948,-549.5 948,-551.5 1078,-551.5 1078,-549.5 948,-549.5"/>
<text text-anchor="start" x="950" y="-536.3" font-family="arial" font-size="14.00" fill="#000000">RPi:6</text>
<text text-anchor="start" x="991.5" y="-536.3" font-family="arial" font-size="14.00" fill="#000000">GN</text>
<text text-anchor="start" x="1019" y="-536.3" font-family="arial" font-size="14.00" fill="#000000">HX711:3</text>
<polygon fill="#000000" stroke="transparent" points="948,-528.5 948,-530.5 1078,-530.5 1078,-528.5 948,-528.5"/>
<polygon fill="#00ff00" stroke="transparent" points="948,-526.5 948,-528.5 1078,-528.5 1078,-526.5 948,-526.5"/>
<polygon fill="#000000" stroke="transparent" points="948,-524.5 948,-526.5 1078,-526.5 1078,-524.5 948,-524.5"/>
<text text-anchor="start" x="950" y="-511.3" font-family="arial" font-size="14.00" fill="#000000">RPi:7</text>
<text text-anchor="start" x="992.5" y="-511.3" font-family="arial" font-size="14.00" fill="#000000">YE</text>
<text text-anchor="start" x="1019" y="-511.3" font-family="arial" font-size="14.00" fill="#000000">HX711:4</text>
<polygon fill="#000000" stroke="transparent" points="948,-503.5 948,-505.5 1078,-505.5 1078,-503.5 948,-503.5"/>
<polygon fill="#ffff00" stroke="transparent" points="948,-501.5 948,-503.5 1078,-503.5 1078,-501.5 948,-501.5"/>
<polygon fill="#000000" stroke="transparent" points="948,-499.5 948,-501.5 1078,-501.5 1078,-499.5 948,-499.5"/>
<text text-anchor="start" x="966" y="-486.3" font-family="arial" font-size="14.00" fill="#000000"> </text>
</g>
<!-- RPi&#45;&#45;hx&#45;cable -->
<g id="edge1" class="edge">
<title>RPi:e&#45;&#45;hx&#45;cable:w</title>
<path fill="none" stroke="#000000" stroke-width="2" d="M804,-628.5C870.2175,-630.2159 877.823,-577.2159 948,-575.5"/>
<path fill="none" stroke="#ffffff" stroke-width="2" d="M804,-630.5C872.1972,-630.5 879.8028,-577.5 948,-577.5"/>
<path fill="none" stroke="#000000" stroke-width="2" d="M804,-632.5C874.177,-630.7841 881.7825,-577.7841 948,-579.5"/>
</g>
<!-- RPi&#45;&#45;hx&#45;cable -->
<g id="edge3" class="edge">
<title>RPi:e&#45;&#45;hx&#45;cable:w</title>
<path fill="none" stroke="#000000" stroke-width="2" d="M804,-559.5C867.1326,-559.7635 882.8829,-550.7635 948,-550.5"/>
<path fill="none" stroke="#895956" stroke-width="2" d="M804,-561.5C868.1249,-561.5 883.8751,-552.5 948,-552.5"/>
<path fill="none" stroke="#000000" stroke-width="2" d="M804,-563.5C869.1171,-563.2365 884.8674,-554.2365 948,-554.5"/>
</g>
<!-- RPi&#45;&#45;hx&#45;cable -->
<g id="edge5" class="edge">
<title>RPi:e&#45;&#45;hx&#45;cable:w</title>
<path fill="none" stroke="#000000" stroke-width="2" d="M804,-513.5C869.4434,-513.9164 884.9997,-525.9164 948,-525.5"/>
<path fill="none" stroke="#00ff00" stroke-width="2" d="M804,-515.5C868.2218,-515.5 883.7782,-527.5 948,-527.5"/>
<path fill="none" stroke="#000000" stroke-width="2" d="M804,-517.5C867.0003,-517.0836 882.5566,-529.0836 948,-529.5"/>
</g>
<!-- RPi&#45;&#45;hx&#45;cable -->
<g id="edge7" class="edge">
<title>RPi:e&#45;&#45;hx&#45;cable:w</title>
<path fill="none" stroke="#000000" stroke-width="2" d="M804,-490.5C869.229,-490.8134 884.9207,-500.8134 948,-500.5"/>
<path fill="none" stroke="#ffff00" stroke-width="2" d="M804,-492.5C868.1541,-492.5 883.8459,-502.5 948,-502.5"/>
<path fill="none" stroke="#000000" stroke-width="2" d="M804,-494.5C867.0793,-494.1866 882.771,-504.1866 948,-504.5"/>
</g>
<!-- HX711 -->
<g id="node2" class="node">
<title>HX711</title>
<polygon fill="#ffffff" stroke="transparent" points="1356,-631.5 1222,-631.5 1222,-401.5 1356,-401.5 1356,-631.5"/>
<polygon fill="none" stroke="#000000" points="1222,-608.5 1222,-631.5 1356,-631.5 1356,-608.5 1222,-608.5"/>
<text text-anchor="start" x="1266.5" y="-616.3" font-family="arial" font-size="14.00" fill="#000000">HX711</text>
<polygon fill="none" stroke="#000000" points="1222,-585.5 1222,-608.5 1275,-608.5 1275,-585.5 1222,-585.5"/>
<text text-anchor="start" x="1226" y="-593.3" font-family="arial" font-size="14.00" fill="#000000">HX711</text>
<polygon fill="none" stroke="#000000" points="1275,-585.5 1275,-608.5 1315,-608.5 1315,-585.5 1275,-585.5"/>
<text text-anchor="start" x="1279" y="-593.3" font-family="arial" font-size="14.00" fill="#000000">male</text>
<polygon fill="none" stroke="#000000" points="1315,-585.5 1315,-608.5 1356,-608.5 1356,-585.5 1315,-585.5"/>
<text text-anchor="start" x="1319" y="-593.3" font-family="arial" font-size="14.00" fill="#000000">8&#45;pin</text>
<polygon fill="none" stroke="#000000" points="1222,-562.5 1222,-585.5 1259,-585.5 1259,-562.5 1222,-562.5"/>
<text text-anchor="start" x="1236" y="-570.3" font-family="arial" font-size="14.00" fill="#000000">1</text>
<polygon fill="none" stroke="#000000" points="1259,-562.5 1259,-585.5 1320,-585.5 1320,-562.5 1259,-562.5"/>
<text text-anchor="start" x="1274" y="-570.3" font-family="arial" font-size="14.00" fill="#000000">VCC</text>
<polygon fill="none" stroke="#000000" points="1320,-562.5 1320,-585.5 1356,-585.5 1356,-562.5 1320,-562.5"/>
<text text-anchor="start" x="1333.5" y="-570.3" font-family="arial" font-size="14.00" fill="#000000">1</text>
<polygon fill="none" stroke="#000000" points="1222,-539.5 1222,-562.5 1259,-562.5 1259,-539.5 1222,-539.5"/>
<text text-anchor="start" x="1236" y="-547.3" font-family="arial" font-size="14.00" fill="#000000">2</text>
<polygon fill="none" stroke="#000000" points="1259,-539.5 1259,-562.5 1320,-562.5 1320,-539.5 1259,-539.5"/>
<text text-anchor="start" x="1273" y="-547.3" font-family="arial" font-size="14.00" fill="#000000">GND</text>
<polygon fill="none" stroke="#000000" points="1320,-539.5 1320,-562.5 1356,-562.5 1356,-539.5 1320,-539.5"/>
<text text-anchor="start" x="1333.5" y="-547.3" font-family="arial" font-size="14.00" fill="#000000">2</text>
<polygon fill="none" stroke="#000000" points="1222,-516.5 1222,-539.5 1259,-539.5 1259,-516.5 1222,-516.5"/>
<text text-anchor="start" x="1236" y="-524.3" font-family="arial" font-size="14.00" fill="#000000">3</text>
<polygon fill="none" stroke="#000000" points="1259,-516.5 1259,-539.5 1320,-539.5 1320,-516.5 1259,-516.5"/>
<text text-anchor="start" x="1279.5" y="-524.3" font-family="arial" font-size="14.00" fill="#000000">DT</text>
<polygon fill="none" stroke="#000000" points="1320,-516.5 1320,-539.5 1356,-539.5 1356,-516.5 1320,-516.5"/>
<text text-anchor="start" x="1333.5" y="-524.3" font-family="arial" font-size="14.00" fill="#000000">3</text>
<polygon fill="none" stroke="#000000" points="1222,-493.5 1222,-516.5 1259,-516.5 1259,-493.5 1222,-493.5"/>
<text text-anchor="start" x="1236" y="-501.3" font-family="arial" font-size="14.00" fill="#000000">4</text>
<polygon fill="none" stroke="#000000" points="1259,-493.5 1259,-516.5 1320,-516.5 1320,-493.5 1259,-493.5"/>
<text text-anchor="start" x="1274" y="-501.3" font-family="arial" font-size="14.00" fill="#000000">SCK</text>
<polygon fill="none" stroke="#000000" points="1320,-493.5 1320,-516.5 1356,-516.5 1356,-493.5 1320,-493.5"/>
<text text-anchor="start" x="1333.5" y="-501.3" font-family="arial" font-size="14.00" fill="#000000">4</text>
<polygon fill="none" stroke="#000000" points="1222,-470.5 1222,-493.5 1259,-493.5 1259,-470.5 1222,-470.5"/>
<text text-anchor="start" x="1236" y="-478.3" font-family="arial" font-size="14.00" fill="#000000">5</text>
<polygon fill="none" stroke="#000000" points="1259,-470.5 1259,-493.5 1320,-493.5 1320,-470.5 1259,-470.5"/>
<text text-anchor="start" x="1280" y="-478.3" font-family="arial" font-size="14.00" fill="#000000">E+</text>
<polygon fill="none" stroke="#000000" points="1320,-470.5 1320,-493.5 1356,-493.5 1356,-470.5 1320,-470.5"/>
<text text-anchor="start" x="1333.5" y="-478.3" font-family="arial" font-size="14.00" fill="#000000">5</text>
<polygon fill="none" stroke="#000000" points="1222,-447.5 1222,-470.5 1259,-470.5 1259,-447.5 1222,-447.5"/>
<text text-anchor="start" x="1236" y="-455.3" font-family="arial" font-size="14.00" fill="#000000">6</text>
<polygon fill="none" stroke="#000000" points="1259,-447.5 1259,-470.5 1320,-470.5 1320,-447.5 1259,-447.5"/>
<text text-anchor="start" x="1282" y="-455.3" font-family="arial" font-size="14.00" fill="#000000">E&#45;</text>
<polygon fill="none" stroke="#000000" points="1320,-447.5 1320,-470.5 1356,-470.5 1356,-447.5 1320,-447.5"/>
<text text-anchor="start" x="1333.5" y="-455.3" font-family="arial" font-size="14.00" fill="#000000">6</text>
<polygon fill="none" stroke="#000000" points="1222,-424.5 1222,-447.5 1259,-447.5 1259,-424.5 1222,-424.5"/>
<text text-anchor="start" x="1236" y="-432.3" font-family="arial" font-size="14.00" fill="#000000">7</text>
<polygon fill="none" stroke="#000000" points="1259,-424.5 1259,-447.5 1320,-447.5 1320,-424.5 1259,-424.5"/>
<text text-anchor="start" x="1280" y="-432.3" font-family="arial" font-size="14.00" fill="#000000">A+</text>
<polygon fill="none" stroke="#000000" points="1320,-424.5 1320,-447.5 1356,-447.5 1356,-424.5 1320,-424.5"/>
<text text-anchor="start" x="1333.5" y="-432.3" font-family="arial" font-size="14.00" fill="#000000">7</text>
<polygon fill="none" stroke="#000000" points="1222,-401.5 1222,-424.5 1259,-424.5 1259,-401.5 1222,-401.5"/>
<text text-anchor="start" x="1236" y="-409.3" font-family="arial" font-size="14.00" fill="#000000">8</text>
<polygon fill="none" stroke="#000000" points="1259,-401.5 1259,-424.5 1320,-424.5 1320,-401.5 1259,-401.5"/>
<text text-anchor="start" x="1282" y="-409.3" font-family="arial" font-size="14.00" fill="#000000">A&#45;</text>
<polygon fill="none" stroke="#000000" points="1320,-401.5 1320,-424.5 1356,-424.5 1356,-401.5 1320,-401.5"/>
<text text-anchor="start" x="1333.5" y="-409.3" font-family="arial" font-size="14.00" fill="#000000">8</text>
</g>
<!-- scale&#45;cable -->
<g id="node8" class="node">
<title>scale&#45;cable</title>
<polygon fill="none" stroke="#000000" points="1643,-571.5 1500,-571.5 1500,-387.5 1643,-387.5 1643,-571.5"/>
<polygon fill="none" stroke="#000000" points="1500.5,-548.5 1500.5,-571.5 1643.5,-571.5 1643.5,-548.5 1500.5,-548.5"/>
<text text-anchor="start" x="1534.5" y="-556.3" font-family="arial" font-size="14.00" fill="#000000">scale&#45;cable</text>
<polygon fill="none" stroke="#000000" points="1500.5,-525.5 1500.5,-548.5 1643.5,-548.5 1643.5,-525.5 1500.5,-525.5"/>
<text text-anchor="start" x="1564" y="-533.3" font-family="arial" font-size="14.00" fill="#000000">4x</text>
<text text-anchor="start" x="1529" y="-512.3" font-family="arial" font-size="14.00" fill="#000000"> </text>
<text text-anchor="start" x="1502.5" y="-493.3" font-family="arial" font-size="14.00" fill="#000000">HX711:5</text>
<text text-anchor="start" x="1565" y="-493.3" font-family="arial" font-size="14.00" fill="#000000">RD</text>
<text text-anchor="start" x="1592.5" y="-493.3" font-family="arial" font-size="14.00" fill="#000000">Scale:1</text>
<polygon fill="#000000" stroke="transparent" points="1500.5,-485.5 1500.5,-487.5 1643.5,-487.5 1643.5,-485.5 1500.5,-485.5"/>
<polygon fill="#ff0000" stroke="transparent" points="1500.5,-483.5 1500.5,-485.5 1643.5,-485.5 1643.5,-483.5 1500.5,-483.5"/>
<polygon fill="#000000" stroke="transparent" points="1500.5,-481.5 1500.5,-483.5 1643.5,-483.5 1643.5,-481.5 1500.5,-481.5"/>
<text text-anchor="start" x="1502.5" y="-468.3" font-family="arial" font-size="14.00" fill="#000000">HX711:6</text>
<text text-anchor="start" x="1566" y="-468.3" font-family="arial" font-size="14.00" fill="#000000">BK</text>
<text text-anchor="start" x="1592.5" y="-468.3" font-family="arial" font-size="14.00" fill="#000000">Scale:2</text>
<polygon fill="#000000" stroke="transparent" points="1500.5,-460.5 1500.5,-462.5 1643.5,-462.5 1643.5,-460.5 1500.5,-460.5"/>
<polygon fill="#000000" stroke="transparent" points="1500.5,-458.5 1500.5,-460.5 1643.5,-460.5 1643.5,-458.5 1500.5,-458.5"/>
<polygon fill="#000000" stroke="transparent" points="1500.5,-456.5 1500.5,-458.5 1643.5,-458.5 1643.5,-456.5 1500.5,-456.5"/>
<text text-anchor="start" x="1502.5" y="-443.3" font-family="arial" font-size="14.00" fill="#000000">HX711:7</text>
<text text-anchor="start" x="1565" y="-443.3" font-family="arial" font-size="14.00" fill="#000000">GN</text>
<text text-anchor="start" x="1592.5" y="-443.3" font-family="arial" font-size="14.00" fill="#000000">Scale:3</text>
<polygon fill="#000000" stroke="transparent" points="1500.5,-435.5 1500.5,-437.5 1643.5,-437.5 1643.5,-435.5 1500.5,-435.5"/>
<polygon fill="#00ff00" stroke="transparent" points="1500.5,-433.5 1500.5,-435.5 1643.5,-435.5 1643.5,-433.5 1500.5,-433.5"/>
<polygon fill="#000000" stroke="transparent" points="1500.5,-431.5 1500.5,-433.5 1643.5,-433.5 1643.5,-431.5 1500.5,-431.5"/>
<text text-anchor="start" x="1502.5" y="-418.3" font-family="arial" font-size="14.00" fill="#000000">HX711:8</text>
<text text-anchor="start" x="1563.5" y="-418.3" font-family="arial" font-size="14.00" fill="#000000">WH</text>
<text text-anchor="start" x="1592.5" y="-418.3" font-family="arial" font-size="14.00" fill="#000000">Scale:4</text>
<polygon fill="#000000" stroke="transparent" points="1500.5,-410.5 1500.5,-412.5 1643.5,-412.5 1643.5,-410.5 1500.5,-410.5"/>
<polygon fill="#ffffff" stroke="transparent" points="1500.5,-408.5 1500.5,-410.5 1643.5,-410.5 1643.5,-408.5 1500.5,-408.5"/>
<polygon fill="#000000" stroke="transparent" points="1500.5,-406.5 1500.5,-408.5 1643.5,-408.5 1643.5,-406.5 1500.5,-406.5"/>
<text text-anchor="start" x="1529" y="-393.3" font-family="arial" font-size="14.00" fill="#000000"> </text>
</g>
<!-- HX711&#45;&#45;scale&#45;cable -->
<g id="edge13" class="edge">
<title>HX711:e&#45;&#45;scale&#45;cable:w</title>
<path fill="none" stroke="#000000" stroke-width="2" d="M1356,-479.5C1420.604,-479.5341 1436.6319,-482.5341 1500.5,-482.5"/>
<path fill="none" stroke="#ff0000" stroke-width="2" d="M1356,-481.5C1420.2361,-481.5 1436.2639,-484.5 1500.5,-484.5"/>
<path fill="none" stroke="#000000" stroke-width="2" d="M1356,-483.5C1419.8681,-483.4659 1435.896,-486.4659 1500.5,-486.5"/>
</g>
<!-- HX711&#45;&#45;scale&#45;cable -->
<g id="edge15" class="edge">
<title>HX711:e&#45;&#45;scale&#45;cable:w</title>
<path fill="none" stroke="#000000" stroke-width="2" d="M1356,-456.5C1420.3481,-456.5039 1436.4006,-457.5039 1500.5,-457.5"/>
<path fill="none" stroke="#000000" stroke-width="2" d="M1356,-458.5C1420.2238,-458.5 1436.2762,-459.5 1500.5,-459.5"/>
<path fill="none" stroke="#000000" stroke-width="2" d="M1356,-460.5C1420.0994,-460.4961 1436.1519,-461.4961 1500.5,-461.5"/>
</g>
<!-- HX711&#45;&#45;scale&#45;cable -->
<g id="edge17" class="edge">
<title>HX711:e&#45;&#45;scale&#45;cable:w</title>
<path fill="none" stroke="#000000" stroke-width="2" d="M1356,-433.5C1420.0994,-433.5039 1436.1519,-432.5039 1500.5,-432.5"/>
<path fill="none" stroke="#00ff00" stroke-width="2" d="M1356,-435.5C1420.2238,-435.5 1436.2762,-434.5 1500.5,-434.5"/>
<path fill="none" stroke="#000000" stroke-width="2" d="M1356,-437.5C1420.3481,-437.4961 1436.4006,-436.4961 1500.5,-436.5"/>
</g>
<!-- HX711&#45;&#45;scale&#45;cable -->
<g id="edge19" class="edge">
<title>HX711:e&#45;&#45;scale&#45;cable:w</title>
<path fill="none" stroke="#000000" stroke-width="2" d="M1356,-410.5C1419.8681,-410.5341 1435.896,-407.5341 1500.5,-407.5"/>
<path fill="none" stroke="#ffffff" stroke-width="2" d="M1356,-412.5C1420.2361,-412.5 1436.2639,-409.5 1500.5,-409.5"/>
<path fill="none" stroke="#000000" stroke-width="2" d="M1356,-414.5C1420.604,-414.4659 1436.6319,-411.4659 1500.5,-411.5"/>
</g>
<!-- Scale -->
<g id="node3" class="node">
<title>Scale</title>
<polygon fill="#ffffff" stroke="transparent" points="1917,-562.5 1787,-562.5 1787,-378.5 1917,-378.5 1917,-562.5"/>
<polygon fill="none" stroke="#000000" points="1787,-539.5 1787,-562.5 1917,-562.5 1917,-539.5 1787,-539.5"/>
<text text-anchor="start" x="1833.5" y="-547.3" font-family="arial" font-size="14.00" fill="#000000">Scale</text>
<polygon fill="none" stroke="#000000" points="1787,-516.5 1787,-539.5 1917,-539.5 1917,-516.5 1787,-516.5"/>
<text text-anchor="start" x="1827" y="-524.3" font-family="arial" font-size="14.00" fill="#000000">Bosche</text>
<polygon fill="none" stroke="#000000" points="1787,-493.5 1787,-516.5 1832,-516.5 1832,-493.5 1787,-493.5"/>
<text text-anchor="start" x="1791" y="-501.3" font-family="arial" font-size="14.00" fill="#000000">Scale</text>
<polygon fill="none" stroke="#000000" points="1832,-493.5 1832,-516.5 1876,-516.5 1876,-493.5 1832,-493.5"/>
<text text-anchor="start" x="1836" y="-501.3" font-family="arial" font-size="14.00" fill="#000000">cable</text>
<polygon fill="none" stroke="#000000" points="1876,-493.5 1876,-516.5 1917,-516.5 1917,-493.5 1876,-493.5"/>
<text text-anchor="start" x="1880" y="-501.3" font-family="arial" font-size="14.00" fill="#000000">5&#45;pin</text>
<polygon fill="none" stroke="#000000" points="1787,-470.5 1787,-493.5 1836,-493.5 1836,-470.5 1787,-470.5"/>
<text text-anchor="start" x="1807" y="-478.3" font-family="arial" font-size="14.00" fill="#000000">1</text>
<polygon fill="none" stroke="#000000" points="1836,-470.5 1836,-493.5 1917,-493.5 1917,-470.5 1836,-470.5"/>
<text text-anchor="start" x="1862.5" y="-478.3" font-family="arial" font-size="14.00" fill="#000000">Red</text>
<polygon fill="none" stroke="#000000" points="1787,-447.5 1787,-470.5 1836,-470.5 1836,-447.5 1787,-447.5"/>
<text text-anchor="start" x="1807" y="-455.3" font-family="arial" font-size="14.00" fill="#000000">2</text>
<polygon fill="none" stroke="#000000" points="1836,-447.5 1836,-470.5 1917,-470.5 1917,-447.5 1836,-447.5"/>
<text text-anchor="start" x="1858" y="-455.3" font-family="arial" font-size="14.00" fill="#000000">Black</text>
<polygon fill="none" stroke="#000000" points="1787,-424.5 1787,-447.5 1836,-447.5 1836,-424.5 1787,-424.5"/>
<text text-anchor="start" x="1807" y="-432.3" font-family="arial" font-size="14.00" fill="#000000">3</text>
<polygon fill="none" stroke="#000000" points="1836,-424.5 1836,-447.5 1917,-447.5 1917,-424.5 1836,-424.5"/>
<text text-anchor="start" x="1856" y="-432.3" font-family="arial" font-size="14.00" fill="#000000">Green</text>
<polygon fill="none" stroke="#000000" points="1787,-401.5 1787,-424.5 1836,-424.5 1836,-401.5 1787,-401.5"/>
<text text-anchor="start" x="1807" y="-409.3" font-family="arial" font-size="14.00" fill="#000000">4</text>
<polygon fill="none" stroke="#000000" points="1836,-401.5 1836,-424.5 1917,-424.5 1917,-401.5 1836,-401.5"/>
<text text-anchor="start" x="1858" y="-409.3" font-family="arial" font-size="14.00" fill="#000000">White</text>
<polygon fill="none" stroke="#000000" points="1787,-378.5 1787,-401.5 1836,-401.5 1836,-378.5 1787,-378.5"/>
<text text-anchor="start" x="1807" y="-386.3" font-family="arial" font-size="14.00" fill="#000000">5</text>
<polygon fill="none" stroke="#000000" points="1836,-378.5 1836,-401.5 1917,-401.5 1917,-378.5 1836,-378.5"/>
<text text-anchor="start" x="1856" y="-386.3" font-family="arial" font-size="14.00" fill="#000000">Shield</text>
</g>
<!-- Resistor -->
<g id="node4" class="node">
<title>Resistor</title>
<polygon fill="#ffffff" stroke="transparent" points="187,-735.5 16,-735.5 16,-643.5 187,-643.5 187,-735.5"/>
<polygon fill="none" stroke="#000000" points="16.5,-712.5 16.5,-735.5 187.5,-735.5 187.5,-712.5 16.5,-712.5"/>
<text text-anchor="start" x="75" y="-720.3" font-family="arial" font-size="14.00" fill="#000000">Resistor</text>
<polygon fill="none" stroke="#000000" points="16.5,-689.5 16.5,-712.5 90.5,-712.5 90.5,-689.5 16.5,-689.5"/>
<text text-anchor="start" x="20.5" y="-697.3" font-family="arial" font-size="14.00" fill="#000000">4.7 KOhm</text>
<polygon fill="none" stroke="#000000" points="90.5,-689.5 90.5,-712.5 146.5,-712.5 146.5,-689.5 90.5,-689.5"/>
<text text-anchor="start" x="94.5" y="-697.3" font-family="arial" font-size="14.00" fill="#000000">resistor</text>
<polygon fill="none" stroke="#000000" points="146.5,-689.5 146.5,-712.5 187.5,-712.5 187.5,-689.5 146.5,-689.5"/>
<text text-anchor="start" x="150.5" y="-697.3" font-family="arial" font-size="14.00" fill="#000000">2&#45;pin</text>
<polygon fill="none" stroke="#000000" points="16.5,-666.5 16.5,-689.5 187.5,-689.5 187.5,-666.5 16.5,-666.5"/>
<text text-anchor="start" x="97.5" y="-674.3" font-family="arial" font-size="14.00" fill="#000000">1</text>
<polygon fill="none" stroke="#000000" points="16.5,-643.5 16.5,-666.5 187.5,-666.5 187.5,-643.5 16.5,-643.5"/>
<text text-anchor="start" x="97.5" y="-651.3" font-family="arial" font-size="14.00" fill="#000000">2</text>
</g>
<!-- resistor&#45;cable -->
<g id="node7" class="node">
<title>resistor&#45;cable</title>
<polygon fill="none" stroke="#000000" points="486,-765.5 347,-765.5 347,-631.5 486,-631.5 486,-765.5"/>
<polygon fill="none" stroke="#000000" points="347.5,-742.5 347.5,-765.5 486.5,-765.5 486.5,-742.5 347.5,-742.5"/>
<text text-anchor="start" x="373" y="-750.3" font-family="arial" font-size="14.00" fill="#000000">resistor&#45;cable</text>
<polygon fill="none" stroke="#000000" points="347.5,-719.5 347.5,-742.5 486.5,-742.5 486.5,-719.5 347.5,-719.5"/>
<text text-anchor="start" x="409" y="-727.3" font-family="arial" font-size="14.00" fill="#000000">2x</text>
<text text-anchor="start" x="380.5" y="-706.3" font-family="arial" font-size="14.00" fill="#000000"> </text>
<text text-anchor="start" x="349.5" y="-687.3" font-family="arial" font-size="14.00" fill="#000000">Resistor:1</text>
<text text-anchor="start" x="419.5" y="-687.3" font-family="arial" font-size="14.00" fill="#000000">WH</text>
<text text-anchor="start" x="448.5" y="-687.3" font-family="arial" font-size="14.00" fill="#000000">RPi:2</text>
<polygon fill="#000000" stroke="transparent" points="347.5,-679.5 347.5,-681.5 486.5,-681.5 486.5,-679.5 347.5,-679.5"/>
<polygon fill="#ffffff" stroke="transparent" points="347.5,-677.5 347.5,-679.5 486.5,-679.5 486.5,-677.5 347.5,-677.5"/>
<polygon fill="#000000" stroke="transparent" points="347.5,-675.5 347.5,-677.5 486.5,-677.5 486.5,-675.5 347.5,-675.5"/>
<text text-anchor="start" x="349.5" y="-662.3" font-family="arial" font-size="14.00" fill="#000000">Resistor:2</text>
<text text-anchor="start" x="421.5" y="-662.3" font-family="arial" font-size="14.00" fill="#000000">BN</text>
<text text-anchor="start" x="448.5" y="-662.3" font-family="arial" font-size="14.00" fill="#000000">RPi:8</text>
<polygon fill="#000000" stroke="transparent" points="347.5,-654.5 347.5,-656.5 486.5,-656.5 486.5,-654.5 347.5,-654.5"/>
<polygon fill="#895956" stroke="transparent" points="347.5,-652.5 347.5,-654.5 486.5,-654.5 486.5,-652.5 347.5,-652.5"/>
<polygon fill="#000000" stroke="transparent" points="347.5,-650.5 347.5,-652.5 486.5,-652.5 486.5,-650.5 347.5,-650.5"/>
<text text-anchor="start" x="380.5" y="-637.3" font-family="arial" font-size="14.00" fill="#000000"> </text>
</g>
<!-- Resistor&#45;&#45;resistor&#45;cable -->
<g id="edge9" class="edge">
<title>Resistor:e&#45;&#45;resistor&#45;cable:w</title>
<path fill="none" stroke="#000000" stroke-width="2" d="M187.5,-675.5C258.7248,-675.5032 276.4998,-676.5032 347.5,-676.5"/>
<path fill="none" stroke="#ffffff" stroke-width="2" d="M187.5,-677.5C258.6125,-677.5 276.3875,-678.5 347.5,-678.5"/>
<path fill="none" stroke="#000000" stroke-width="2" d="M187.5,-679.5C258.5002,-679.4968 276.2752,-680.4968 347.5,-680.5"/>
</g>
<!-- Resistor&#45;&#45;resistor&#45;cable -->
<g id="edge11" class="edge">
<title>Resistor:e&#45;&#45;resistor&#45;cable:w</title>
<path fill="none" stroke="#000000" stroke-width="2" d="M187.5,-652.5C258.5002,-652.5032 276.2752,-651.5032 347.5,-651.5"/>
<path fill="none" stroke="#895956" stroke-width="2" d="M187.5,-654.5C258.6125,-654.5 276.3875,-653.5 347.5,-653.5"/>
<path fill="none" stroke="#000000" stroke-width="2" d="M187.5,-656.5C258.7248,-656.4968 276.4998,-655.4968 347.5,-655.5"/>
</g>
<!-- Sensor -->
<g id="node5" class="node">
<title>Sensor</title>
<polygon fill="#ffffff" stroke="transparent" points="203,-576 0,-576 0,-461 203,-461 203,-576"/>
<polygon fill="none" stroke="#000000" points=".5,-552.5 .5,-575.5 203.5,-575.5 203.5,-552.5 .5,-552.5"/>
<text text-anchor="start" x="78.5" y="-560.3" font-family="arial" font-size="14.00" fill="#000000">Sensor</text>
<polygon fill="none" stroke="#000000" points=".5,-529.5 .5,-552.5 72.5,-552.5 72.5,-529.5 .5,-529.5"/>
<text text-anchor="start" x="4.5" y="-537.3" font-family="arial" font-size="14.00" fill="#000000">DS18B20</text>
<polygon fill="none" stroke="#000000" points="72.5,-529.5 72.5,-552.5 162.5,-552.5 162.5,-529.5 72.5,-529.5"/>
<text text-anchor="start" x="76.5" y="-537.3" font-family="arial" font-size="14.00" fill="#000000">Temperature</text>
<polygon fill="none" stroke="#000000" points="162.5,-529.5 162.5,-552.5 203.5,-552.5 203.5,-529.5 162.5,-529.5"/>
<text text-anchor="start" x="166.5" y="-537.3" font-family="arial" font-size="14.00" fill="#000000">3&#45;pin</text>
<polygon fill="none" stroke="#000000" points=".5,-506.5 .5,-529.5 118.5,-529.5 118.5,-506.5 .5,-506.5"/>
<text text-anchor="start" x="45.5" y="-514.3" font-family="arial" font-size="14.00" fill="#000000">Red</text>
<polygon fill="none" stroke="#000000" points="118.5,-506.5 118.5,-529.5 203.5,-529.5 203.5,-506.5 118.5,-506.5"/>
<text text-anchor="start" x="156.5" y="-514.3" font-family="arial" font-size="14.00" fill="#000000">1</text>
<polygon fill="none" stroke="#000000" points=".5,-483.5 .5,-506.5 118.5,-506.5 118.5,-483.5 .5,-483.5"/>
<text text-anchor="start" x="41" y="-491.3" font-family="arial" font-size="14.00" fill="#000000">Black</text>
<polygon fill="none" stroke="#000000" points="118.5,-483.5 118.5,-506.5 203.5,-506.5 203.5,-483.5 118.5,-483.5"/>
<text text-anchor="start" x="156.5" y="-491.3" font-family="arial" font-size="14.00" fill="#000000">2</text>
<polygon fill="none" stroke="#000000" points=".5,-460.5 .5,-483.5 118.5,-483.5 118.5,-460.5 .5,-460.5"/>
<text text-anchor="start" x="39" y="-468.3" font-family="arial" font-size="14.00" fill="#000000">Green</text>
<polygon fill="none" stroke="#000000" points="118.5,-460.5 118.5,-483.5 203.5,-483.5 203.5,-460.5 118.5,-460.5"/>
<text text-anchor="start" x="156.5" y="-468.3" font-family="arial" font-size="14.00" fill="#000000">3</text>
</g>
<!-- temp&#45;cable -->
<g id="node9" class="node">
<title>temp&#45;cable</title>
<polygon fill="none" stroke="#000000" points="481,-607 352,-607 352,-448 481,-448 481,-607"/>
<polygon fill="none" stroke="#000000" points="352.5,-583.5 352.5,-606.5 481.5,-606.5 481.5,-583.5 352.5,-583.5"/>
<text text-anchor="start" x="380.5" y="-591.3" font-family="arial" font-size="14.00" fill="#000000">temp&#45;cable</text>
<polygon fill="none" stroke="#000000" points="352.5,-560.5 352.5,-583.5 481.5,-583.5 481.5,-560.5 352.5,-560.5"/>
<text text-anchor="start" x="409" y="-568.3" font-family="arial" font-size="14.00" fill="#000000">3x</text>
<text text-anchor="start" x="382" y="-547.3" font-family="arial" font-size="14.00" fill="#000000"> </text>
<text text-anchor="start" x="354.5" y="-528.3" font-family="arial" font-size="14.00" fill="#000000">Sensor:1</text>
<text text-anchor="start" x="417.5" y="-528.3" font-family="arial" font-size="14.00" fill="#000000">RD</text>
<text text-anchor="start" x="443.5" y="-528.3" font-family="arial" font-size="14.00" fill="#000000">RPi:2</text>
<polygon fill="#000000" stroke="transparent" points="352.5,-520.5 352.5,-522.5 481.5,-522.5 481.5,-520.5 352.5,-520.5"/>
<polygon fill="#ff0000" stroke="transparent" points="352.5,-518.5 352.5,-520.5 481.5,-520.5 481.5,-518.5 352.5,-518.5"/>
<polygon fill="#000000" stroke="transparent" points="352.5,-516.5 352.5,-518.5 481.5,-518.5 481.5,-516.5 352.5,-516.5"/>
<text text-anchor="start" x="354.5" y="-503.3" font-family="arial" font-size="14.00" fill="#000000">Sensor:2</text>
<text text-anchor="start" x="418.5" y="-503.3" font-family="arial" font-size="14.00" fill="#000000">BK</text>
<text text-anchor="start" x="443.5" y="-503.3" font-family="arial" font-size="14.00" fill="#000000">RPi:5</text>
<polygon fill="#000000" stroke="transparent" points="352.5,-495.5 352.5,-497.5 481.5,-497.5 481.5,-495.5 352.5,-495.5"/>
<polygon fill="#000000" stroke="transparent" points="352.5,-493.5 352.5,-495.5 481.5,-495.5 481.5,-493.5 352.5,-493.5"/>
<polygon fill="#000000" stroke="transparent" points="352.5,-491.5 352.5,-493.5 481.5,-493.5 481.5,-491.5 352.5,-491.5"/>
<text text-anchor="start" x="354.5" y="-478.3" font-family="arial" font-size="14.00" fill="#000000">Sensor:3</text>
<text text-anchor="start" x="417.5" y="-478.3" font-family="arial" font-size="14.00" fill="#000000">GN</text>
<text text-anchor="start" x="443.5" y="-478.3" font-family="arial" font-size="14.00" fill="#000000">RPi:8</text>
<polygon fill="#000000" stroke="transparent" points="352.5,-470.5 352.5,-472.5 481.5,-472.5 481.5,-470.5 352.5,-470.5"/>
<polygon fill="#00ff00" stroke="transparent" points="352.5,-468.5 352.5,-470.5 481.5,-470.5 481.5,-468.5 352.5,-468.5"/>
<polygon fill="#000000" stroke="transparent" points="352.5,-466.5 352.5,-468.5 481.5,-468.5 481.5,-466.5 352.5,-466.5"/>
<text text-anchor="start" x="382" y="-453.3" font-family="arial" font-size="14.00" fill="#000000"> </text>
</g>
<!-- Sensor&#45;&#45;temp&#45;cable -->
<g id="edge21" class="edge">
<title>Sensor:e&#45;&#45;temp&#45;cable:w</title>
<path fill="none" stroke="#000000" stroke-width="2" d="M203,-515.5C269.6896,-515.5144 286.2889,-517.5144 352.5,-517.5"/>
<path fill="none" stroke="#ff0000" stroke-width="2" d="M203,-517.5C269.4504,-517.5 286.0496,-519.5 352.5,-519.5"/>
<path fill="none" stroke="#000000" stroke-width="2" d="M203,-519.5C269.2111,-519.4856 285.8104,-521.4856 352.5,-521.5"/>
</g>
<!-- Sensor&#45;&#45;temp&#45;cable -->
<g id="edge23" class="edge">
<title>Sensor:e&#45;&#45;temp&#45;cable:w</title>
<path fill="none" stroke="#000000" stroke-width="2" d="M203,-492.5C269.4444,-492.5 286.0556,-492.5 352.5,-492.5"/>
<path fill="none" stroke="#000000" stroke-width="2" d="M203,-494.5C269.4444,-494.5 286.0556,-494.5 352.5,-494.5"/>
<path fill="none" stroke="#000000" stroke-width="2" d="M203,-496.5C269.4444,-496.5 286.0556,-496.5 352.5,-496.5"/>
</g>
<!-- Sensor&#45;&#45;temp&#45;cable -->
<g id="edge25" class="edge">
<title>Sensor:e&#45;&#45;temp&#45;cable:w</title>
<path fill="none" stroke="#000000" stroke-width="2" d="M203,-469.5C269.2111,-469.5144 285.8104,-467.5144 352.5,-467.5"/>
<path fill="none" stroke="#00ff00" stroke-width="2" d="M203,-471.5C269.4504,-471.5 286.0496,-469.5 352.5,-469.5"/>
<path fill="none" stroke="#000000" stroke-width="2" d="M203,-473.5C269.6896,-473.4856 286.2889,-471.4856 352.5,-471.5"/>
</g>
<!-- hx&#45;cable&#45;&#45;HX711 -->
<g id="edge2" class="edge">
<title>hx&#45;cable:e&#45;&#45;HX711:w</title>
<path fill="none" stroke="#000000" stroke-width="2" d="M1078,-575.5C1141.6447,-575.5344 1157.6169,-572.5344 1222,-572.5"/>
<path fill="none" stroke="#ffffff" stroke-width="2" d="M1078,-577.5C1142.0139,-577.5 1157.9861,-574.5 1222,-574.5"/>
<path fill="none" stroke="#000000" stroke-width="2" d="M1078,-579.5C1142.3831,-579.4656 1158.3553,-576.4656 1222,-576.5"/>
</g>
<!-- hx&#45;cable&#45;&#45;HX711 -->
<g id="edge4" class="edge">
<title>hx&#45;cable:e&#45;&#45;HX711:w</title>
<path fill="none" stroke="#000000" stroke-width="2" d="M1078,-550.5C1141.8768,-550.5039 1157.8737,-549.5039 1222,-549.5"/>
<path fill="none" stroke="#895956" stroke-width="2" d="M1078,-552.5C1142.0015,-552.5 1157.9985,-551.5 1222,-551.5"/>
<path fill="none" stroke="#000000" stroke-width="2" d="M1078,-554.5C1142.1263,-554.4961 1158.1232,-553.4961 1222,-553.5"/>
</g>
<!-- hx&#45;cable&#45;&#45;HX711 -->
<g id="edge6" class="edge">
<title>hx&#45;cable:e&#45;&#45;HX711:w</title>
<path fill="none" stroke="#000000" stroke-width="2" d="M1078,-525.5C1142.1263,-525.5039 1158.1232,-526.5039 1222,-526.5"/>
<path fill="none" stroke="#00ff00" stroke-width="2" d="M1078,-527.5C1142.0015,-527.5 1157.9985,-528.5 1222,-528.5"/>
<path fill="none" stroke="#000000" stroke-width="2" d="M1078,-529.5C1141.8768,-529.4961 1157.8737,-530.4961 1222,-530.5"/>
</g>
<!-- hx&#45;cable&#45;&#45;HX711 -->
<g id="edge8" class="edge">
<title>hx&#45;cable:e&#45;&#45;HX711:w</title>
<path fill="none" stroke="#000000" stroke-width="2" d="M1078,-500.5C1142.2544,-500.5155 1158.2421,-502.5155 1222,-502.5"/>
<path fill="none" stroke="#ffff00" stroke-width="2" d="M1078,-502.5C1142.0062,-502.5 1157.9938,-504.5 1222,-504.5"/>
<path fill="none" stroke="#000000" stroke-width="2" d="M1078,-504.5C1141.7579,-504.4845 1157.7456,-506.4845 1222,-506.5"/>
</g>
<!-- resistor&#45;cable&#45;&#45;RPi -->
<g id="edge10" class="edge">
<title>resistor&#45;cable:e&#45;&#45;RPi:w</title>
<path fill="none" stroke="#000000" stroke-width="2" d="M486,-676.5C555.3568,-678.4638 556.6438,-607.4638 630,-605.5"/>
<path fill="none" stroke="#ffffff" stroke-width="2" d="M486,-678.5C557.3565,-678.5 558.6435,-607.5 630,-607.5"/>
<path fill="none" stroke="#000000" stroke-width="2" d="M486,-680.5C559.3562,-678.5362 560.6432,-607.5362 630,-609.5"/>
</g>
<!-- resistor&#45;cable&#45;&#45;RPi -->
<g id="edge12" class="edge">
<title>resistor&#45;cable:e&#45;&#45;RPi:w</title>
<path fill="none" stroke="#000000" stroke-width="2" d="M486,-651.5C587.9542,-654.1542 524.2659,-470.1542 630,-467.5"/>
<path fill="none" stroke="#895956" stroke-width="2" d="M486,-653.5C589.8441,-653.5 526.1559,-469.5 630,-469.5"/>
<path fill="none" stroke="#000000" stroke-width="2" d="M486,-655.5C591.7341,-652.8458 528.0458,-468.8458 630,-471.5"/>
</g>
<!-- scale&#45;cable&#45;&#45;Scale -->
<g id="edge14" class="edge">
<title>scale&#45;cable:e&#45;&#45;Scale:w</title>
<path fill="none" stroke="#000000" stroke-width="2" d="M1643,-482.5C1706.7579,-482.5155 1722.7456,-480.5155 1787,-480.5"/>
<path fill="none" stroke="#ff0000" stroke-width="2" d="M1643,-484.5C1707.0062,-484.5 1722.9938,-482.5 1787,-482.5"/>
<path fill="none" stroke="#000000" stroke-width="2" d="M1643,-486.5C1707.2544,-486.4845 1723.2421,-484.4845 1787,-484.5"/>
</g>
<!-- scale&#45;cable&#45;&#45;Scale -->
<g id="edge16" class="edge">
<title>scale&#45;cable:e&#45;&#45;Scale:w</title>
<path fill="none" stroke="#000000" stroke-width="2" d="M1643,-457.5C1706.8768,-457.5039 1722.8737,-456.5039 1787,-456.5"/>
<path fill="none" stroke="#000000" stroke-width="2" d="M1643,-459.5C1707.0015,-459.5 1722.9985,-458.5 1787,-458.5"/>
<path fill="none" stroke="#000000" stroke-width="2" d="M1643,-461.5C1707.1263,-461.4961 1723.1232,-460.4961 1787,-460.5"/>
</g>
<!-- scale&#45;cable&#45;&#45;Scale -->
<g id="edge18" class="edge">
<title>scale&#45;cable:e&#45;&#45;Scale:w</title>
<path fill="none" stroke="#000000" stroke-width="2" d="M1643,-432.5C1707.1263,-432.5039 1723.1232,-433.5039 1787,-433.5"/>
<path fill="none" stroke="#00ff00" stroke-width="2" d="M1643,-434.5C1707.0015,-434.5 1722.9985,-435.5 1787,-435.5"/>
<path fill="none" stroke="#000000" stroke-width="2" d="M1643,-436.5C1706.8768,-436.4961 1722.8737,-437.4961 1787,-437.5"/>
</g>
<!-- scale&#45;cable&#45;&#45;Scale -->
<g id="edge20" class="edge">
<title>scale&#45;cable:e&#45;&#45;Scale:w</title>
<path fill="none" stroke="#000000" stroke-width="2" d="M1643,-407.5C1707.3831,-407.5344 1723.3553,-410.5344 1787,-410.5"/>
<path fill="none" stroke="#ffffff" stroke-width="2" d="M1643,-409.5C1707.0139,-409.5 1722.9861,-412.5 1787,-412.5"/>
<path fill="none" stroke="#000000" stroke-width="2" d="M1643,-411.5C1706.6447,-411.4656 1722.6169,-414.4656 1787,-414.5"/>
</g>
<!-- temp&#45;cable&#45;&#45;RPi -->
<g id="edge22" class="edge">
<title>temp&#45;cable:e&#45;&#45;RPi:w</title>
<path fill="none" stroke="#000000" stroke-width="2" d="M481.5,-517.5C560.215,-519.612 555.2787,-607.612 630,-605.5"/>
<path fill="none" stroke="#ff0000" stroke-width="2" d="M481.5,-519.5C558.2182,-519.5 553.2818,-607.5 630,-607.5"/>
<path fill="none" stroke="#000000" stroke-width="2" d="M481.5,-521.5C556.2213,-519.388 551.285,-607.388 630,-609.5"/>
</g>
<!-- temp&#45;cable&#45;&#45;RPi -->
<g id="edge24" class="edge">
<title>temp&#45;cable:e&#45;&#45;RPi:w</title>
<path fill="none" stroke="#000000" stroke-width="2" d="M481.5,-492.5C552.2782,-494.0221 563.1059,-538.0221 630,-536.5"/>
<path fill="none" stroke="#000000" stroke-width="2" d="M481.5,-494.5C550.3362,-494.5 561.1638,-538.5 630,-538.5"/>
<path fill="none" stroke="#000000" stroke-width="2" d="M481.5,-496.5C548.3941,-494.9779 559.2218,-538.9779 630,-540.5"/>
</g>
<!-- temp&#45;cable&#45;&#45;RPi -->
<g id="edge26" class="edge">
<title>temp&#45;cable:e&#45;&#45;RPi:w</title>
<path fill="none" stroke="#000000" stroke-width="2" d="M481.5,-467.5C547.5,-467.5 564,-467.5 630,-467.5"/>
<path fill="none" stroke="#00ff00" stroke-width="2" d="M481.5,-469.5C547.5,-469.5 564,-469.5 630,-469.5"/>
<path fill="none" stroke="#000000" stroke-width="2" d="M481.5,-471.5C547.5,-471.5 564,-471.5 630,-471.5"/>
</g>
</g>
</svg>
