<?xml version="1.0" encoding="UTF-8" standalone="no"?>
<!DOCTYPE svg PUBLIC "-//W3C//DTD SVG 1.1//EN"
 "http://www.w3.org/Graphics/SVG/1.1/DTD/svg11.dtd">
<!-- Generated by graphviz version 2.40.1 (20161225.0304)
 -->
<!-- Title: %3 Pages: 1 -->
<svg width="1295pt" height="318pt"
 viewBox="0.00 0.00 1295.00 318.00" xmlns="http://www.w3.org/2000/svg" xmlns:xlink="http://www.w3.org/1999/xlink">
<g id="graph0" class="graph" transform="scale(1 1) rotate(0) translate(4 314)">
<title>%3</title>
<polygon fill="#ffffff" stroke="transparent" points="-4,4 -4,-314 1291,-314 1291,4 -4,4"/>
<!-- RPi -->
<g id="node1" class="node">
<title>RPi</title>
<polygon fill="#ffffff" stroke="transparent" points="174,-310 0,-310 0,-34 174,-34 174,-310"/>
<polygon fill="none" stroke="#000000" points="0,-287 0,-310 174,-310 174,-287 0,-287"/>
<text text-anchor="start" x="75" y="-294.8" font-family="arial" font-size="14.00" fill="#000000">RPi</text>
<polygon fill="none" stroke="#000000" points="0,-264 0,-287 174,-287 174,-264 0,-264"/>
<text text-anchor="start" x="44.5" y="-271.8" font-family="arial" font-size="14.00" fill="#000000">Raspberry Pi</text>
<polygon fill="none" stroke="#000000" points="0,-241 0,-264 85,-264 85,-241 0,-241"/>
<text text-anchor="start" x="4" y="-248.8" font-family="arial" font-size="14.00" fill="#000000">Zero or 3B+</text>
<polygon fill="none" stroke="#000000" points="85,-241 85,-264 125,-264 125,-241 85,-241"/>
<text text-anchor="start" x="89" y="-248.8" font-family="arial" font-size="14.00" fill="#000000">male</text>
<polygon fill="none" stroke="#000000" points="125,-241 125,-264 174,-264 174,-241 125,-241"/>
<text text-anchor="start" x="129" y="-248.8" font-family="arial" font-size="14.00" fill="#000000">40&#45;pin</text>
<polygon fill="none" stroke="#000000" points="0,-218 0,-241 109,-241 109,-218 0,-218"/>
<text text-anchor="start" x="45" y="-225.8" font-family="arial" font-size="14.00" fill="#000000">3V</text>
<polygon fill="none" stroke="#000000" points="109,-218 109,-241 174,-241 174,-218 109,-218"/>
<text text-anchor="start" x="137" y="-225.8" font-family="arial" font-size="14.00" fill="#000000">1</text>
<polygon fill="none" stroke="#000000" points="0,-195 0,-218 109,-218 109,-195 0,-195"/>
<text text-anchor="start" x="45" y="-202.8" font-family="arial" font-size="14.00" fill="#000000">5V</text>
<polygon fill="none" stroke="#000000" points="109,-195 109,-218 174,-218 174,-195 109,-195"/>
<text text-anchor="start" x="137" y="-202.8" font-family="arial" font-size="14.00" fill="#000000">2</text>
<polygon fill="none" stroke="#000000" points="0,-172 0,-195 109,-195 109,-172 0,-172"/>
<text text-anchor="start" x="45" y="-179.8" font-family="arial" font-size="14.00" fill="#000000">5V</text>
<polygon fill="none" stroke="#000000" points="109,-172 109,-195 174,-195 174,-172 109,-172"/>
<text text-anchor="start" x="137" y="-179.8" font-family="arial" font-size="14.00" fill="#000000">3</text>
<polygon fill="none" stroke="#000000" points="0,-149 0,-172 109,-172 109,-149 0,-149"/>
<text text-anchor="start" x="38" y="-156.8" font-family="arial" font-size="14.00" fill="#000000">GND</text>
<polygon fill="none" stroke="#000000" points="109,-149 109,-172 174,-172 174,-149 109,-149"/>
<text text-anchor="start" x="137" y="-156.8" font-family="arial" font-size="14.00" fill="#000000">4</text>
<polygon fill="none" stroke="#000000" points="0,-126 0,-149 109,-149 109,-126 0,-126"/>
<text text-anchor="start" x="38" y="-133.8" font-family="arial" font-size="14.00" fill="#000000">GND</text>
<polygon fill="none" stroke="#000000" points="109,-126 109,-149 174,-149 174,-126 109,-126"/>
<text text-anchor="start" x="137" y="-133.8" font-family="arial" font-size="14.00" fill="#000000">5</text>
<polygon fill="none" stroke="#000000" points="0,-103 0,-126 109,-126 109,-103 0,-103"/>
<text text-anchor="start" x="28" y="-110.8" font-family="arial" font-size="14.00" fill="#000000">GPIO05</text>
<polygon fill="none" stroke="#000000" points="109,-103 109,-126 174,-126 174,-103 109,-103"/>
<text text-anchor="start" x="137" y="-110.8" font-family="arial" font-size="14.00" fill="#000000">6</text>
<polygon fill="none" stroke="#000000" points="0,-80 0,-103 109,-103 109,-80 0,-80"/>
<text text-anchor="start" x="28" y="-87.8" font-family="arial" font-size="14.00" fill="#000000">GPIO06</text>
<polygon fill="none" stroke="#000000" points="109,-80 109,-103 174,-103 174,-80 109,-80"/>
<text text-anchor="start" x="137" y="-87.8" font-family="arial" font-size="14.00" fill="#000000">7</text>
<polygon fill="none" stroke="#000000" points="0,-57 0,-80 109,-80 109,-57 0,-57"/>
<text text-anchor="start" x="28" y="-64.8" font-family="arial" font-size="14.00" fill="#000000">GPIO15</text>
<polygon fill="none" stroke="#000000" points="109,-57 109,-80 174,-80 174,-57 109,-57"/>
<text text-anchor="start" x="137" y="-64.8" font-family="arial" font-size="14.00" fill="#000000">8</text>
<polygon fill="none" stroke="#000000" points="0,-34 0,-57 109,-57 109,-34 0,-34"/>
<text text-anchor="start" x="28" y="-41.8" font-family="arial" font-size="14.00" fill="#000000">GPIO16</text>
<polygon fill="none" stroke="#000000" points="109,-34 109,-57 174,-57 174,-34 109,-34"/>
<text text-anchor="start" x="137" y="-41.8" font-family="arial" font-size="14.00" fill="#000000">9</text>
</g>
<!-- hx&#45;cable -->
<g id="node4" class="node">
<title>hx&#45;cable</title>
<polygon fill="none" stroke="#000000" points="448,-263 318,-263 318,-79 448,-79 448,-263"/>
<polygon fill="none" stroke="#000000" points="318,-240 318,-263 448,-263 448,-240 318,-240"/>
<text text-anchor="start" x="355" y="-247.8" font-family="arial" font-size="14.00" fill="#000000">hx&#45;cable</text>
<polygon fill="none" stroke="#000000" points="318,-217 318,-240 448,-240 448,-217 318,-217"/>
<text text-anchor="start" x="375" y="-224.8" font-family="arial" font-size="14.00" fill="#000000">4x</text>
<text text-anchor="start" x="336" y="-203.8" font-family="arial" font-size="14.00" fill="#000000"> </text>
<text text-anchor="start" x="320" y="-184.8" font-family="arial" font-size="14.00" fill="#000000">RPi:1</text>
<text text-anchor="start" x="360" y="-184.8" font-family="arial" font-size="14.00" fill="#000000">WH</text>
<text text-anchor="start" x="389" y="-184.8" font-family="arial" font-size="14.00" fill="#000000">HX711:1</text>
<polygon fill="#000000" stroke="transparent" points="318,-177 318,-179 448,-179 448,-177 318,-177"/>
<polygon fill="#ffffff" stroke="transparent" points="318,-175 318,-177 448,-177 448,-175 318,-175"/>
<polygon fill="#000000" stroke="transparent" points="318,-173 318,-175 448,-175 448,-173 318,-173"/>
<text text-anchor="start" x="320" y="-159.8" font-family="arial" font-size="14.00" fill="#000000">RPi:4</text>
<text text-anchor="start" x="362" y="-159.8" font-family="arial" font-size="14.00" fill="#000000">BN</text>
<text text-anchor="start" x="389" y="-159.8" font-family="arial" font-size="14.00" fill="#000000">HX711:2</text>
<polygon fill="#000000" stroke="transparent" points="318,-152 318,-154 448,-154 448,-152 318,-152"/>
<polygon fill="#895956" stroke="transparent" points="318,-150 318,-152 448,-152 448,-150 318,-150"/>
<polygon fill="#000000" stroke="transparent" points="318,-148 318,-150 448,-150 448,-148 318,-148"/>
<text text-anchor="start" x="320" y="-134.8" font-family="arial" font-size="14.00" fill="#000000">RPi:6</text>
<text text-anchor="start" x="361.5" y="-134.8" font-family="arial" font-size="14.00" fill="#000000">GN</text>
<text text-anchor="start" x="389" y="-134.8" font-family="arial" font-size="14.00" fill="#000000">HX711:3</text>
<polygon fill="#000000" stroke="transparent" points="318,-127 318,-129 448,-129 448,-127 318,-127"/>
<polygon fill="#00ff00" stroke="transparent" points="318,-125 318,-127 448,-127 448,-125 318,-125"/>
<polygon fill="#000000" stroke="transparent" points="318,-123 318,-125 448,-125 448,-123 318,-123"/>
<text text-anchor="start" x="320" y="-109.8" font-family="arial" font-size="14.00" fill="#000000">RPi:7</text>
<text text-anchor="start" x="362.5" y="-109.8" font-family="arial" font-size="14.00" fill="#000000">YE</text>
<text text-anchor="start" x="389" y="-109.8" font-family="arial" font-size="14.00" fill="#000000">HX711:4</text>
<polygon fill="#000000" stroke="transparent" points="318,-102 318,-104 448,-104 448,-102 318,-102"/>
<polygon fill="#ffff00" stroke="transparent" points="318,-100 318,-102 448,-102 448,-100 318,-100"/>
<polygon fill="#000000" stroke="transparent" points="318,-98 318,-100 448,-100 448,-98 318,-98"/>
<text text-anchor="start" x="336" y="-84.8" font-family="arial" font-size="14.00" fill="#000000"> </text>
</g>
<!-- RPi&#45;&#45;hx&#45;cable -->
<g id="edge1" class="edge">
<title>RPi:e&#45;&#45;hx&#45;cable:w</title>
<path fill="none" stroke="#000000" stroke-width="2" d="M174,-228C240.37,-229.7322 247.666,-175.7322 318,-174"/>
<path fill="none" stroke="#ffffff" stroke-width="2" d="M174,-230C242.352,-230 249.648,-176 318,-176"/>
<path fill="none" stroke="#000000" stroke-width="2" d="M174,-232C244.334,-230.2678 251.63,-176.2678 318,-178"/>
</g>
<!-- RPi&#45;&#45;hx&#45;cable -->
<g id="edge3" class="edge">
<title>RPi:e&#45;&#45;hx&#45;cable:w</title>
<path fill="none" stroke="#000000" stroke-width="2" d="M174,-158C237.1326,-158.2635 252.8829,-149.2635 318,-149"/>
<path fill="none" stroke="#895956" stroke-width="2" d="M174,-160C238.1249,-160 253.8751,-151 318,-151"/>
<path fill="none" stroke="#000000" stroke-width="2" d="M174,-162C239.1171,-161.7365 254.8674,-152.7365 318,-153"/>
</g>
<!-- RPi&#45;&#45;hx&#45;cable -->
<g id="edge5" class="edge">
<title>RPi:e&#45;&#45;hx&#45;cable:w</title>
<path fill="none" stroke="#000000" stroke-width="2" d="M174,-112C239.4434,-112.4164 254.9997,-124.4164 318,-124"/>
<path fill="none" stroke="#00ff00" stroke-width="2" d="M174,-114C238.2218,-114 253.7782,-126 318,-126"/>
<path fill="none" stroke="#000000" stroke-width="2" d="M174,-116C237.0003,-115.5836 252.5566,-127.5836 318,-128"/>
</g>
<!-- RPi&#45;&#45;hx&#45;cable -->
<g id="edge7" class="edge">
<title>RPi:e&#45;&#45;hx&#45;cable:w</title>
<path fill="none" stroke="#000000" stroke-width="2" d="M174,-89C239.229,-89.3134 254.9207,-99.3134 318,-99"/>
<path fill="none" stroke="#ffff00" stroke-width="2" d="M174,-91C238.1541,-91 253.8459,-101 318,-101"/>
<path fill="none" stroke="#000000" stroke-width="2" d="M174,-93C237.0793,-92.6866 252.771,-102.6866 318,-103"/>
</g>
<!-- HX711 -->
<g id="node2" class="node">
<title>HX711</title>
<polygon fill="#ffffff" stroke="transparent" points="726,-230 592,-230 592,0 726,0 726,-230"/>
<polygon fill="none" stroke="#000000" points="592,-207 592,-230 726,-230 726,-207 592,-207"/>
<text text-anchor="start" x="636.5" y="-214.8" font-family="arial" font-size="14.00" fill="#000000">HX711</text>
<polygon fill="none" stroke="#000000" points="592,-184 592,-207 645,-207 645,-184 592,-184"/>
<text text-anchor="start" x="596" y="-191.8" font-family="arial" font-size="14.00" fill="#000000">HX711</text>
<polygon fill="none" stroke="#000000" points="645,-184 645,-207 685,-207 685,-184 645,-184"/>
<text text-anchor="start" x="649" y="-191.8" font-family="arial" font-size="14.00" fill="#000000">male</text>
<polygon fill="none" stroke="#000000" points="685,-184 685,-207 726,-207 726,-184 685,-184"/>
<text text-anchor="start" x="689" y="-191.8" font-family="arial" font-size="14.00" fill="#000000">8&#45;pin</text>
<polygon fill="none" stroke="#000000" points="592,-161 592,-184 629,-184 629,-161 592,-161"/>
<text text-anchor="start" x="606" y="-168.8" font-family="arial" font-size="14.00" fill="#000000">1</text>
<polygon fill="none" stroke="#000000" points="629,-161 629,-184 690,-184 690,-161 629,-161"/>
<text text-anchor="start" x="644" y="-168.8" font-family="arial" font-size="14.00" fill="#000000">VCC</text>
<polygon fill="none" stroke="#000000" points="690,-161 690,-184 726,-184 726,-161 690,-161"/>
<text text-anchor="start" x="703.5" y="-168.8" font-family="arial" font-size="14.00" fill="#000000">1</text>
<polygon fill="none" stroke="#000000" points="592,-138 592,-161 629,-161 629,-138 592,-138"/>
<text text-anchor="start" x="606" y="-145.8" font-family="arial" font-size="14.00" fill="#000000">2</text>
<polygon fill="none" stroke="#000000" points="629,-138 629,-161 690,-161 690,-138 629,-138"/>
<text text-anchor="start" x="643" y="-145.8" font-family="arial" font-size="14.00" fill="#000000">GND</text>
<polygon fill="none" stroke="#000000" points="690,-138 690,-161 726,-161 726,-138 690,-138"/>
<text text-anchor="start" x="703.5" y="-145.8" font-family="arial" font-size="14.00" fill="#000000">2</text>
<polygon fill="none" stroke="#000000" points="592,-115 592,-138 629,-138 629,-115 592,-115"/>
<text text-anchor="start" x="606" y="-122.8" font-family="arial" font-size="14.00" fill="#000000">3</text>
<polygon fill="none" stroke="#000000" points="629,-115 629,-138 690,-138 690,-115 629,-115"/>
<text text-anchor="start" x="649.5" y="-122.8" font-family="arial" font-size="14.00" fill="#000000">DT</text>
<polygon fill="none" stroke="#000000" points="690,-115 690,-138 726,-138 726,-115 690,-115"/>
<text text-anchor="start" x="703.5" y="-122.8" font-family="arial" font-size="14.00" fill="#000000">3</text>
<polygon fill="none" stroke="#000000" points="592,-92 592,-115 629,-115 629,-92 592,-92"/>
<text text-anchor="start" x="606" y="-99.8" font-family="arial" font-size="14.00" fill="#000000">4</text>
<polygon fill="none" stroke="#000000" points="629,-92 629,-115 690,-115 690,-92 629,-92"/>
<text text-anchor="start" x="644" y="-99.8" font-family="arial" font-size="14.00" fill="#000000">SCK</text>
<polygon fill="none" stroke="#000000" points="690,-92 690,-115 726,-115 726,-92 690,-92"/>
<text text-anchor="start" x="703.5" y="-99.8" font-family="arial" font-size="14.00" fill="#000000">4</text>
<polygon fill="none" stroke="#000000" points="592,-69 592,-92 629,-92 629,-69 592,-69"/>
<text text-anchor="start" x="606" y="-76.8" font-family="arial" font-size="14.00" fill="#000000">5</text>
<polygon fill="none" stroke="#000000" points="629,-69 629,-92 690,-92 690,-69 629,-69"/>
<text text-anchor="start" x="650" y="-76.8" font-family="arial" font-size="14.00" fill="#000000">E+</text>
<polygon fill="none" stroke="#000000" points="690,-69 690,-92 726,-92 726,-69 690,-69"/>
<text text-anchor="start" x="703.5" y="-76.8" font-family="arial" font-size="14.00" fill="#000000">5</text>
<polygon fill="none" stroke="#000000" points="592,-46 592,-69 629,-69 629,-46 592,-46"/>
<text text-anchor="start" x="606" y="-53.8" font-family="arial" font-size="14.00" fill="#000000">6</text>
<polygon fill="none" stroke="#000000" points="629,-46 629,-69 690,-69 690,-46 629,-46"/>
<text text-anchor="start" x="652" y="-53.8" font-family="arial" font-size="14.00" fill="#000000">E&#45;</text>
<polygon fill="none" stroke="#000000" points="690,-46 690,-69 726,-69 726,-46 690,-46"/>
<text text-anchor="start" x="703.5" y="-53.8" font-family="arial" font-size="14.00" fill="#000000">6</text>
<polygon fill="none" stroke="#000000" points="592,-23 592,-46 629,-46 629,-23 592,-23"/>
<text text-anchor="start" x="606" y="-30.8" font-family="arial" font-size="14.00" fill="#000000">7</text>
<polygon fill="none" stroke="#000000" points="629,-23 629,-46 690,-46 690,-23 629,-23"/>
<text text-anchor="start" x="652" y="-30.8" font-family="arial" font-size="14.00" fill="#000000">A&#45;</text>
<polygon fill="none" stroke="#000000" points="690,-23 690,-46 726,-46 726,-23 690,-23"/>
<text text-anchor="start" x="703.5" y="-30.8" font-family="arial" font-size="14.00" fill="#000000">7</text>
<polygon fill="none" stroke="#000000" points="592,0 592,-23 629,-23 629,0 592,0"/>
<text text-anchor="start" x="606" y="-7.8" font-family="arial" font-size="14.00" fill="#000000">8</text>
<polygon fill="none" stroke="#000000" points="629,0 629,-23 690,-23 690,0 629,0"/>
<text text-anchor="start" x="650" y="-7.8" font-family="arial" font-size="14.00" fill="#000000">A+</text>
<polygon fill="none" stroke="#000000" points="690,0 690,-23 726,-23 726,0 690,0"/>
<text text-anchor="start" x="703.5" y="-7.8" font-family="arial" font-size="14.00" fill="#000000">8</text>
</g>
<!-- scale&#45;cable -->
<g id="node5" class="node">
<title>scale&#45;cable</title>
<polygon fill="none" stroke="#000000" points="1013,-194 870,-194 870,-10 1013,-10 1013,-194"/>
<polygon fill="none" stroke="#000000" points="870.5,-171 870.5,-194 1013.5,-194 1013.5,-171 870.5,-171"/>
<text text-anchor="start" x="904.5" y="-178.8" font-family="arial" font-size="14.00" fill="#000000">scale&#45;cable</text>
<polygon fill="none" stroke="#000000" points="870.5,-148 870.5,-171 1013.5,-171 1013.5,-148 870.5,-148"/>
<text text-anchor="start" x="934" y="-155.8" font-family="arial" font-size="14.00" fill="#000000">4x</text>
<text text-anchor="start" x="899" y="-134.8" font-family="arial" font-size="14.00" fill="#000000"> </text>
<text text-anchor="start" x="872.5" y="-115.8" font-family="arial" font-size="14.00" fill="#000000">HX711:3</text>
<text text-anchor="start" x="933.5" y="-115.8" font-family="arial" font-size="14.00" fill="#000000">WH</text>
<text text-anchor="start" x="962.5" y="-115.8" font-family="arial" font-size="14.00" fill="#000000">Scale:1</text>
<polygon fill="#000000" stroke="transparent" points="870.5,-108 870.5,-110 1013.5,-110 1013.5,-108 870.5,-108"/>
<polygon fill="#ffffff" stroke="transparent" points="870.5,-106 870.5,-108 1013.5,-108 1013.5,-106 870.5,-106"/>
<polygon fill="#000000" stroke="transparent" points="870.5,-104 870.5,-106 1013.5,-106 1013.5,-104 870.5,-104"/>
<text text-anchor="start" x="872.5" y="-90.8" font-family="arial" font-size="14.00" fill="#000000">HX711:4</text>
<text text-anchor="start" x="935.5" y="-90.8" font-family="arial" font-size="14.00" fill="#000000">BN</text>
<text text-anchor="start" x="962.5" y="-90.8" font-family="arial" font-size="14.00" fill="#000000">Scale:2</text>
<polygon fill="#000000" stroke="transparent" points="870.5,-83 870.5,-85 1013.5,-85 1013.5,-83 870.5,-83"/>
<polygon fill="#895956" stroke="transparent" points="870.5,-81 870.5,-83 1013.5,-83 1013.5,-81 870.5,-81"/>
<polygon fill="#000000" stroke="transparent" points="870.5,-79 870.5,-81 1013.5,-81 1013.5,-79 870.5,-79"/>
<text text-anchor="start" x="872.5" y="-65.8" font-family="arial" font-size="14.00" fill="#000000">HX711:7</text>
<text text-anchor="start" x="935" y="-65.8" font-family="arial" font-size="14.00" fill="#000000">GN</text>
<text text-anchor="start" x="962.5" y="-65.8" font-family="arial" font-size="14.00" fill="#000000">Scale:3</text>
<polygon fill="#000000" stroke="transparent" points="870.5,-58 870.5,-60 1013.5,-60 1013.5,-58 870.5,-58"/>
<polygon fill="#00ff00" stroke="transparent" points="870.5,-56 870.5,-58 1013.5,-58 1013.5,-56 870.5,-56"/>
<polygon fill="#000000" stroke="transparent" points="870.5,-54 870.5,-56 1013.5,-56 1013.5,-54 870.5,-54"/>
<text text-anchor="start" x="872.5" y="-40.8" font-family="arial" font-size="14.00" fill="#000000">HX711:8</text>
<text text-anchor="start" x="936" y="-40.8" font-family="arial" font-size="14.00" fill="#000000">YE</text>
<text text-anchor="start" x="962.5" y="-40.8" font-family="arial" font-size="14.00" fill="#000000">Scale:4</text>
<polygon fill="#000000" stroke="transparent" points="870.5,-33 870.5,-35 1013.5,-35 1013.5,-33 870.5,-33"/>
<polygon fill="#ffff00" stroke="transparent" points="870.5,-31 870.5,-33 1013.5,-33 1013.5,-31 870.5,-31"/>
<polygon fill="#000000" stroke="transparent" points="870.5,-29 870.5,-31 1013.5,-31 1013.5,-29 870.5,-29"/>
<text text-anchor="start" x="899" y="-15.8" font-family="arial" font-size="14.00" fill="#000000"> </text>
</g>
<!-- HX711&#45;&#45;scale&#45;cable -->
<g id="edge9" class="edge">
<title>HX711:e&#45;&#45;scale&#45;cable:w</title>
<path fill="none" stroke="#000000" stroke-width="2" d="M726,-125C789.228,-125.8087 804.0591,-105.8087 870.5,-105"/>
<path fill="none" stroke="#ffffff" stroke-width="2" d="M726,-127C790.8345,-127 805.6655,-107 870.5,-107"/>
<path fill="none" stroke="#000000" stroke-width="2" d="M726,-129C792.4409,-128.1913 807.272,-108.1913 870.5,-109"/>
</g>
<!-- HX711&#45;&#45;scale&#45;cable -->
<g id="edge11" class="edge">
<title>HX711:e&#45;&#45;scale&#45;cable:w</title>
<path fill="none" stroke="#000000" stroke-width="2" d="M726,-101C789.2586,-101.8527 803.9649,-80.8527 870.5,-80"/>
<path fill="none" stroke="#895956" stroke-width="2" d="M726,-103C790.8969,-103 805.6031,-82 870.5,-82"/>
<path fill="none" stroke="#000000" stroke-width="2" d="M726,-105C792.5351,-104.1473 807.2414,-83.1473 870.5,-84"/>
</g>
<!-- HX711&#45;&#45;scale&#45;cable -->
<g id="edge13" class="edge">
<title>HX711:e&#45;&#45;scale&#45;cable:w</title>
<path fill="none" stroke="#000000" stroke-width="2" d="M726,-32C792.7246,-32.9366 807.1632,-55.9366 870.5,-55"/>
<path fill="none" stroke="#00ff00" stroke-width="2" d="M726,-34C791.0307,-34 805.4693,-57 870.5,-57"/>
<path fill="none" stroke="#000000" stroke-width="2" d="M726,-36C789.3368,-35.0634 803.7754,-58.0634 870.5,-59"/>
</g>
<!-- HX711&#45;&#45;scale&#45;cable -->
<g id="edge15" class="edge">
<title>HX711:e&#45;&#45;scale&#45;cable:w</title>
<path fill="none" stroke="#000000" stroke-width="2" d="M726,-9C792.5351,-9.8527 807.2414,-30.8527 870.5,-30"/>
<path fill="none" stroke="#ffff00" stroke-width="2" d="M726,-11C790.8969,-11 805.6031,-32 870.5,-32"/>
<path fill="none" stroke="#000000" stroke-width="2" d="M726,-13C789.2586,-12.1473 803.9649,-33.1473 870.5,-34"/>
</g>
<!-- Scale -->
<g id="node3" class="node">
<title>Scale</title>
<polygon fill="#ffffff" stroke="transparent" points="1287,-185 1157,-185 1157,-1 1287,-1 1287,-185"/>
<polygon fill="none" stroke="#000000" points="1157,-162 1157,-185 1287,-185 1287,-162 1157,-162"/>
<text text-anchor="start" x="1203.5" y="-169.8" font-family="arial" font-size="14.00" fill="#000000">Scale</text>
<polygon fill="none" stroke="#000000" points="1157,-139 1157,-162 1287,-162 1287,-139 1157,-139"/>
<text text-anchor="start" x="1197" y="-146.8" font-family="arial" font-size="14.00" fill="#000000">Bosche</text>
<polygon fill="none" stroke="#000000" points="1157,-116 1157,-139 1202,-139 1202,-116 1157,-116"/>
<text text-anchor="start" x="1161" y="-123.8" font-family="arial" font-size="14.00" fill="#000000">Scale</text>
<polygon fill="none" stroke="#000000" points="1202,-116 1202,-139 1246,-139 1246,-116 1202,-116"/>
<text text-anchor="start" x="1206" y="-123.8" font-family="arial" font-size="14.00" fill="#000000">cable</text>
<polygon fill="none" stroke="#000000" points="1246,-116 1246,-139 1287,-139 1287,-116 1246,-116"/>
<text text-anchor="start" x="1250" y="-123.8" font-family="arial" font-size="14.00" fill="#000000">5&#45;pin</text>
<polygon fill="none" stroke="#000000" points="1157,-93 1157,-116 1206,-116 1206,-93 1157,-93"/>
<text text-anchor="start" x="1177" y="-100.8" font-family="arial" font-size="14.00" fill="#000000">1</text>
<polygon fill="none" stroke="#000000" points="1206,-93 1206,-116 1287,-116 1287,-93 1206,-93"/>
<text text-anchor="start" x="1231.5" y="-100.8" font-family="arial" font-size="14.00" fill="#000000">Blue</text>
<polygon fill="none" stroke="#000000" points="1157,-70 1157,-93 1206,-93 1206,-70 1157,-70"/>
<text text-anchor="start" x="1177" y="-77.8" font-family="arial" font-size="14.00" fill="#000000">2</text>
<polygon fill="none" stroke="#000000" points="1206,-70 1206,-93 1287,-93 1287,-70 1206,-70"/>
<text text-anchor="start" x="1226" y="-77.8" font-family="arial" font-size="14.00" fill="#000000">Green</text>
<polygon fill="none" stroke="#000000" points="1157,-47 1157,-70 1206,-70 1206,-47 1157,-47"/>
<text text-anchor="start" x="1177" y="-54.8" font-family="arial" font-size="14.00" fill="#000000">3</text>
<polygon fill="none" stroke="#000000" points="1206,-47 1206,-70 1287,-70 1287,-47 1206,-47"/>
<text text-anchor="start" x="1225.5" y="-54.8" font-family="arial" font-size="14.00" fill="#000000">Yellow</text>
<polygon fill="none" stroke="#000000" points="1157,-24 1157,-47 1206,-47 1206,-24 1157,-24"/>
<text text-anchor="start" x="1177" y="-31.8" font-family="arial" font-size="14.00" fill="#000000">4</text>
<polygon fill="none" stroke="#000000" points="1206,-24 1206,-47 1287,-47 1287,-24 1206,-24"/>
<text text-anchor="start" x="1232.5" y="-31.8" font-family="arial" font-size="14.00" fill="#000000">Red</text>
<polygon fill="none" stroke="#000000" points="1157,-1 1157,-24 1206,-24 1206,-1 1157,-1"/>
<text text-anchor="start" x="1177" y="-8.8" font-family="arial" font-size="14.00" fill="#000000">5</text>
<polygon fill="none" stroke="#000000" points="1206,-1 1206,-24 1287,-24 1287,-1 1206,-1"/>
<text text-anchor="start" x="1226" y="-8.8" font-family="arial" font-size="14.00" fill="#000000">Shield</text>
</g>
<!-- hx&#45;cable&#45;&#45;HX711 -->
<g id="edge2" class="edge">
<title>hx&#45;cable:e&#45;&#45;HX711:w</title>
<path fill="none" stroke="#000000" stroke-width="2" d="M448,-174C511.6447,-174.0344 527.6169,-171.0344 592,-171"/>
<path fill="none" stroke="#ffffff" stroke-width="2" d="M448,-176C512.0139,-176 527.9861,-173 592,-173"/>
<path fill="none" stroke="#000000" stroke-width="2" d="M448,-178C512.3831,-177.9656 528.3553,-174.9656 592,-175"/>
</g>
<!-- hx&#45;cable&#45;&#45;HX711 -->
<g id="edge4" class="edge">
<title>hx&#45;cable:e&#45;&#45;HX711:w</title>
<path fill="none" stroke="#000000" stroke-width="2" d="M448,-149C511.8768,-149.0039 527.8737,-148.0039 592,-148"/>
<path fill="none" stroke="#895956" stroke-width="2" d="M448,-151C512.0015,-151 527.9985,-150 592,-150"/>
<path fill="none" stroke="#000000" stroke-width="2" d="M448,-153C512.1263,-152.9961 528.1232,-151.9961 592,-152"/>
</g>
<!-- hx&#45;cable&#45;&#45;HX711 -->
<g id="edge6" class="edge">
<title>hx&#45;cable:e&#45;&#45;HX711:w</title>
<path fill="none" stroke="#000000" stroke-width="2" d="M448,-124C512.1263,-124.0039 528.1232,-125.0039 592,-125"/>
<path fill="none" stroke="#00ff00" stroke-width="2" d="M448,-126C512.0015,-126 527.9985,-127 592,-127"/>
<path fill="none" stroke="#000000" stroke-width="2" d="M448,-128C511.8768,-127.9961 527.8737,-128.9961 592,-129"/>
</g>
<!-- hx&#45;cable&#45;&#45;HX711 -->
<g id="edge8" class="edge">
<title>hx&#45;cable:e&#45;&#45;HX711:w</title>
<path fill="none" stroke="#000000" stroke-width="2" d="M448,-99C512.2544,-99.0155 528.2421,-101.0155 592,-101"/>
<path fill="none" stroke="#ffff00" stroke-width="2" d="M448,-101C512.0062,-101 527.9938,-103 592,-103"/>
<path fill="none" stroke="#000000" stroke-width="2" d="M448,-103C511.7579,-102.9845 527.7456,-104.9845 592,-105"/>
</g>
<!-- scale&#45;cable&#45;&#45;Scale -->
<g id="edge10" class="edge">
<title>scale&#45;cable:e&#45;&#45;Scale:w</title>
<path fill="none" stroke="#000000" stroke-width="2" d="M1013,-105C1076.7579,-105.0155 1092.7456,-103.0155 1157,-103"/>
<path fill="none" stroke="#ffffff" stroke-width="2" d="M1013,-107C1077.0062,-107 1092.9938,-105 1157,-105"/>
<path fill="none" stroke="#000000" stroke-width="2" d="M1013,-109C1077.2544,-108.9845 1093.2421,-106.9845 1157,-107"/>
</g>
<!-- scale&#45;cable&#45;&#45;Scale -->
<g id="edge12" class="edge">
<title>scale&#45;cable:e&#45;&#45;Scale:w</title>
<path fill="none" stroke="#000000" stroke-width="2" d="M1013,-80C1076.8768,-80.0039 1092.8737,-79.0039 1157,-79"/>
<path fill="none" stroke="#895956" stroke-width="2" d="M1013,-82C1077.0015,-82 1092.9985,-81 1157,-81"/>
<path fill="none" stroke="#000000" stroke-width="2" d="M1013,-84C1077.1263,-83.9961 1093.1232,-82.9961 1157,-83"/>
</g>
<!-- scale&#45;cable&#45;&#45;Scale -->
<g id="edge14" class="edge">
<title>scale&#45;cable:e&#45;&#45;Scale:w</title>
<path fill="none" stroke="#000000" stroke-width="2" d="M1013,-55C1077.1263,-55.0039 1093.1232,-56.0039 1157,-56"/>
<path fill="none" stroke="#00ff00" stroke-width="2" d="M1013,-57C1077.0015,-57 1092.9985,-58 1157,-58"/>
<path fill="none" stroke="#000000" stroke-width="2" d="M1013,-59C1076.8768,-58.9961 1092.8737,-59.9961 1157,-60"/>
</g>
<!-- scale&#45;cable&#45;&#45;Scale -->
<g id="edge16" class="edge">
<title>scale&#45;cable:e&#45;&#45;Scale:w</title>
<path fill="none" stroke="#000000" stroke-width="2" d="M1013,-30C1077.3831,-30.0344 1093.3553,-33.0344 1157,-33"/>
<path fill="none" stroke="#ffff00" stroke-width="2" d="M1013,-32C1077.0139,-32 1092.9861,-35 1157,-35"/>
<path fill="none" stroke="#000000" stroke-width="2" d="M1013,-34C1076.6447,-33.9656 1092.6169,-36.9656 1157,-37"/>
</g>
</g>
</svg>
