<?xml version="1.0" encoding="UTF-8" standalone="no"?>
<!DOCTYPE svg PUBLIC "-//W3C//DTD SVG 1.1//EN"
 "http://www.w3.org/Graphics/SVG/1.1/DTD/svg11.dtd">
<!-- Generated by graphviz version 2.43.0 (0)
 -->
<!-- Title: %3 Pages: 1 -->
<svg width="1864pt" height="774pt"
 viewBox="0.00 0.00 1864.00 773.50" xmlns="http://www.w3.org/2000/svg" xmlns:xlink="http://www.w3.org/1999/xlink">
<g id="graph0" class="graph" transform="scale(1 1) rotate(0) translate(4 769.5)">
<title>%3</title>
<polygon fill="white" stroke="transparent" points="-4,4 -4,-769.5 1860,-769.5 1860,4 -4,4"/>
<!-- RPi -->
<g id="node1" class="node">
<title>RPi</title>
<polygon fill="white" stroke="transparent" points="775,-711 609,-711 609,0 775,0 775,-711"/>
<polygon fill="none" stroke="black" points="609,-687.5 609,-710.5 775,-710.5 775,-687.5 609,-687.5"/>
<text text-anchor="start" x="681" y="-695.3" font-family="arial" font-size="14.00">RPi</text>
<polygon fill="none" stroke="black" points="609,-664.5 609,-687.5 775,-687.5 775,-664.5 609,-664.5"/>
<text text-anchor="start" x="652.5" y="-672.3" font-family="arial" font-size="14.00">Raspberry Pi</text>
<polygon fill="none" stroke="black" points="609,-641.5 609,-664.5 690,-664.5 690,-641.5 609,-641.5"/>
<text text-anchor="start" x="613" y="-649.3" font-family="arial" font-size="14.00">Zero or 3B+</text>
<polygon fill="none" stroke="black" points="690,-641.5 690,-664.5 729,-664.5 729,-641.5 690,-641.5"/>
<text text-anchor="start" x="694" y="-649.3" font-family="arial" font-size="14.00">male</text>
<polygon fill="none" stroke="black" points="729,-641.5 729,-664.5 775,-664.5 775,-641.5 729,-641.5"/>
<text text-anchor="start" x="733" y="-649.3" font-family="arial" font-size="14.00">40&#45;pin</text>
<polygon fill="none" stroke="black" points="609,-618.5 609,-641.5 650,-641.5 650,-618.5 609,-618.5"/>
<text text-anchor="start" x="625.5" y="-626.3" font-family="arial" font-size="14.00">1</text>
<polygon fill="none" stroke="black" points="650,-618.5 650,-641.5 734,-641.5 734,-618.5 650,-618.5"/>
<text text-anchor="start" x="679.5" y="-626.3" font-family="arial" font-size="14.00">3V3</text>
<polygon fill="none" stroke="black" points="734,-618.5 734,-641.5 775,-641.5 775,-618.5 734,-618.5"/>
<text text-anchor="start" x="750.5" y="-626.3" font-family="arial" font-size="14.00">1</text>
<polygon fill="none" stroke="black" points="609,-595.5 609,-618.5 650,-618.5 650,-595.5 609,-595.5"/>
<text text-anchor="start" x="625.5" y="-603.3" font-family="arial" font-size="14.00">2</text>
<polygon fill="none" stroke="black" points="650,-595.5 650,-618.5 734,-618.5 734,-595.5 650,-595.5"/>
<text text-anchor="start" x="679.5" y="-603.3" font-family="arial" font-size="14.00">3V3</text>
<polygon fill="none" stroke="black" points="734,-595.5 734,-618.5 775,-618.5 775,-595.5 734,-595.5"/>
<text text-anchor="start" x="750.5" y="-603.3" font-family="arial" font-size="14.00">2</text>
<polygon fill="none" stroke="black" points="609,-572.5 609,-595.5 650,-595.5 650,-572.5 609,-572.5"/>
<text text-anchor="start" x="625.5" y="-580.3" font-family="arial" font-size="14.00">3</text>
<polygon fill="none" stroke="black" points="650,-572.5 650,-595.5 734,-595.5 734,-572.5 650,-572.5"/>
<text text-anchor="start" x="683.5" y="-580.3" font-family="arial" font-size="14.00">5V</text>
<polygon fill="none" stroke="black" points="734,-572.5 734,-595.5 775,-595.5 775,-572.5 734,-572.5"/>
<text text-anchor="start" x="750.5" y="-580.3" font-family="arial" font-size="14.00">3</text>
<polygon fill="none" stroke="black" points="609,-549.5 609,-572.5 650,-572.5 650,-549.5 609,-549.5"/>
<text text-anchor="start" x="625.5" y="-557.3" font-family="arial" font-size="14.00">4</text>
<polygon fill="none" stroke="black" points="650,-549.5 650,-572.5 734,-572.5 734,-549.5 650,-549.5"/>
<text text-anchor="start" x="676.5" y="-557.3" font-family="arial" font-size="14.00">GND</text>
<polygon fill="none" stroke="black" points="734,-549.5 734,-572.5 775,-572.5 775,-549.5 734,-549.5"/>
<text text-anchor="start" x="750.5" y="-557.3" font-family="arial" font-size="14.00">4</text>
<polygon fill="none" stroke="black" points="609,-526.5 609,-549.5 650,-549.5 650,-526.5 609,-526.5"/>
<text text-anchor="start" x="625.5" y="-534.3" font-family="arial" font-size="14.00">5</text>
<polygon fill="none" stroke="black" points="650,-526.5 650,-549.5 734,-549.5 734,-526.5 650,-526.5"/>
<text text-anchor="start" x="676.5" y="-534.3" font-family="arial" font-size="14.00">GND</text>
<polygon fill="none" stroke="black" points="734,-526.5 734,-549.5 775,-549.5 775,-526.5 734,-526.5"/>
<text text-anchor="start" x="750.5" y="-534.3" font-family="arial" font-size="14.00">5</text>
<polygon fill="none" stroke="black" points="609,-503.5 609,-526.5 650,-526.5 650,-503.5 609,-503.5"/>
<text text-anchor="start" x="625.5" y="-511.3" font-family="arial" font-size="14.00">6</text>
<polygon fill="none" stroke="black" points="650,-503.5 650,-526.5 734,-526.5 734,-503.5 650,-503.5"/>
<text text-anchor="start" x="666.5" y="-511.3" font-family="arial" font-size="14.00">GPIO27</text>
<polygon fill="none" stroke="black" points="734,-503.5 734,-526.5 775,-526.5 775,-503.5 734,-503.5"/>
<text text-anchor="start" x="750.5" y="-511.3" font-family="arial" font-size="14.00">6</text>
<polygon fill="none" stroke="black" points="609,-480.5 609,-503.5 650,-503.5 650,-480.5 609,-480.5"/>
<text text-anchor="start" x="625.5" y="-488.3" font-family="arial" font-size="14.00">7</text>
<polygon fill="none" stroke="black" points="650,-480.5 650,-503.5 734,-503.5 734,-480.5 650,-480.5"/>
<text text-anchor="start" x="666.5" y="-488.3" font-family="arial" font-size="14.00">GPIO22</text>
<polygon fill="none" stroke="black" points="734,-480.5 734,-503.5 775,-503.5 775,-480.5 734,-480.5"/>
<text text-anchor="start" x="750.5" y="-488.3" font-family="arial" font-size="14.00">7</text>
<polygon fill="none" stroke="black" points="609,-457.5 609,-480.5 650,-480.5 650,-457.5 609,-457.5"/>
<text text-anchor="start" x="625.5" y="-465.3" font-family="arial" font-size="14.00">8</text>
<polygon fill="none" stroke="black" points="650,-457.5 650,-480.5 734,-480.5 734,-457.5 650,-457.5"/>
<text text-anchor="start" x="666.5" y="-465.3" font-family="arial" font-size="14.00">GPIO17</text>
<polygon fill="none" stroke="black" points="734,-457.5 734,-480.5 775,-480.5 775,-457.5 734,-457.5"/>
<text text-anchor="start" x="750.5" y="-465.3" font-family="arial" font-size="14.00">8</text>
<polygon fill="none" stroke="black" points="609,0.5 609,-457.5 775,-457.5 775,0.5 609,0.5"/>
<image xlink:href="gpios.png" width="146px" height="438px" preserveAspectRatio="xMinYMin meet" x="619" y="-447.5"/>
</g>
<!-- hx&#45;cable -->
<g id="node6" class="node">
<title>hx&#45;cable</title>
<polygon fill="none" stroke="black" points="1041,-664.5 919,-664.5 919,-480.5 1041,-480.5 1041,-664.5"/>
<polygon fill="none" stroke="black" points="919,-641.5 919,-664.5 1041,-664.5 1041,-641.5 919,-641.5"/>
<text text-anchor="start" x="954" y="-649.3" font-family="arial" font-size="14.00">hx&#45;cable</text>
<polygon fill="none" stroke="black" points="919,-618.5 919,-641.5 1041,-641.5 1041,-618.5 919,-618.5"/>
<text text-anchor="start" x="972.5" y="-626.3" font-family="arial" font-size="14.00">4x</text>
<text text-anchor="start" x="936" y="-605.3" font-family="arial" font-size="14.00"> </text>
<text text-anchor="start" x="921" y="-586.3" font-family="arial" font-size="14.00">RPi:1</text>
<text text-anchor="start" x="959" y="-586.3" font-family="arial" font-size="14.00">WH</text>
<text text-anchor="start" x="987" y="-586.3" font-family="arial" font-size="14.00">HX711:1</text>
<polygon fill="#000000" stroke="transparent" points="919,-578.5 919,-580.5 1041,-580.5 1041,-578.5 919,-578.5"/>
<polygon fill="#ffffff" stroke="transparent" points="919,-576.5 919,-578.5 1041,-578.5 1041,-576.5 919,-576.5"/>
<polygon fill="#000000" stroke="transparent" points="919,-574.5 919,-576.5 1041,-576.5 1041,-574.5 919,-574.5"/>
<text text-anchor="start" x="921" y="-561.3" font-family="arial" font-size="14.00">RPi:4</text>
<text text-anchor="start" x="961.5" y="-561.3" font-family="arial" font-size="14.00">BN</text>
<text text-anchor="start" x="987" y="-561.3" font-family="arial" font-size="14.00">HX711:2</text>
<polygon fill="#000000" stroke="transparent" points="919,-553.5 919,-555.5 1041,-555.5 1041,-553.5 919,-553.5"/>
<polygon fill="#895956" stroke="transparent" points="919,-551.5 919,-553.5 1041,-553.5 1041,-551.5 919,-551.5"/>
<polygon fill="#000000" stroke="transparent" points="919,-549.5 919,-551.5 1041,-551.5 1041,-549.5 919,-549.5"/>
<text text-anchor="start" x="921" y="-536.3" font-family="arial" font-size="14.00">RPi:6</text>
<text text-anchor="start" x="960" y="-536.3" font-family="arial" font-size="14.00">GN</text>
<text text-anchor="start" x="987" y="-536.3" font-family="arial" font-size="14.00">HX711:3</text>
<polygon fill="#000000" stroke="transparent" points="919,-528.5 919,-530.5 1041,-530.5 1041,-528.5 919,-528.5"/>
<polygon fill="#00ff00" stroke="transparent" points="919,-526.5 919,-528.5 1041,-528.5 1041,-526.5 919,-526.5"/>
<polygon fill="#000000" stroke="transparent" points="919,-524.5 919,-526.5 1041,-526.5 1041,-524.5 919,-524.5"/>
<text text-anchor="start" x="921" y="-511.3" font-family="arial" font-size="14.00">RPi:7</text>
<text text-anchor="start" x="961.5" y="-511.3" font-family="arial" font-size="14.00">YE</text>
<text text-anchor="start" x="987" y="-511.3" font-family="arial" font-size="14.00">HX711:4</text>
<polygon fill="#000000" stroke="transparent" points="919,-503.5 919,-505.5 1041,-505.5 1041,-503.5 919,-503.5"/>
<polygon fill="#ffff00" stroke="transparent" points="919,-501.5 919,-503.5 1041,-503.5 1041,-501.5 919,-501.5"/>
<polygon fill="#000000" stroke="transparent" points="919,-499.5 919,-501.5 1041,-501.5 1041,-499.5 919,-499.5"/>
<text text-anchor="start" x="936" y="-486.3" font-family="arial" font-size="14.00"> </text>
</g>
<!-- RPi&#45;&#45;hx&#45;cable -->
<g id="edge1" class="edge">
<title>RPi:e&#45;&#45;hx&#45;cable:w</title>
<path fill="none" stroke="#000000" stroke-width="2" d="M775,-628.5C841.22,-630.22 848.82,-577.22 919,-575.5"/>
<path fill="none" stroke="#ffffff" stroke-width="2" d="M775,-630.5C843.2,-630.5 850.8,-577.5 919,-577.5"/>
<path fill="none" stroke="#000000" stroke-width="2" d="M775,-632.5C845.18,-630.78 852.78,-577.78 919,-579.5"/>
</g>
<!-- RPi&#45;&#45;hx&#45;cable -->
<g id="edge3" class="edge">
<title>RPi:e&#45;&#45;hx&#45;cable:w</title>
<path fill="none" stroke="#000000" stroke-width="2" d="M775,-559.5C838.13,-559.76 853.88,-550.76 919,-550.5"/>
<path fill="none" stroke="#895956" stroke-width="2" d="M775,-561.5C839.12,-561.5 854.88,-552.5 919,-552.5"/>
<path fill="none" stroke="#000000" stroke-width="2" d="M775,-563.5C840.12,-563.24 855.87,-554.24 919,-554.5"/>
</g>
<!-- RPi&#45;&#45;hx&#45;cable -->
<g id="edge5" class="edge">
<title>RPi:e&#45;&#45;hx&#45;cable:w</title>
<path fill="none" stroke="#000000" stroke-width="2" d="M775,-513.5C840.44,-513.92 856,-525.92 919,-525.5"/>
<path fill="none" stroke="#00ff00" stroke-width="2" d="M775,-515.5C839.22,-515.5 854.78,-527.5 919,-527.5"/>
<path fill="none" stroke="#000000" stroke-width="2" d="M775,-517.5C838,-517.08 853.56,-529.08 919,-529.5"/>
</g>
<!-- RPi&#45;&#45;hx&#45;cable -->
<g id="edge7" class="edge">
<title>RPi:e&#45;&#45;hx&#45;cable:w</title>
<path fill="none" stroke="#000000" stroke-width="2" d="M775,-490.5C840.23,-490.81 855.92,-500.81 919,-500.5"/>
<path fill="none" stroke="#ffff00" stroke-width="2" d="M775,-492.5C839.15,-492.5 854.85,-502.5 919,-502.5"/>
<path fill="none" stroke="#000000" stroke-width="2" d="M775,-494.5C838.08,-494.19 853.77,-504.19 919,-504.5"/>
</g>
<!-- HX711 -->
<g id="node2" class="node">
<title>HX711</title>
<polygon fill="white" stroke="transparent" points="1312,-631.5 1185,-631.5 1185,-401.5 1312,-401.5 1312,-631.5"/>
<polygon fill="none" stroke="black" points="1185.5,-608.5 1185.5,-631.5 1312.5,-631.5 1312.5,-608.5 1185.5,-608.5"/>
<text text-anchor="start" x="1228.5" y="-616.3" font-family="arial" font-size="14.00">HX711</text>
<polygon fill="none" stroke="black" points="1185.5,-585.5 1185.5,-608.5 1234.5,-608.5 1234.5,-585.5 1185.5,-585.5"/>
<text text-anchor="start" x="1189.5" y="-593.3" font-family="arial" font-size="14.00">HX711</text>
<polygon fill="none" stroke="black" points="1234.5,-585.5 1234.5,-608.5 1273.5,-608.5 1273.5,-585.5 1234.5,-585.5"/>
<text text-anchor="start" x="1238.5" y="-593.3" font-family="arial" font-size="14.00">male</text>
<polygon fill="none" stroke="black" points="1273.5,-585.5 1273.5,-608.5 1312.5,-608.5 1312.5,-585.5 1273.5,-585.5"/>
<text text-anchor="start" x="1277.5" y="-593.3" font-family="arial" font-size="14.00">8&#45;pin</text>
<polygon fill="none" stroke="black" points="1185.5,-562.5 1185.5,-585.5 1220.5,-585.5 1220.5,-562.5 1185.5,-562.5"/>
<text text-anchor="start" x="1199" y="-570.3" font-family="arial" font-size="14.00">1</text>
<polygon fill="none" stroke="black" points="1220.5,-562.5 1220.5,-585.5 1278.5,-585.5 1278.5,-562.5 1220.5,-562.5"/>
<text text-anchor="start" x="1235" y="-570.3" font-family="arial" font-size="14.00">VCC</text>
<polygon fill="none" stroke="black" points="1278.5,-562.5 1278.5,-585.5 1312.5,-585.5 1312.5,-562.5 1278.5,-562.5"/>
<text text-anchor="start" x="1291.5" y="-570.3" font-family="arial" font-size="14.00">1</text>
<polygon fill="none" stroke="black" points="1185.5,-539.5 1185.5,-562.5 1220.5,-562.5 1220.5,-539.5 1185.5,-539.5"/>
<text text-anchor="start" x="1199" y="-547.3" font-family="arial" font-size="14.00">2</text>
<polygon fill="none" stroke="black" points="1220.5,-539.5 1220.5,-562.5 1278.5,-562.5 1278.5,-539.5 1220.5,-539.5"/>
<text text-anchor="start" x="1234" y="-547.3" font-family="arial" font-size="14.00">GND</text>
<polygon fill="none" stroke="black" points="1278.5,-539.5 1278.5,-562.5 1312.5,-562.5 1312.5,-539.5 1278.5,-539.5"/>
<text text-anchor="start" x="1291.5" y="-547.3" font-family="arial" font-size="14.00">2</text>
<polygon fill="none" stroke="black" points="1185.5,-516.5 1185.5,-539.5 1220.5,-539.5 1220.5,-516.5 1185.5,-516.5"/>
<text text-anchor="start" x="1199" y="-524.3" font-family="arial" font-size="14.00">3</text>
<polygon fill="none" stroke="black" points="1220.5,-516.5 1220.5,-539.5 1278.5,-539.5 1278.5,-516.5 1220.5,-516.5"/>
<text text-anchor="start" x="1240" y="-524.3" font-family="arial" font-size="14.00">DT</text>
<polygon fill="none" stroke="black" points="1278.5,-516.5 1278.5,-539.5 1312.5,-539.5 1312.5,-516.5 1278.5,-516.5"/>
<text text-anchor="start" x="1291.5" y="-524.3" font-family="arial" font-size="14.00">3</text>
<polygon fill="none" stroke="black" points="1185.5,-493.5 1185.5,-516.5 1220.5,-516.5 1220.5,-493.5 1185.5,-493.5"/>
<text text-anchor="start" x="1199" y="-501.3" font-family="arial" font-size="14.00">4</text>
<polygon fill="none" stroke="black" points="1220.5,-493.5 1220.5,-516.5 1278.5,-516.5 1278.5,-493.5 1220.5,-493.5"/>
<text text-anchor="start" x="1235.5" y="-501.3" font-family="arial" font-size="14.00">SCK</text>
<polygon fill="none" stroke="black" points="1278.5,-493.5 1278.5,-516.5 1312.5,-516.5 1312.5,-493.5 1278.5,-493.5"/>
<text text-anchor="start" x="1291.5" y="-501.3" font-family="arial" font-size="14.00">4</text>
<polygon fill="none" stroke="black" points="1185.5,-470.5 1185.5,-493.5 1220.5,-493.5 1220.5,-470.5 1185.5,-470.5"/>
<text text-anchor="start" x="1199" y="-478.3" font-family="arial" font-size="14.00">5</text>
<polygon fill="none" stroke="black" points="1220.5,-470.5 1220.5,-493.5 1278.5,-493.5 1278.5,-470.5 1220.5,-470.5"/>
<text text-anchor="start" x="1240.5" y="-478.3" font-family="arial" font-size="14.00">E+</text>
<polygon fill="none" stroke="black" points="1278.5,-470.5 1278.5,-493.5 1312.5,-493.5 1312.5,-470.5 1278.5,-470.5"/>
<text text-anchor="start" x="1291.5" y="-478.3" font-family="arial" font-size="14.00">5</text>
<polygon fill="none" stroke="black" points="1185.5,-447.5 1185.5,-470.5 1220.5,-470.5 1220.5,-447.5 1185.5,-447.5"/>
<text text-anchor="start" x="1199" y="-455.3" font-family="arial" font-size="14.00">6</text>
<polygon fill="none" stroke="black" points="1220.5,-447.5 1220.5,-470.5 1278.5,-470.5 1278.5,-447.5 1220.5,-447.5"/>
<text text-anchor="start" x="1242.5" y="-455.3" font-family="arial" font-size="14.00">E&#45;</text>
<polygon fill="none" stroke="black" points="1278.5,-447.5 1278.5,-470.5 1312.5,-470.5 1312.5,-447.5 1278.5,-447.5"/>
<text text-anchor="start" x="1291.5" y="-455.3" font-family="arial" font-size="14.00">6</text>
<polygon fill="none" stroke="black" points="1185.5,-424.5 1185.5,-447.5 1220.5,-447.5 1220.5,-424.5 1185.5,-424.5"/>
<text text-anchor="start" x="1199" y="-432.3" font-family="arial" font-size="14.00">7</text>
<polygon fill="none" stroke="black" points="1220.5,-424.5 1220.5,-447.5 1278.5,-447.5 1278.5,-424.5 1220.5,-424.5"/>
<text text-anchor="start" x="1240.5" y="-432.3" font-family="arial" font-size="14.00">A+</text>
<polygon fill="none" stroke="black" points="1278.5,-424.5 1278.5,-447.5 1312.5,-447.5 1312.5,-424.5 1278.5,-424.5"/>
<text text-anchor="start" x="1291.5" y="-432.3" font-family="arial" font-size="14.00">7</text>
<polygon fill="none" stroke="black" points="1185.5,-401.5 1185.5,-424.5 1220.5,-424.5 1220.5,-401.5 1185.5,-401.5"/>
<text text-anchor="start" x="1199" y="-409.3" font-family="arial" font-size="14.00">8</text>
<polygon fill="none" stroke="black" points="1220.5,-401.5 1220.5,-424.5 1278.5,-424.5 1278.5,-401.5 1220.5,-401.5"/>
<text text-anchor="start" x="1242.5" y="-409.3" font-family="arial" font-size="14.00">A&#45;</text>
<polygon fill="none" stroke="black" points="1278.5,-401.5 1278.5,-424.5 1312.5,-424.5 1312.5,-401.5 1278.5,-401.5"/>
<text text-anchor="start" x="1291.5" y="-409.3" font-family="arial" font-size="14.00">8</text>
</g>
<!-- scale&#45;cable -->
<g id="node8" class="node">
<title>scale&#45;cable</title>
<polygon fill="none" stroke="black" points="1590,-571.5 1456,-571.5 1456,-387.5 1590,-387.5 1590,-571.5"/>
<polygon fill="none" stroke="black" points="1456,-548.5 1456,-571.5 1590,-571.5 1590,-548.5 1456,-548.5"/>
<text text-anchor="start" x="1488.5" y="-556.3" font-family="arial" font-size="14.00">scale&#45;cable</text>
<polygon fill="none" stroke="black" points="1456,-525.5 1456,-548.5 1590,-548.5 1590,-525.5 1456,-525.5"/>
<text text-anchor="start" x="1515.5" y="-533.3" font-family="arial" font-size="14.00">4x</text>
<text text-anchor="start" x="1482" y="-512.3" font-family="arial" font-size="14.00"> </text>
<text text-anchor="start" x="1458" y="-493.3" font-family="arial" font-size="14.00">HX711:5</text>
<text text-anchor="start" x="1516" y="-493.3" font-family="arial" font-size="14.00">RD</text>
<text text-anchor="start" x="1542" y="-493.3" font-family="arial" font-size="14.00">Scale:1</text>
<polygon fill="#000000" stroke="transparent" points="1456,-485.5 1456,-487.5 1590,-487.5 1590,-485.5 1456,-485.5"/>
<polygon fill="#ff0000" stroke="transparent" points="1456,-483.5 1456,-485.5 1590,-485.5 1590,-483.5 1456,-483.5"/>
<polygon fill="#000000" stroke="transparent" points="1456,-481.5 1456,-483.5 1590,-483.5 1590,-481.5 1456,-481.5"/>
<text text-anchor="start" x="1458" y="-468.3" font-family="arial" font-size="14.00">HX711:6</text>
<text text-anchor="start" x="1516.5" y="-468.3" font-family="arial" font-size="14.00">BK</text>
<text text-anchor="start" x="1542" y="-468.3" font-family="arial" font-size="14.00">Scale:2</text>
<polygon fill="#000000" stroke="transparent" points="1456,-460.5 1456,-462.5 1590,-462.5 1590,-460.5 1456,-460.5"/>
<polygon fill="#000000" stroke="transparent" points="1456,-458.5 1456,-460.5 1590,-460.5 1590,-458.5 1456,-458.5"/>
<polygon fill="#000000" stroke="transparent" points="1456,-456.5 1456,-458.5 1590,-458.5 1590,-456.5 1456,-456.5"/>
<text text-anchor="start" x="1458" y="-443.3" font-family="arial" font-size="14.00">HX711:7</text>
<text text-anchor="start" x="1515" y="-443.3" font-family="arial" font-size="14.00">GN</text>
<text text-anchor="start" x="1542" y="-443.3" font-family="arial" font-size="14.00">Scale:3</text>
<polygon fill="#000000" stroke="transparent" points="1456,-435.5 1456,-437.5 1590,-437.5 1590,-435.5 1456,-435.5"/>
<polygon fill="#00ff00" stroke="transparent" points="1456,-433.5 1456,-435.5 1590,-435.5 1590,-433.5 1456,-433.5"/>
<polygon fill="#000000" stroke="transparent" points="1456,-431.5 1456,-433.5 1590,-433.5 1590,-431.5 1456,-431.5"/>
<text text-anchor="start" x="1458" y="-418.3" font-family="arial" font-size="14.00">HX711:8</text>
<text text-anchor="start" x="1514" y="-418.3" font-family="arial" font-size="14.00">WH</text>
<text text-anchor="start" x="1542" y="-418.3" font-family="arial" font-size="14.00">Scale:4</text>
<polygon fill="#000000" stroke="transparent" points="1456,-410.5 1456,-412.5 1590,-412.5 1590,-410.5 1456,-410.5"/>
<polygon fill="#ffffff" stroke="transparent" points="1456,-408.5 1456,-410.5 1590,-410.5 1590,-408.5 1456,-408.5"/>
<polygon fill="#000000" stroke="transparent" points="1456,-406.5 1456,-408.5 1590,-408.5 1590,-406.5 1456,-406.5"/>
<text text-anchor="start" x="1482" y="-393.3" font-family="arial" font-size="14.00"> </text>
</g>
<!-- HX711&#45;&#45;scale&#45;cable -->
<g id="edge13" class="edge">
<title>HX711:e&#45;&#45;scale&#45;cable:w</title>
<path fill="none" stroke="#000000" stroke-width="2" d="M1312,-479.5C1376.38,-479.53 1392.36,-482.53 1456,-482.5"/>
<path fill="none" stroke="#ff0000" stroke-width="2" d="M1312,-481.5C1376.01,-481.5 1391.99,-484.5 1456,-484.5"/>
<path fill="none" stroke="#000000" stroke-width="2" d="M1312,-483.5C1375.64,-483.47 1391.62,-486.47 1456,-486.5"/>
</g>
<!-- HX711&#45;&#45;scale&#45;cable -->
<g id="edge15" class="edge">
<title>HX711:e&#45;&#45;scale&#45;cable:w</title>
<path fill="none" stroke="#000000" stroke-width="2" d="M1312,-456.5C1376.13,-456.5 1392.12,-457.5 1456,-457.5"/>
<path fill="none" stroke="#000000" stroke-width="2" d="M1312,-458.5C1376,-458.5 1392,-459.5 1456,-459.5"/>
<path fill="none" stroke="#000000" stroke-width="2" d="M1312,-460.5C1375.88,-460.5 1391.87,-461.5 1456,-461.5"/>
</g>
<!-- HX711&#45;&#45;scale&#45;cable -->
<g id="edge17" class="edge">
<title>HX711:e&#45;&#45;scale&#45;cable:w</title>
<path fill="none" stroke="#000000" stroke-width="2" d="M1312,-433.5C1375.88,-433.5 1391.87,-432.5 1456,-432.5"/>
<path fill="none" stroke="#00ff00" stroke-width="2" d="M1312,-435.5C1376,-435.5 1392,-434.5 1456,-434.5"/>
<path fill="none" stroke="#000000" stroke-width="2" d="M1312,-437.5C1376.13,-437.5 1392.12,-436.5 1456,-436.5"/>
</g>
<!-- HX711&#45;&#45;scale&#45;cable -->
<g id="edge19" class="edge">
<title>HX711:e&#45;&#45;scale&#45;cable:w</title>
<path fill="none" stroke="#000000" stroke-width="2" d="M1312,-410.5C1375.64,-410.53 1391.62,-407.53 1456,-407.5"/>
<path fill="none" stroke="#ffffff" stroke-width="2" d="M1312,-412.5C1376.01,-412.5 1391.99,-409.5 1456,-409.5"/>
<path fill="none" stroke="#000000" stroke-width="2" d="M1312,-414.5C1376.38,-414.47 1392.36,-411.47 1456,-411.5"/>
</g>
<!-- Scale -->
<g id="node3" class="node">
<title>Scale</title>
<polygon fill="white" stroke="transparent" points="1856,-562.5 1734,-562.5 1734,-378.5 1856,-378.5 1856,-562.5"/>
<polygon fill="none" stroke="black" points="1734,-539.5 1734,-562.5 1856,-562.5 1856,-539.5 1734,-539.5"/>
<text text-anchor="start" x="1778" y="-547.3" font-family="arial" font-size="14.00">Scale</text>
<polygon fill="none" stroke="black" points="1734,-516.5 1734,-539.5 1856,-539.5 1856,-516.5 1734,-516.5"/>
<text text-anchor="start" x="1772" y="-524.3" font-family="arial" font-size="14.00">Bosche</text>
<polygon fill="none" stroke="black" points="1734,-493.5 1734,-516.5 1776,-516.5 1776,-493.5 1734,-493.5"/>
<text text-anchor="start" x="1738" y="-501.3" font-family="arial" font-size="14.00">Scale</text>
<polygon fill="none" stroke="black" points="1776,-493.5 1776,-516.5 1817,-516.5 1817,-493.5 1776,-493.5"/>
<text text-anchor="start" x="1780" y="-501.3" font-family="arial" font-size="14.00">cable</text>
<polygon fill="none" stroke="black" points="1817,-493.5 1817,-516.5 1856,-516.5 1856,-493.5 1817,-493.5"/>
<text text-anchor="start" x="1821" y="-501.3" font-family="arial" font-size="14.00">5&#45;pin</text>
<polygon fill="none" stroke="black" points="1734,-470.5 1734,-493.5 1780,-493.5 1780,-470.5 1734,-470.5"/>
<text text-anchor="start" x="1753" y="-478.3" font-family="arial" font-size="14.00">1</text>
<polygon fill="none" stroke="black" points="1780,-470.5 1780,-493.5 1856,-493.5 1856,-470.5 1780,-470.5"/>
<text text-anchor="start" x="1805.5" y="-478.3" font-family="arial" font-size="14.00">Red</text>
<polygon fill="none" stroke="black" points="1734,-447.5 1734,-470.5 1780,-470.5 1780,-447.5 1734,-447.5"/>
<text text-anchor="start" x="1753" y="-455.3" font-family="arial" font-size="14.00">2</text>
<polygon fill="none" stroke="black" points="1780,-447.5 1780,-470.5 1856,-470.5 1856,-447.5 1780,-447.5"/>
<text text-anchor="start" x="1801" y="-455.3" font-family="arial" font-size="14.00">Black</text>
<polygon fill="none" stroke="black" points="1734,-424.5 1734,-447.5 1780,-447.5 1780,-424.5 1734,-424.5"/>
<text text-anchor="start" x="1753" y="-432.3" font-family="arial" font-size="14.00">3</text>
<polygon fill="none" stroke="black" points="1780,-424.5 1780,-447.5 1856,-447.5 1856,-424.5 1780,-424.5"/>
<text text-anchor="start" x="1798.5" y="-432.3" font-family="arial" font-size="14.00">Green</text>
<polygon fill="none" stroke="black" points="1734,-401.5 1734,-424.5 1780,-424.5 1780,-401.5 1734,-401.5"/>
<text text-anchor="start" x="1753" y="-409.3" font-family="arial" font-size="14.00">4</text>
<polygon fill="none" stroke="black" points="1780,-401.5 1780,-424.5 1856,-424.5 1856,-401.5 1780,-401.5"/>
<text text-anchor="start" x="1800" y="-409.3" font-family="arial" font-size="14.00">White</text>
<polygon fill="none" stroke="black" points="1734,-378.5 1734,-401.5 1780,-401.5 1780,-378.5 1734,-378.5"/>
<text text-anchor="start" x="1753" y="-386.3" font-family="arial" font-size="14.00">5</text>
<polygon fill="none" stroke="black" points="1780,-378.5 1780,-401.5 1856,-401.5 1856,-378.5 1780,-378.5"/>
<text text-anchor="start" x="1799" y="-386.3" font-family="arial" font-size="14.00">Shield</text>
</g>
<!-- Resistor -->
<g id="node4" class="node">
<title>Resistor</title>
<polygon fill="white" stroke="transparent" points="176.5,-735.5 13.5,-735.5 13.5,-643.5 176.5,-643.5 176.5,-735.5"/>
<polygon fill="none" stroke="black" points="14,-712.5 14,-735.5 177,-735.5 177,-712.5 14,-712.5"/>
<text text-anchor="start" x="70.5" y="-720.3" font-family="arial" font-size="14.00">Resistor</text>
<polygon fill="none" stroke="black" points="14,-689.5 14,-712.5 85,-712.5 85,-689.5 14,-689.5"/>
<text text-anchor="start" x="18" y="-697.3" font-family="arial" font-size="14.00">4.7 KOhm</text>
<polygon fill="none" stroke="black" points="85,-689.5 85,-712.5 138,-712.5 138,-689.5 85,-689.5"/>
<text text-anchor="start" x="89" y="-697.3" font-family="arial" font-size="14.00">resistor</text>
<polygon fill="none" stroke="black" points="138,-689.5 138,-712.5 177,-712.5 177,-689.5 138,-689.5"/>
<text text-anchor="start" x="142" y="-697.3" font-family="arial" font-size="14.00">2&#45;pin</text>
<polygon fill="none" stroke="black" points="14,-666.5 14,-689.5 177,-689.5 177,-666.5 14,-666.5"/>
<text text-anchor="start" x="91.5" y="-674.3" font-family="arial" font-size="14.00">1</text>
<polygon fill="none" stroke="black" points="14,-643.5 14,-666.5 177,-666.5 177,-643.5 14,-643.5"/>
<text text-anchor="start" x="91.5" y="-651.3" font-family="arial" font-size="14.00">2</text>
</g>
<!-- resistor&#45;cable -->
<g id="node7" class="node">
<title>resistor&#45;cable</title>
<polygon fill="none" stroke="black" points="465,-765.5 334,-765.5 334,-631.5 465,-631.5 465,-765.5"/>
<polygon fill="none" stroke="black" points="334.5,-742.5 334.5,-765.5 465.5,-765.5 465.5,-742.5 334.5,-742.5"/>
<text text-anchor="start" x="359" y="-750.3" font-family="arial" font-size="14.00">resistor&#45;cable</text>
<polygon fill="none" stroke="black" points="334.5,-719.5 334.5,-742.5 465.5,-742.5 465.5,-719.5 334.5,-719.5"/>
<text text-anchor="start" x="392.5" y="-727.3" font-family="arial" font-size="14.00">2x</text>
<text text-anchor="start" x="365" y="-706.3" font-family="arial" font-size="14.00"> </text>
<text text-anchor="start" x="336.5" y="-687.3" font-family="arial" font-size="14.00">Resistor:1</text>
<text text-anchor="start" x="401.5" y="-687.3" font-family="arial" font-size="14.00">WH</text>
<text text-anchor="start" x="429.5" y="-687.3" font-family="arial" font-size="14.00">RPi:2</text>
<polygon fill="#000000" stroke="transparent" points="334.5,-679.5 334.5,-681.5 465.5,-681.5 465.5,-679.5 334.5,-679.5"/>
<polygon fill="#ffffff" stroke="transparent" points="334.5,-677.5 334.5,-679.5 465.5,-679.5 465.5,-677.5 334.5,-677.5"/>
<polygon fill="#000000" stroke="transparent" points="334.5,-675.5 334.5,-677.5 465.5,-677.5 465.5,-675.5 334.5,-675.5"/>
<text text-anchor="start" x="336.5" y="-662.3" font-family="arial" font-size="14.00">Resistor:2</text>
<text text-anchor="start" x="404" y="-662.3" font-family="arial" font-size="14.00">BN</text>
<text text-anchor="start" x="429.5" y="-662.3" font-family="arial" font-size="14.00">RPi:8</text>
<polygon fill="#000000" stroke="transparent" points="334.5,-654.5 334.5,-656.5 465.5,-656.5 465.5,-654.5 334.5,-654.5"/>
<polygon fill="#895956" stroke="transparent" points="334.5,-652.5 334.5,-654.5 465.5,-654.5 465.5,-652.5 334.5,-652.5"/>
<polygon fill="#000000" stroke="transparent" points="334.5,-650.5 334.5,-652.5 465.5,-652.5 465.5,-650.5 334.5,-650.5"/>
<text text-anchor="start" x="365" y="-637.3" font-family="arial" font-size="14.00"> </text>
</g>
<!-- Resistor&#45;&#45;resistor&#45;cable -->
<g id="edge9" class="edge">
<title>Resistor:e&#45;&#45;resistor&#45;cable:w</title>
<path fill="none" stroke="#000000" stroke-width="2" d="M178,-675.5C247.45,-675.5 264.78,-676.5 334,-676.5"/>
<path fill="none" stroke="#ffffff" stroke-width="2" d="M178,-677.5C247.33,-677.5 264.67,-678.5 334,-678.5"/>
<path fill="none" stroke="#000000" stroke-width="2" d="M178,-679.5C247.22,-679.5 264.55,-680.5 334,-680.5"/>
</g>
<!-- Resistor&#45;&#45;resistor&#45;cable -->
<g id="edge11" class="edge">
<title>Resistor:e&#45;&#45;resistor&#45;cable:w</title>
<path fill="none" stroke="#000000" stroke-width="2" d="M178,-652.5C247.22,-652.5 264.55,-651.5 334,-651.5"/>
<path fill="none" stroke="#895956" stroke-width="2" d="M178,-654.5C247.33,-654.5 264.67,-653.5 334,-653.5"/>
<path fill="none" stroke="#000000" stroke-width="2" d="M178,-656.5C247.45,-656.5 264.78,-655.5 334,-655.5"/>
</g>
<!-- Sensor -->
<g id="node5" class="node">
<title>Sensor</title>
<polygon fill="white" stroke="transparent" points="190,-576 0,-576 0,-461 190,-461 190,-576"/>
<polygon fill="none" stroke="black" points="0,-552.5 0,-575.5 190,-575.5 190,-552.5 0,-552.5"/>
<text text-anchor="start" x="73.5" y="-560.3" font-family="arial" font-size="14.00">Sensor</text>
<polygon fill="none" stroke="black" points="0,-529.5 0,-552.5 66,-552.5 66,-529.5 0,-529.5"/>
<text text-anchor="start" x="4" y="-537.3" font-family="arial" font-size="14.00">DS18B20</text>
<polygon fill="none" stroke="black" points="66,-529.5 66,-552.5 151,-552.5 151,-529.5 66,-529.5"/>
<text text-anchor="start" x="70" y="-537.3" font-family="arial" font-size="14.00">Temperature</text>
<polygon fill="none" stroke="black" points="151,-529.5 151,-552.5 190,-552.5 190,-529.5 151,-529.5"/>
<text text-anchor="start" x="155" y="-537.3" font-family="arial" font-size="14.00">3&#45;pin</text>
<polygon fill="none" stroke="black" points="0,-506.5 0,-529.5 111,-529.5 111,-506.5 0,-506.5"/>
<text text-anchor="start" x="43" y="-514.3" font-family="arial" font-size="14.00">Red</text>
<polygon fill="none" stroke="black" points="111,-506.5 111,-529.5 190,-529.5 190,-506.5 111,-506.5"/>
<text text-anchor="start" x="146.5" y="-514.3" font-family="arial" font-size="14.00">1</text>
<polygon fill="none" stroke="black" points="0,-483.5 0,-506.5 111,-506.5 111,-483.5 0,-483.5"/>
<text text-anchor="start" x="38.5" y="-491.3" font-family="arial" font-size="14.00">Black</text>
<polygon fill="none" stroke="black" points="111,-483.5 111,-506.5 190,-506.5 190,-483.5 111,-483.5"/>
<text text-anchor="start" x="146.5" y="-491.3" font-family="arial" font-size="14.00">2</text>
<polygon fill="none" stroke="black" points="0,-460.5 0,-483.5 111,-483.5 111,-460.5 0,-460.5"/>
<text text-anchor="start" x="36" y="-468.3" font-family="arial" font-size="14.00">Green</text>
<polygon fill="none" stroke="black" points="111,-460.5 111,-483.5 190,-483.5 190,-460.5 111,-460.5"/>
<text text-anchor="start" x="146.5" y="-468.3" font-family="arial" font-size="14.00">3</text>
</g>
<!-- temp&#45;cable -->
<g id="node9" class="node">
<title>temp&#45;cable</title>
<polygon fill="none" stroke="black" points="461,-607 338,-607 338,-448 461,-448 461,-607"/>
<polygon fill="none" stroke="black" points="338.5,-583.5 338.5,-606.5 461.5,-606.5 461.5,-583.5 338.5,-583.5"/>
<text text-anchor="start" x="366" y="-591.3" font-family="arial" font-size="14.00">temp&#45;cable</text>
<polygon fill="none" stroke="black" points="338.5,-560.5 338.5,-583.5 461.5,-583.5 461.5,-560.5 338.5,-560.5"/>
<text text-anchor="start" x="392.5" y="-568.3" font-family="arial" font-size="14.00">3x</text>
<text text-anchor="start" x="366" y="-547.3" font-family="arial" font-size="14.00"> </text>
<text text-anchor="start" x="340.5" y="-528.3" font-family="arial" font-size="14.00">Sensor:1</text>
<text text-anchor="start" x="400.5" y="-528.3" font-family="arial" font-size="14.00">RD</text>
<text text-anchor="start" x="425.5" y="-528.3" font-family="arial" font-size="14.00">RPi:2</text>
<polygon fill="#000000" stroke="transparent" points="338.5,-520.5 338.5,-522.5 461.5,-522.5 461.5,-520.5 338.5,-520.5"/>
<polygon fill="#ff0000" stroke="transparent" points="338.5,-518.5 338.5,-520.5 461.5,-520.5 461.5,-518.5 338.5,-518.5"/>
<polygon fill="#000000" stroke="transparent" points="338.5,-516.5 338.5,-518.5 461.5,-518.5 461.5,-516.5 338.5,-516.5"/>
<text text-anchor="start" x="340.5" y="-503.3" font-family="arial" font-size="14.00">Sensor:2</text>
<text text-anchor="start" x="401" y="-503.3" font-family="arial" font-size="14.00">BK</text>
<text text-anchor="start" x="425.5" y="-503.3" font-family="arial" font-size="14.00">RPi:5</text>
<polygon fill="#000000" stroke="transparent" points="338.5,-495.5 338.5,-497.5 461.5,-497.5 461.5,-495.5 338.5,-495.5"/>
<polygon fill="#000000" stroke="transparent" points="338.5,-493.5 338.5,-495.5 461.5,-495.5 461.5,-493.5 338.5,-493.5"/>
<polygon fill="#000000" stroke="transparent" points="338.5,-491.5 338.5,-493.5 461.5,-493.5 461.5,-491.5 338.5,-491.5"/>
<text text-anchor="start" x="340.5" y="-478.3" font-family="arial" font-size="14.00">Sensor:3</text>
<text text-anchor="start" x="399.5" y="-478.3" font-family="arial" font-size="14.00">GN</text>
<text text-anchor="start" x="425.5" y="-478.3" font-family="arial" font-size="14.00">RPi:8</text>
<polygon fill="#000000" stroke="transparent" points="338.5,-470.5 338.5,-472.5 461.5,-472.5 461.5,-470.5 338.5,-470.5"/>
<polygon fill="#00ff00" stroke="transparent" points="338.5,-468.5 338.5,-470.5 461.5,-470.5 461.5,-468.5 338.5,-468.5"/>
<polygon fill="#000000" stroke="transparent" points="338.5,-466.5 338.5,-468.5 461.5,-468.5 461.5,-466.5 338.5,-466.5"/>
<text text-anchor="start" x="366" y="-453.3" font-family="arial" font-size="14.00"> </text>
</g>
<!-- Sensor&#45;&#45;temp&#45;cable -->
<g id="edge21" class="edge">
<title>Sensor:e&#45;&#45;temp&#45;cable:w</title>
<path fill="none" stroke="#000000" stroke-width="2" d="M190,-515.5C255.8,-515.51 272.18,-517.51 337.5,-517.5"/>
<path fill="none" stroke="#ff0000" stroke-width="2" d="M190,-517.5C255.56,-517.5 271.94,-519.5 337.5,-519.5"/>
<path fill="none" stroke="#000000" stroke-width="2" d="M190,-519.5C255.32,-519.49 271.7,-521.49 337.5,-521.5"/>
</g>
<!-- Sensor&#45;&#45;temp&#45;cable -->
<g id="edge23" class="edge">
<title>Sensor:e&#45;&#45;temp&#45;cable:w</title>
<path fill="none" stroke="#000000" stroke-width="2" d="M190,-492.5C255.56,-492.5 271.94,-492.5 337.5,-492.5"/>
<path fill="none" stroke="#000000" stroke-width="2" d="M190,-494.5C255.56,-494.5 271.94,-494.5 337.5,-494.5"/>
<path fill="none" stroke="#000000" stroke-width="2" d="M190,-496.5C255.56,-496.5 271.94,-496.5 337.5,-496.5"/>
</g>
<!-- Sensor&#45;&#45;temp&#45;cable -->
<g id="edge25" class="edge">
<title>Sensor:e&#45;&#45;temp&#45;cable:w</title>
<path fill="none" stroke="#000000" stroke-width="2" d="M190,-469.5C255.32,-469.51 271.7,-467.51 337.5,-467.5"/>
<path fill="none" stroke="#00ff00" stroke-width="2" d="M190,-471.5C255.56,-471.5 271.94,-469.5 337.5,-469.5"/>
<path fill="none" stroke="#000000" stroke-width="2" d="M190,-473.5C255.8,-473.49 272.18,-471.49 337.5,-471.5"/>
</g>
<!-- hx&#45;cable&#45;&#45;HX711 -->
<g id="edge2" class="edge">
<title>hx&#45;cable:e&#45;&#45;HX711:w</title>
<path fill="none" stroke="#000000" stroke-width="2" d="M1041,-575.5C1104.64,-575.53 1120.62,-572.53 1185,-572.5"/>
<path fill="none" stroke="#ffffff" stroke-width="2" d="M1041,-577.5C1105.01,-577.5 1120.99,-574.5 1185,-574.5"/>
<path fill="none" stroke="#000000" stroke-width="2" d="M1041,-579.5C1105.38,-579.47 1121.36,-576.47 1185,-576.5"/>
</g>
<!-- hx&#45;cable&#45;&#45;HX711 -->
<g id="edge4" class="edge">
<title>hx&#45;cable:e&#45;&#45;HX711:w</title>
<path fill="none" stroke="#000000" stroke-width="2" d="M1041,-550.5C1104.88,-550.5 1120.87,-549.5 1185,-549.5"/>
<path fill="none" stroke="#895956" stroke-width="2" d="M1041,-552.5C1105,-552.5 1121,-551.5 1185,-551.5"/>
<path fill="none" stroke="#000000" stroke-width="2" d="M1041,-554.5C1105.13,-554.5 1121.12,-553.5 1185,-553.5"/>
</g>
<!-- hx&#45;cable&#45;&#45;HX711 -->
<g id="edge6" class="edge">
<title>hx&#45;cable:e&#45;&#45;HX711:w</title>
<path fill="none" stroke="#000000" stroke-width="2" d="M1041,-525.5C1105.13,-525.5 1121.12,-526.5 1185,-526.5"/>
<path fill="none" stroke="#00ff00" stroke-width="2" d="M1041,-527.5C1105,-527.5 1121,-528.5 1185,-528.5"/>
<path fill="none" stroke="#000000" stroke-width="2" d="M1041,-529.5C1104.88,-529.5 1120.87,-530.5 1185,-530.5"/>
</g>
<!-- hx&#45;cable&#45;&#45;HX711 -->
<g id="edge8" class="edge">
<title>hx&#45;cable:e&#45;&#45;HX711:w</title>
<path fill="none" stroke="#000000" stroke-width="2" d="M1041,-500.5C1105.25,-500.52 1121.24,-502.52 1185,-502.5"/>
<path fill="none" stroke="#ffff00" stroke-width="2" d="M1041,-502.5C1105.01,-502.5 1120.99,-504.5 1185,-504.5"/>
<path fill="none" stroke="#000000" stroke-width="2" d="M1041,-504.5C1104.76,-504.48 1120.75,-506.48 1185,-506.5"/>
</g>
<!-- resistor&#45;cable&#45;&#45;RPi -->
<g id="edge10" class="edge">
<title>resistor&#45;cable:e&#45;&#45;RPi:w</title>
<path fill="none" stroke="#000000" stroke-width="2" d="M465,-676.5C534.36,-678.46 535.64,-607.46 609,-605.5"/>
<path fill="none" stroke="#ffffff" stroke-width="2" d="M465,-678.5C536.36,-678.5 537.64,-607.5 609,-607.5"/>
<path fill="none" stroke="#000000" stroke-width="2" d="M465,-680.5C538.36,-678.54 539.64,-607.54 609,-609.5"/>
</g>
<!-- resistor&#45;cable&#45;&#45;RPi -->
<g id="edge12" class="edge">
<title>resistor&#45;cable:e&#45;&#45;RPi:w</title>
<path fill="none" stroke="#000000" stroke-width="2" d="M465,-651.5C566.95,-654.15 503.27,-470.15 609,-467.5"/>
<path fill="none" stroke="#895956" stroke-width="2" d="M465,-653.5C568.84,-653.5 505.16,-469.5 609,-469.5"/>
<path fill="none" stroke="#000000" stroke-width="2" d="M465,-655.5C570.73,-652.85 507.05,-468.85 609,-471.5"/>
</g>
<!-- scale&#45;cable&#45;&#45;Scale -->
<g id="edge14" class="edge">
<title>scale&#45;cable:e&#45;&#45;Scale:w</title>
<path fill="none" stroke="#000000" stroke-width="2" d="M1590,-482.5C1653.76,-482.52 1669.75,-480.52 1734,-480.5"/>
<path fill="none" stroke="#ff0000" stroke-width="2" d="M1590,-484.5C1654.01,-484.5 1669.99,-482.5 1734,-482.5"/>
<path fill="none" stroke="#000000" stroke-width="2" d="M1590,-486.5C1654.25,-486.48 1670.24,-484.48 1734,-484.5"/>
</g>
<!-- scale&#45;cable&#45;&#45;Scale -->
<g id="edge16" class="edge">
<title>scale&#45;cable:e&#45;&#45;Scale:w</title>
<path fill="none" stroke="#000000" stroke-width="2" d="M1590,-457.5C1653.88,-457.5 1669.87,-456.5 1734,-456.5"/>
<path fill="none" stroke="#000000" stroke-width="2" d="M1590,-459.5C1654,-459.5 1670,-458.5 1734,-458.5"/>
<path fill="none" stroke="#000000" stroke-width="2" d="M1590,-461.5C1654.13,-461.5 1670.12,-460.5 1734,-460.5"/>
</g>
<!-- scale&#45;cable&#45;&#45;Scale -->
<g id="edge18" class="edge">
<title>scale&#45;cable:e&#45;&#45;Scale:w</title>
<path fill="none" stroke="#000000" stroke-width="2" d="M1590,-432.5C1654.13,-432.5 1670.12,-433.5 1734,-433.5"/>
<path fill="none" stroke="#00ff00" stroke-width="2" d="M1590,-434.5C1654,-434.5 1670,-435.5 1734,-435.5"/>
<path fill="none" stroke="#000000" stroke-width="2" d="M1590,-436.5C1653.88,-436.5 1669.87,-437.5 1734,-437.5"/>
</g>
<!-- scale&#45;cable&#45;&#45;Scale -->
<g id="edge20" class="edge">
<title>scale&#45;cable:e&#45;&#45;Scale:w</title>
<path fill="none" stroke="#000000" stroke-width="2" d="M1590,-407.5C1654.38,-407.53 1670.36,-410.53 1734,-410.5"/>
<path fill="none" stroke="#ffffff" stroke-width="2" d="M1590,-409.5C1654.01,-409.5 1669.99,-412.5 1734,-412.5"/>
<path fill="none" stroke="#000000" stroke-width="2" d="M1590,-411.5C1653.64,-411.47 1669.62,-414.47 1734,-414.5"/>
</g>
<!-- temp&#45;cable&#45;&#45;RPi -->
<g id="edge22" class="edge">
<title>temp&#45;cable:e&#45;&#45;RPi:w</title>
<path fill="none" stroke="#000000" stroke-width="2" d="M462.5,-517.5C540.45,-519.62 535.04,-607.62 609,-605.5"/>
<path fill="none" stroke="#ff0000" stroke-width="2" d="M462.5,-519.5C538.45,-519.5 533.05,-607.5 609,-607.5"/>
<path fill="none" stroke="#000000" stroke-width="2" d="M462.5,-521.5C536.46,-519.38 531.05,-607.38 609,-609.5"/>
</g>
<!-- temp&#45;cable&#45;&#45;RPi -->
<g id="edge24" class="edge">
<title>temp&#45;cable:e&#45;&#45;RPi:w</title>
<path fill="none" stroke="#000000" stroke-width="2" d="M462.5,-492.5C532.43,-494.03 542.96,-538.03 609,-536.5"/>
<path fill="none" stroke="#000000" stroke-width="2" d="M462.5,-494.5C530.48,-494.5 541.02,-538.5 609,-538.5"/>
<path fill="none" stroke="#000000" stroke-width="2" d="M462.5,-496.5C528.54,-494.97 539.07,-538.97 609,-540.5"/>
</g>
<!-- temp&#45;cable&#45;&#45;RPi -->
<g id="edge26" class="edge">
<title>temp&#45;cable:e&#45;&#45;RPi:w</title>
<path fill="none" stroke="#000000" stroke-width="2" d="M462.5,-467.5C527.61,-467.5 543.89,-467.5 609,-467.5"/>
<path fill="none" stroke="#00ff00" stroke-width="2" d="M462.5,-469.5C527.61,-469.5 543.89,-469.5 609,-469.5"/>
<path fill="none" stroke="#000000" stroke-width="2" d="M462.5,-471.5C527.61,-471.5 543.89,-471.5 609,-471.5"/>
</g>
</g>
</svg>
