<?xml version="1.0" encoding="UTF-8" standalone="no"?>
<!DOCTYPE svg PUBLIC "-//W3C//DTD SVG 1.1//EN"
 "http://www.w3.org/Graphics/SVG/1.1/DTD/svg11.dtd">
<!-- Generated by graphviz version 2.40.1 (20161225.0304)
 -->
<!-- Title: %3 Pages: 1 -->
<svg width="734pt" height="409pt"
 viewBox="0.00 0.00 734.00 409.00" xmlns="http://www.w3.org/2000/svg" xmlns:xlink="http://www.w3.org/1999/xlink">
<g id="graph0" class="graph" transform="scale(1 1) rotate(0) translate(4 405)">
<title>%3</title>
<polygon fill="#ffffff" stroke="transparent" points="-4,4 -4,-405 730,-405 730,4 -4,4"/>
<!-- RPi -->
<g id="node1" class="node">
<title>RPi</title>
<polygon fill="#ffffff" stroke="transparent" points="174,-334.5 0,-334.5 0,-81.5 174,-81.5 174,-334.5"/>
<polygon fill="none" stroke="#000000" points="0,-311 0,-334 174,-334 174,-311 0,-311"/>
<text text-anchor="start" x="75" y="-318.8" font-family="arial" font-size="14.00" fill="#000000">RPi</text>
<polygon fill="none" stroke="#000000" points="0,-288 0,-311 174,-311 174,-288 0,-288"/>
<text text-anchor="start" x="44.5" y="-295.8" font-family="arial" font-size="14.00" fill="#000000">Raspberry Pi</text>
<polygon fill="none" stroke="#000000" points="0,-265 0,-288 85,-288 85,-265 0,-265"/>
<text text-anchor="start" x="4" y="-272.8" font-family="arial" font-size="14.00" fill="#000000">Zero or 3B+</text>
<polygon fill="none" stroke="#000000" points="85,-265 85,-288 125,-288 125,-265 85,-265"/>
<text text-anchor="start" x="89" y="-272.8" font-family="arial" font-size="14.00" fill="#000000">male</text>
<polygon fill="none" stroke="#000000" points="125,-265 125,-288 174,-288 174,-265 125,-265"/>
<text text-anchor="start" x="129" y="-272.8" font-family="arial" font-size="14.00" fill="#000000">40&#45;pin</text>
<polygon fill="none" stroke="#000000" points="0,-242 0,-265 109,-265 109,-242 0,-242"/>
<text text-anchor="start" x="38" y="-249.8" font-family="arial" font-size="14.00" fill="#000000">GND</text>
<polygon fill="none" stroke="#000000" points="109,-242 109,-265 174,-265 174,-242 109,-242"/>
<text text-anchor="start" x="137" y="-249.8" font-family="arial" font-size="14.00" fill="#000000">1</text>
<polygon fill="none" stroke="#000000" points="0,-219 0,-242 109,-242 109,-219 0,-219"/>
<text text-anchor="start" x="38" y="-226.8" font-family="arial" font-size="14.00" fill="#000000">GND</text>
<polygon fill="none" stroke="#000000" points="109,-219 109,-242 174,-242 174,-219 109,-219"/>
<text text-anchor="start" x="137" y="-226.8" font-family="arial" font-size="14.00" fill="#000000">2</text>
<polygon fill="none" stroke="#000000" points="0,-196 0,-219 109,-219 109,-196 0,-196"/>
<text text-anchor="start" x="45" y="-203.8" font-family="arial" font-size="14.00" fill="#000000">5V</text>
<polygon fill="none" stroke="#000000" points="109,-196 109,-219 174,-219 174,-196 109,-196"/>
<text text-anchor="start" x="137" y="-203.8" font-family="arial" font-size="14.00" fill="#000000">3</text>
<polygon fill="none" stroke="#000000" points="0,-173 0,-196 109,-196 109,-173 0,-173"/>
<text text-anchor="start" x="45" y="-180.8" font-family="arial" font-size="14.00" fill="#000000">5V</text>
<polygon fill="none" stroke="#000000" points="109,-173 109,-196 174,-196 174,-173 109,-173"/>
<text text-anchor="start" x="137" y="-180.8" font-family="arial" font-size="14.00" fill="#000000">4</text>
<polygon fill="none" stroke="#000000" points="0,-150 0,-173 109,-173 109,-150 0,-150"/>
<text text-anchor="start" x="28.5" y="-157.8" font-family="arial" font-size="14.00" fill="#000000">GPIO11</text>
<polygon fill="none" stroke="#000000" points="109,-150 109,-173 174,-173 174,-150 109,-150"/>
<text text-anchor="start" x="137" y="-157.8" font-family="arial" font-size="14.00" fill="#000000">5</text>
<polygon fill="none" stroke="#000000" points="0,-127 0,-150 109,-150 109,-127 0,-127"/>
<text text-anchor="start" x="28" y="-134.8" font-family="arial" font-size="14.00" fill="#000000">GPIO14</text>
<polygon fill="none" stroke="#000000" points="109,-127 109,-150 174,-150 174,-127 109,-127"/>
<text text-anchor="start" x="137" y="-134.8" font-family="arial" font-size="14.00" fill="#000000">6</text>
<polygon fill="none" stroke="#000000" points="0,-104 0,-127 109,-127 109,-104 0,-104"/>
<text text-anchor="start" x="28" y="-111.8" font-family="arial" font-size="14.00" fill="#000000">GPIO15</text>
<polygon fill="none" stroke="#000000" points="109,-104 109,-127 174,-127 174,-104 109,-104"/>
<text text-anchor="start" x="137" y="-111.8" font-family="arial" font-size="14.00" fill="#000000">7</text>
<polygon fill="none" stroke="#000000" points="0,-81 0,-104 109,-104 109,-81 0,-81"/>
<text text-anchor="start" x="28" y="-88.8" font-family="arial" font-size="14.00" fill="#000000">GPIO16</text>
<polygon fill="none" stroke="#000000" points="109,-81 109,-104 174,-104 174,-81 109,-81"/>
<text text-anchor="start" x="137" y="-88.8" font-family="arial" font-size="14.00" fill="#000000">8</text>
</g>
<!-- hx&#45;cable -->
<g id="node4" class="node">
<title>hx&#45;cable</title>
<polygon fill="none" stroke="#000000" points="448,-401 318,-401 318,-217 448,-217 448,-401"/>
<polygon fill="none" stroke="#000000" points="318,-378 318,-401 448,-401 448,-378 318,-378"/>
<text text-anchor="start" x="355" y="-385.8" font-family="arial" font-size="14.00" fill="#000000">hx&#45;cable</text>
<polygon fill="none" stroke="#000000" points="318,-355 318,-378 448,-378 448,-355 318,-355"/>
<text text-anchor="start" x="375" y="-362.8" font-family="arial" font-size="14.00" fill="#000000">4x</text>
<text text-anchor="start" x="336" y="-341.8" font-family="arial" font-size="14.00" fill="#000000"> </text>
<text text-anchor="start" x="320" y="-322.8" font-family="arial" font-size="14.00" fill="#000000">RPi:1</text>
<text text-anchor="start" x="360" y="-322.8" font-family="arial" font-size="14.00" fill="#000000">WH</text>
<text text-anchor="start" x="389" y="-322.8" font-family="arial" font-size="14.00" fill="#000000">HX711:1</text>
<polygon fill="#000000" stroke="transparent" points="318,-315 318,-317 448,-317 448,-315 318,-315"/>
<polygon fill="#ffffff" stroke="transparent" points="318,-313 318,-315 448,-315 448,-313 318,-313"/>
<polygon fill="#000000" stroke="transparent" points="318,-311 318,-313 448,-313 448,-311 318,-311"/>
<text text-anchor="start" x="320" y="-297.8" font-family="arial" font-size="14.00" fill="#000000">RPi:3</text>
<text text-anchor="start" x="362" y="-297.8" font-family="arial" font-size="14.00" fill="#000000">BN</text>
<text text-anchor="start" x="389" y="-297.8" font-family="arial" font-size="14.00" fill="#000000">HX711:2</text>
<polygon fill="#000000" stroke="transparent" points="318,-290 318,-292 448,-292 448,-290 318,-290"/>
<polygon fill="#895956" stroke="transparent" points="318,-288 318,-290 448,-290 448,-288 318,-288"/>
<polygon fill="#000000" stroke="transparent" points="318,-286 318,-288 448,-288 448,-286 318,-286"/>
<text text-anchor="start" x="320" y="-272.8" font-family="arial" font-size="14.00" fill="#000000">RPi:5</text>
<text text-anchor="start" x="361.5" y="-272.8" font-family="arial" font-size="14.00" fill="#000000">GN</text>
<text text-anchor="start" x="389" y="-272.8" font-family="arial" font-size="14.00" fill="#000000">HX711:3</text>
<polygon fill="#000000" stroke="transparent" points="318,-265 318,-267 448,-267 448,-265 318,-265"/>
<polygon fill="#00ff00" stroke="transparent" points="318,-263 318,-265 448,-265 448,-263 318,-263"/>
<polygon fill="#000000" stroke="transparent" points="318,-261 318,-263 448,-263 448,-261 318,-261"/>
<text text-anchor="start" x="320" y="-247.8" font-family="arial" font-size="14.00" fill="#000000">RPi:6</text>
<text text-anchor="start" x="362.5" y="-247.8" font-family="arial" font-size="14.00" fill="#000000">YE</text>
<text text-anchor="start" x="389" y="-247.8" font-family="arial" font-size="14.00" fill="#000000">HX711:4</text>
<polygon fill="#000000" stroke="transparent" points="318,-240 318,-242 448,-242 448,-240 318,-240"/>
<polygon fill="#ffff00" stroke="transparent" points="318,-238 318,-240 448,-240 448,-238 318,-238"/>
<polygon fill="#000000" stroke="transparent" points="318,-236 318,-238 448,-238 448,-236 318,-236"/>
<text text-anchor="start" x="336" y="-222.8" font-family="arial" font-size="14.00" fill="#000000"> </text>
</g>
<!-- RPi&#45;&#45;hx&#45;cable -->
<g id="edge1" class="edge">
<title>RPi:e&#45;&#45;hx&#45;cable:w</title>
<path fill="none" stroke="#000000" stroke-width="2" d="M174,-252C245.3255,-253.8229 250.6588,-313.8229 318,-312"/>
<path fill="none" stroke="#ffffff" stroke-width="2" d="M174,-254C243.3333,-254 248.6667,-314 318,-314"/>
<path fill="none" stroke="#000000" stroke-width="2" d="M174,-256C241.3412,-254.1771 246.6745,-314.1771 318,-316"/>
</g>
<!-- RPi&#45;&#45;hx&#45;cable -->
<g id="edge3" class="edge">
<title>RPi:e&#45;&#45;hx&#45;cable:w</title>
<path fill="none" stroke="#000000" stroke-width="2" d="M174,-205C249.6475,-207.0804 246.3492,-289.0804 318,-287"/>
<path fill="none" stroke="#895956" stroke-width="2" d="M174,-207C247.6492,-207 244.3508,-289 318,-289"/>
<path fill="none" stroke="#000000" stroke-width="2" d="M174,-209C245.6508,-206.9196 242.3525,-288.9196 318,-291"/>
</g>
<!-- RPi&#45;&#45;hx&#45;cable -->
<g id="edge5" class="edge">
<title>RPi:e&#45;&#45;hx&#45;cable:w</title>
<path fill="none" stroke="#000000" stroke-width="2" d="M174,-159C254.6701,-161.2575 241.2966,-264.2575 318,-262"/>
<path fill="none" stroke="#00ff00" stroke-width="2" d="M174,-161C252.6868,-161 239.3132,-264 318,-264"/>
<path fill="none" stroke="#000000" stroke-width="2" d="M174,-163C250.7034,-160.7425 237.3299,-263.7425 318,-266"/>
</g>
<!-- RPi&#45;&#45;hx&#45;cable -->
<g id="edge7" class="edge">
<title>RPi:e&#45;&#45;hx&#45;cable:w</title>
<path fill="none" stroke="#000000" stroke-width="2" d="M174,-136C254.1582,-138.2427 241.8123,-239.2427 318,-237"/>
<path fill="none" stroke="#ffff00" stroke-width="2" d="M174,-138C252.173,-138 239.827,-239 318,-239"/>
<path fill="none" stroke="#000000" stroke-width="2" d="M174,-140C250.1877,-137.7573 237.8418,-238.7573 318,-241"/>
</g>
<!-- scale&#45;cable -->
<g id="node5" class="node">
<title>scale&#45;cable</title>
<polygon fill="none" stroke="#000000" points="444,-193 322,-193 322,-9 444,-9 444,-193"/>
<polygon fill="none" stroke="#000000" points="322,-170 322,-193 444,-193 444,-170 322,-170"/>
<text text-anchor="start" x="345.5" y="-177.8" font-family="arial" font-size="14.00" fill="#000000">scale&#45;cable</text>
<polygon fill="none" stroke="#000000" points="322,-147 322,-170 444,-170 444,-147 322,-147"/>
<text text-anchor="start" x="375" y="-154.8" font-family="arial" font-size="14.00" fill="#000000">4x</text>
<text text-anchor="start" x="340" y="-133.8" font-family="arial" font-size="14.00" fill="#000000"> </text>
<text text-anchor="start" x="324" y="-114.8" font-family="arial" font-size="14.00" fill="#000000">RPi:2</text>
<text text-anchor="start" x="364" y="-114.8" font-family="arial" font-size="14.00" fill="#000000">WH</text>
<text text-anchor="start" x="393" y="-114.8" font-family="arial" font-size="14.00" fill="#000000">Scale:1</text>
<polygon fill="#000000" stroke="transparent" points="322,-107 322,-109 444,-109 444,-107 322,-107"/>
<polygon fill="#ffffff" stroke="transparent" points="322,-105 322,-107 444,-107 444,-105 322,-105"/>
<polygon fill="#000000" stroke="transparent" points="322,-103 322,-105 444,-105 444,-103 322,-103"/>
<text text-anchor="start" x="324" y="-89.8" font-family="arial" font-size="14.00" fill="#000000">RPi:4</text>
<text text-anchor="start" x="366" y="-89.8" font-family="arial" font-size="14.00" fill="#000000">BN</text>
<text text-anchor="start" x="393" y="-89.8" font-family="arial" font-size="14.00" fill="#000000">Scale:2</text>
<polygon fill="#000000" stroke="transparent" points="322,-82 322,-84 444,-84 444,-82 322,-82"/>
<polygon fill="#895956" stroke="transparent" points="322,-80 322,-82 444,-82 444,-80 322,-80"/>
<polygon fill="#000000" stroke="transparent" points="322,-78 322,-80 444,-80 444,-78 322,-78"/>
<text text-anchor="start" x="324" y="-64.8" font-family="arial" font-size="14.00" fill="#000000">RPi:7</text>
<text text-anchor="start" x="365.5" y="-64.8" font-family="arial" font-size="14.00" fill="#000000">GN</text>
<text text-anchor="start" x="393" y="-64.8" font-family="arial" font-size="14.00" fill="#000000">Scale:3</text>
<polygon fill="#000000" stroke="transparent" points="322,-57 322,-59 444,-59 444,-57 322,-57"/>
<polygon fill="#00ff00" stroke="transparent" points="322,-55 322,-57 444,-57 444,-55 322,-55"/>
<polygon fill="#000000" stroke="transparent" points="322,-53 322,-55 444,-55 444,-53 322,-53"/>
<text text-anchor="start" x="324" y="-39.8" font-family="arial" font-size="14.00" fill="#000000">RPi:8</text>
<text text-anchor="start" x="366.5" y="-39.8" font-family="arial" font-size="14.00" fill="#000000">YE</text>
<text text-anchor="start" x="393" y="-39.8" font-family="arial" font-size="14.00" fill="#000000">Scale:4</text>
<polygon fill="#000000" stroke="transparent" points="322,-32 322,-34 444,-34 444,-32 322,-32"/>
<polygon fill="#ffff00" stroke="transparent" points="322,-30 322,-32 444,-32 444,-30 322,-30"/>
<polygon fill="#000000" stroke="transparent" points="322,-28 322,-30 444,-30 444,-28 322,-28"/>
<text text-anchor="start" x="340" y="-14.8" font-family="arial" font-size="14.00" fill="#000000"> </text>
</g>
<!-- RPi&#45;&#45;scale&#45;cable -->
<g id="edge9" class="edge">
<title>RPi:e&#45;&#45;scale&#45;cable:w</title>
<path fill="none" stroke="#000000" stroke-width="2" d="M174,-229C258.136,-231.3801 233.9369,-106.3801 322,-104"/>
<path fill="none" stroke="#ffffff" stroke-width="2" d="M174,-231C260.0996,-231 235.9004,-106 322,-106"/>
<path fill="none" stroke="#000000" stroke-width="2" d="M174,-233C262.0631,-230.6199 237.864,-105.6199 322,-108"/>
</g>
<!-- RPi&#45;&#45;scale&#45;cable -->
<g id="edge11" class="edge">
<title>RPi:e&#45;&#45;scale&#45;cable:w</title>
<path fill="none" stroke="#000000" stroke-width="2" d="M174,-182C252.1534,-184.2367 239.8747,-81.2367 322,-79"/>
<path fill="none" stroke="#895956" stroke-width="2" d="M174,-184C254.1394,-184 241.8606,-81 322,-81"/>
<path fill="none" stroke="#000000" stroke-width="2" d="M174,-186C256.1253,-183.7633 243.8466,-80.7633 322,-83"/>
</g>
<!-- RPi&#45;&#45;scale&#45;cable -->
<g id="edge13" class="edge">
<title>RPi:e&#45;&#45;scale&#45;cable:w</title>
<path fill="none" stroke="#000000" stroke-width="2" d="M174,-113C242.8234,-114.7851 249.1997,-55.7851 322,-54"/>
<path fill="none" stroke="#00ff00" stroke-width="2" d="M174,-115C244.8119,-115 251.1881,-56 322,-56"/>
<path fill="none" stroke="#000000" stroke-width="2" d="M174,-117C246.8003,-115.2149 253.1766,-56.2149 322,-58"/>
</g>
<!-- RPi&#45;&#45;scale&#45;cable -->
<g id="edge15" class="edge">
<title>RPi:e&#45;&#45;scale&#45;cable:w</title>
<path fill="none" stroke="#000000" stroke-width="2" d="M174,-90C243.1545,-91.8137 248.8629,-30.8137 322,-29"/>
<path fill="none" stroke="#ffff00" stroke-width="2" d="M174,-92C245.1458,-92 250.8542,-31 322,-31"/>
<path fill="none" stroke="#000000" stroke-width="2" d="M174,-94C247.1371,-92.1863 252.8455,-31.1863 322,-33"/>
</g>
<!-- HX711 -->
<g id="node2" class="node">
<title>HX711</title>
<polygon fill="#ffffff" stroke="transparent" points="726,-369 592,-369 592,-231 726,-231 726,-369"/>
<polygon fill="none" stroke="#000000" points="592,-346 592,-369 726,-369 726,-346 592,-346"/>
<text text-anchor="start" x="636.5" y="-353.8" font-family="arial" font-size="14.00" fill="#000000">HX711</text>
<polygon fill="none" stroke="#000000" points="592,-323 592,-346 645,-346 645,-323 592,-323"/>
<text text-anchor="start" x="596" y="-330.8" font-family="arial" font-size="14.00" fill="#000000">HX711</text>
<polygon fill="none" stroke="#000000" points="645,-323 645,-346 685,-346 685,-323 645,-323"/>
<text text-anchor="start" x="649" y="-330.8" font-family="arial" font-size="14.00" fill="#000000">male</text>
<polygon fill="none" stroke="#000000" points="685,-323 685,-346 726,-346 726,-323 685,-323"/>
<text text-anchor="start" x="689" y="-330.8" font-family="arial" font-size="14.00" fill="#000000">4&#45;pin</text>
<polygon fill="none" stroke="#000000" points="592,-300 592,-323 647,-323 647,-300 592,-300"/>
<text text-anchor="start" x="615" y="-307.8" font-family="arial" font-size="14.00" fill="#000000">1</text>
<polygon fill="none" stroke="#000000" points="647,-300 647,-323 726,-323 726,-300 647,-300"/>
<text text-anchor="start" x="670" y="-307.8" font-family="arial" font-size="14.00" fill="#000000">GND</text>
<polygon fill="none" stroke="#000000" points="592,-277 592,-300 647,-300 647,-277 592,-277"/>
<text text-anchor="start" x="615" y="-284.8" font-family="arial" font-size="14.00" fill="#000000">2</text>
<polygon fill="none" stroke="#000000" points="647,-277 647,-300 726,-300 726,-277 647,-277"/>
<text text-anchor="start" x="677" y="-284.8" font-family="arial" font-size="14.00" fill="#000000">5V</text>
<polygon fill="none" stroke="#000000" points="592,-254 592,-277 647,-277 647,-254 592,-254"/>
<text text-anchor="start" x="615" y="-261.8" font-family="arial" font-size="14.00" fill="#000000">3</text>
<polygon fill="none" stroke="#000000" points="647,-254 647,-277 726,-277 726,-254 647,-254"/>
<text text-anchor="start" x="671" y="-261.8" font-family="arial" font-size="14.00" fill="#000000">Data</text>
<polygon fill="none" stroke="#000000" points="592,-231 592,-254 647,-254 647,-231 592,-231"/>
<text text-anchor="start" x="615" y="-238.8" font-family="arial" font-size="14.00" fill="#000000">4</text>
<polygon fill="none" stroke="#000000" points="647,-231 647,-254 726,-254 726,-231 647,-231"/>
<text text-anchor="start" x="671" y="-238.8" font-family="arial" font-size="14.00" fill="#000000">Data</text>
</g>
<!-- Scale -->
<g id="node3" class="node">
<title>Scale</title>
<polygon fill="#ffffff" stroke="transparent" points="724,-184 594,-184 594,0 724,0 724,-184"/>
<polygon fill="none" stroke="#000000" points="594,-161 594,-184 724,-184 724,-161 594,-161"/>
<text text-anchor="start" x="640.5" y="-168.8" font-family="arial" font-size="14.00" fill="#000000">Scale</text>
<polygon fill="none" stroke="#000000" points="594,-138 594,-161 724,-161 724,-138 594,-138"/>
<text text-anchor="start" x="634" y="-145.8" font-family="arial" font-size="14.00" fill="#000000">Bosche</text>
<polygon fill="none" stroke="#000000" points="594,-115 594,-138 639,-138 639,-115 594,-115"/>
<text text-anchor="start" x="598" y="-122.8" font-family="arial" font-size="14.00" fill="#000000">Scale</text>
<polygon fill="none" stroke="#000000" points="639,-115 639,-138 683,-138 683,-115 639,-115"/>
<text text-anchor="start" x="643" y="-122.8" font-family="arial" font-size="14.00" fill="#000000">cable</text>
<polygon fill="none" stroke="#000000" points="683,-115 683,-138 724,-138 724,-115 683,-115"/>
<text text-anchor="start" x="687" y="-122.8" font-family="arial" font-size="14.00" fill="#000000">5&#45;pin</text>
<polygon fill="none" stroke="#000000" points="594,-92 594,-115 643,-115 643,-92 594,-92"/>
<text text-anchor="start" x="614" y="-99.8" font-family="arial" font-size="14.00" fill="#000000">1</text>
<polygon fill="none" stroke="#000000" points="643,-92 643,-115 724,-115 724,-92 643,-92"/>
<text text-anchor="start" x="668.5" y="-99.8" font-family="arial" font-size="14.00" fill="#000000">Blue</text>
<polygon fill="none" stroke="#000000" points="594,-69 594,-92 643,-92 643,-69 594,-69"/>
<text text-anchor="start" x="614" y="-76.8" font-family="arial" font-size="14.00" fill="#000000">2</text>
<polygon fill="none" stroke="#000000" points="643,-69 643,-92 724,-92 724,-69 643,-69"/>
<text text-anchor="start" x="663" y="-76.8" font-family="arial" font-size="14.00" fill="#000000">Green</text>
<polygon fill="none" stroke="#000000" points="594,-46 594,-69 643,-69 643,-46 594,-46"/>
<text text-anchor="start" x="614" y="-53.8" font-family="arial" font-size="14.00" fill="#000000">3</text>
<polygon fill="none" stroke="#000000" points="643,-46 643,-69 724,-69 724,-46 643,-46"/>
<text text-anchor="start" x="662.5" y="-53.8" font-family="arial" font-size="14.00" fill="#000000">Yellow</text>
<polygon fill="none" stroke="#000000" points="594,-23 594,-46 643,-46 643,-23 594,-23"/>
<text text-anchor="start" x="614" y="-30.8" font-family="arial" font-size="14.00" fill="#000000">4</text>
<polygon fill="none" stroke="#000000" points="643,-23 643,-46 724,-46 724,-23 643,-23"/>
<text text-anchor="start" x="669.5" y="-30.8" font-family="arial" font-size="14.00" fill="#000000">Red</text>
<polygon fill="none" stroke="#000000" points="594,0 594,-23 643,-23 643,0 594,0"/>
<text text-anchor="start" x="614" y="-7.8" font-family="arial" font-size="14.00" fill="#000000">5</text>
<polygon fill="none" stroke="#000000" points="643,0 643,-23 724,-23 724,0 643,0"/>
<text text-anchor="start" x="663" y="-7.8" font-family="arial" font-size="14.00" fill="#000000">Shield</text>
</g>
<!-- hx&#45;cable&#45;&#45;HX711 -->
<g id="edge2" class="edge">
<title>hx&#45;cable:e&#45;&#45;HX711:w</title>
<path fill="none" stroke="#000000" stroke-width="2" d="M448,-312C511.7579,-312.0155 527.7456,-310.0155 592,-310"/>
<path fill="none" stroke="#ffffff" stroke-width="2" d="M448,-314C512.0062,-314 527.9938,-312 592,-312"/>
<path fill="none" stroke="#000000" stroke-width="2" d="M448,-316C512.2544,-315.9845 528.2421,-313.9845 592,-314"/>
</g>
<!-- hx&#45;cable&#45;&#45;HX711 -->
<g id="edge4" class="edge">
<title>hx&#45;cable:e&#45;&#45;HX711:w</title>
<path fill="none" stroke="#000000" stroke-width="2" d="M448,-287C511.8768,-287.0039 527.8737,-286.0039 592,-286"/>
<path fill="none" stroke="#895956" stroke-width="2" d="M448,-289C512.0015,-289 527.9985,-288 592,-288"/>
<path fill="none" stroke="#000000" stroke-width="2" d="M448,-291C512.1263,-290.9961 528.1232,-289.9961 592,-290"/>
</g>
<!-- hx&#45;cable&#45;&#45;HX711 -->
<g id="edge6" class="edge">
<title>hx&#45;cable:e&#45;&#45;HX711:w</title>
<path fill="none" stroke="#000000" stroke-width="2" d="M448,-262C512.1263,-262.0039 528.1232,-263.0039 592,-263"/>
<path fill="none" stroke="#00ff00" stroke-width="2" d="M448,-264C512.0015,-264 527.9985,-265 592,-265"/>
<path fill="none" stroke="#000000" stroke-width="2" d="M448,-266C511.8768,-265.9961 527.8737,-266.9961 592,-267"/>
</g>
<!-- hx&#45;cable&#45;&#45;HX711 -->
<g id="edge8" class="edge">
<title>hx&#45;cable:e&#45;&#45;HX711:w</title>
<path fill="none" stroke="#000000" stroke-width="2" d="M448,-237C512.3831,-237.0344 528.3553,-240.0344 592,-240"/>
<path fill="none" stroke="#ffff00" stroke-width="2" d="M448,-239C512.0139,-239 527.9861,-242 592,-242"/>
<path fill="none" stroke="#000000" stroke-width="2" d="M448,-241C511.6447,-240.9656 527.6169,-243.9656 592,-244"/>
</g>
<!-- scale&#45;cable&#45;&#45;Scale -->
<g id="edge10" class="edge">
<title>scale&#45;cable:e&#45;&#45;Scale:w</title>
<path fill="none" stroke="#000000" stroke-width="2" d="M444,-104C510.4341,-104.0143 527.089,-102.0143 594,-102"/>
<path fill="none" stroke="#ffffff" stroke-width="2" d="M444,-106C510.6726,-106 527.3274,-104 594,-104"/>
<path fill="none" stroke="#000000" stroke-width="2" d="M444,-108C510.911,-107.9857 527.5659,-105.9857 594,-106"/>
</g>
<!-- scale&#45;cable&#45;&#45;Scale -->
<g id="edge12" class="edge">
<title>scale&#45;cable:e&#45;&#45;Scale:w</title>
<path fill="none" stroke="#000000" stroke-width="2" d="M444,-79C510.5483,-79.0036 527.212,-78.0036 594,-78"/>
<path fill="none" stroke="#895956" stroke-width="2" d="M444,-81C510.6681,-81 527.3319,-80 594,-80"/>
<path fill="none" stroke="#000000" stroke-width="2" d="M444,-83C510.788,-82.9964 527.4517,-81.9964 594,-82"/>
</g>
<!-- scale&#45;cable&#45;&#45;Scale -->
<g id="edge14" class="edge">
<title>scale&#45;cable:e&#45;&#45;Scale:w</title>
<path fill="none" stroke="#000000" stroke-width="2" d="M444,-54C510.788,-54.0036 527.4517,-55.0036 594,-55"/>
<path fill="none" stroke="#00ff00" stroke-width="2" d="M444,-56C510.6681,-56 527.3319,-57 594,-57"/>
<path fill="none" stroke="#000000" stroke-width="2" d="M444,-58C510.5483,-57.9964 527.212,-58.9964 594,-59"/>
</g>
<!-- scale&#45;cable&#45;&#45;Scale -->
<g id="edge16" class="edge">
<title>scale&#45;cable:e&#45;&#45;Scale:w</title>
<path fill="none" stroke="#000000" stroke-width="2" d="M444,-29C511.0349,-29.0317 527.6749,-32.0317 594,-32"/>
<path fill="none" stroke="#ffff00" stroke-width="2" d="M444,-31C510.68,-31 527.32,-34 594,-34"/>
<path fill="none" stroke="#000000" stroke-width="2" d="M444,-33C510.3251,-32.9683 526.9651,-35.9683 594,-36"/>
</g>
</g>
</svg>
